<?xml version="1.0" encoding="UTF-8"?><svg id="Layer_2" xmlns="http://www.w3.org/2000/svg" xmlns:xlink="http://www.w3.org/1999/xlink" viewBox="0 0 694.13 777.35"><defs><style>.cls-1{fill:url(#Gradiente_sem_nome_3);}.cls-1,.cls-2{stroke:#333;stroke-miterlimit:10;}.cls-3{fill:#f9eaf9;}.cls-4{fill:#232323;}.cls-2{fill:none;}</style><linearGradient id="Gradiente_sem_nome_3" x1="31.71" y1="385.07" x2="642.57" y2="385.07" gradientUnits="userSpaceOnUse"><stop offset="0" stop-color="#ddffbd"/><stop offset="1" stop-color="#bbff80"/></linearGradient></defs><g id="Camada_1"><path class="cls-4" d="m319.22,8.21h20.43c162.94,0,295.22,132.28,295.22,295.22v473.93H24v-473.93C24,140.49,156.28,8.21,319.22,8.21Z"/><path class="cls-1" d="m326.93.5h20.43c162.94,0,295.22,132.28,295.22,295.22v473.93H31.71v-473.93C31.71,132.78,163.99.5,326.93.5Z"/><path class="cls-3" d="m620.83,769.64H51.57v-472.45C51.57,145.25,174.74,22.08,326.68,22.08h18.93c152,0,275.22,123.22,275.22,275.22v472.34Z"/><path class="cls-2" d="m620.83,769.64H51.57v-472.45C51.57,145.25,174.74,22.08,326.68,22.08h18.93c152,0,275.22,123.22,275.22,275.22v472.34Z"/><path class="cls-3" d="m51.57,140.18c-5.58,20.14-18.54,33.12-38.95,38.98,20.33,5.79,33.13,18.64,38.97,38.9,5.82-20.3,18.68-33.16,38.98-38.9-19.67-5.24-33.78-19.21-39-38.97Z"/><path class="cls-4" d="m100.01,176.8c-.36-.04-.72-.03-1.08-.05-19.53-.77-36.77-13.9-42.8-32.45-1.49-4.58-2-9.29-2.51-14.03-.14-1.31-.57-2.29-2.1-2.26-1.54.03-1.86,1.07-2,2.36-.26,2.41-.58,4.82-.92,7.22-2.68,18.66-19.18,35.39-37.77,38.6-3.61.62-7.43-.22-10.84,1.62v2.7c.8.44,1.65.63,2.58.68,5.78.3,11.45,1.25,16.79,3.57,15.96,6.94,26.05,18.68,29.23,36.01.42,2.29.68,4.62.94,6.94.14,1.26.41,2.41,1.9,2.49,1.66.09,2.07-1.11,2.21-2.48.1-.98.24-1.96.33-2.95.73-8.42,3.37-16.17,8.34-23.03,9.3-12.81,21.98-19.51,37.71-20.55,1.48-.1,3.15-.05,3.1-2.08-.04-1.85-1.63-2.14-3.11-2.31Zm-48.43,41.26c-5.84-20.26-18.64-33.1-38.97-38.9,20.41-5.86,33.37-18.84,38.95-38.98,5.22,19.76,19.33,33.73,39,38.97-20.31,5.75-33.16,18.61-38.98,38.9Z"/><path class="cls-4" d="m642.57,546.18c-5.58,20.14-18.54,33.12-38.95,38.98,20.33,5.79,33.13,18.64,38.97,38.9,5.82-20.3,18.68-33.16,38.98-38.9-19.67-5.24-33.78-19.21-39-38.97Z"/><path class="cls-4" d="m691.01,582.8c-.36-.04-.72-.03-1.08-.05-19.53-.77-36.77-13.9-42.8-32.45-1.49-4.58-2-9.29-2.51-14.03-.14-1.31-.57-2.29-2.1-2.26-1.54.03-1.86,1.07-2,2.36-.26,2.41-.58,4.82-.92,7.22-2.68,18.66-19.18,35.39-37.77,38.6-3.61.62-7.43-.22-10.84,1.62v2.7c.8.44,1.65.63,2.58.68,5.78.3,11.45,1.25,16.79,3.57,15.96,6.94,26.05,18.68,29.23,36.01.42,2.29.68,4.62.94,6.94.14,1.26.41,2.41,1.9,2.49,1.66.09,2.07-1.11,2.21-2.48.1-.98.24-1.96.33-2.95.73-8.42,3.37-16.17,8.34-23.03,9.3-12.81,21.98-19.51,37.71-20.55,1.48-.1,3.15-.05,3.1-2.08-.04-1.85-1.63-2.14-3.11-2.31Zm-48.43,41.26c-5.84-20.26-18.64-33.1-38.97-38.9,20.41-5.86,33.37-18.84,38.95-38.98,5.22,19.76,19.33,33.73,39,38.97-20.31,5.75-33.16,18.61-38.98,38.9Z"/></g></svg>