<?xml version="1.0" encoding="utf-8"?>
<!-- Generator: Adobe Illustrator 27.4.1, SVG Export Plug-In . SVG Version: 6.00 Build 0)  -->
<svg version="1.1" id="Layer_2_00000088849810514646819810000016475718181837248684_"
	 xmlns="http://www.w3.org/2000/svg" xmlns:xlink="http://www.w3.org/1999/xlink" x="0px" y="0px" viewBox="0 0 66.3 65.8"
	 style="enable-background:new 0 0 66.3 65.8;" xml:space="preserve">
<path d="M33.1,0C14.8,0,0,14.7,0,32.9s14.8,32.9,33.1,32.9S66.3,51,66.3,32.9S51.4,0,33.1,0z M40.2,50.7H26.1
	c-1.7,0-2.9-1.5-2.5-3.2l4-17.9h11.2l4,17.9C43.1,49.2,41.8,50.7,40.2,50.7z M44.2,24.9c0,0.5-0.2,1-0.7,1.3l-3.4,2.5h-14l-3.4-2.5
	c-0.4-0.3-0.6-0.8-0.6-1.3V15h4v2.2c0,0.5,0.5,1,1,1h2.5c0.5,0,1-0.5,1-1V15h5.2v2.2c0,0.5,0.5,1,1,1h2.5c0.5,0,1-0.5,1-1V15h0l0,0
	v0h4V24.9z"/>
</svg>
