<?xml version="1.0" encoding="UTF-8"?><svg id="Camada_1" xmlns="http://www.w3.org/2000/svg" xmlns:xlink="http://www.w3.org/1999/xlink" viewBox="0 0 758.82 257.14"><defs><style>.cls-1{fill:url(#Gradiente_sem_nome_17-2);}.cls-1,.cls-2,.cls-3,.cls-4,.cls-5{stroke-width:0px;}.cls-2{fill:url(#Gradiente_sem_nome_17);}.cls-3{fill:#3c3c3b;}.cls-4{fill:#333;}.cls-5{fill:#fff;}</style><linearGradient id="Gradiente_sem_nome_17" x1="89.14" y1="48.5" x2="161.77" y2="48.5" gradientUnits="userSpaceOnUse"><stop offset="0" stop-color="#f29ea2"/><stop offset="1" stop-color="#f57e7f"/></linearGradient><linearGradient id="Gradiente_sem_nome_17-2" x1="173.39" x2="529.77" xlink:href="#Gradiente_sem_nome_17"/></defs><polygon class="cls-3" points="433.07 225.59 432.4 225.59 423.39 205.28 417.97 205.28 417.97 235.72 421.73 235.72 421.73 210.58 430.07 229.42 435.07 229.42 443.41 210.49 443.41 235.72 447.5 235.72 447.5 205.28 442.03 205.28 433.07 225.59"/><path class="cls-3" d="m468.14,214.02c-1.45-.54-3.31-.81-5.59-.81-.67,0-1.36,0-2.09.02-.72.01-1.42.04-2.11.08-.68.04-1.33.09-1.94.15v3.5c.61-.06,1.33-.1,2.17-.12.83-.03,1.71-.06,2.63-.08.92-.03,1.81-.04,2.67-.04,1.53,0,2.69.39,3.48,1.17.79.78,1.19,1.93,1.19,3.46v.54h-5.63c-1.92,0-3.56.27-4.92.81-1.36.54-2.4,1.34-3.11,2.4-.71,1.06-1.06,2.38-1.06,3.96s.33,2.84.98,3.92,1.58,1.91,2.79,2.48c1.21.57,2.65.85,4.32.85,1.56,0,2.88-.28,3.98-.83,1.1-.56,1.96-1.37,2.59-2.44.3-.51.54-1.09.73-1.72v4.41h3.17v-14.1c0-2.08-.35-3.74-1.04-4.96-.7-1.22-1.77-2.11-3.21-2.65Zm-.52,16.85c-.57.82-1.29,1.4-2.15,1.75-.86.35-1.77.52-2.71.52-1.61,0-2.85-.38-3.71-1.13-.86-.75-1.29-1.74-1.29-2.96s.43-2.22,1.29-3c.86-.78,2.1-1.17,3.71-1.17h5.8v2.59c-.06,1.45-.37,2.58-.94,3.4Z"/><path class="cls-3" d="m484.89,215.47c-1.04,1.1-1.7,2.66-1.98,4.68v-6.7h-3.17v22.27h4v-12.05c0-2.22.6-3.93,1.79-5.11,1.19-1.18,2.9-1.77,5.13-1.77h1.42v-3.59h-.75c-2.86,0-5.01.76-6.44,2.27Z"/><path class="cls-3" d="m499.04,209.87c.89,0,1.55-.24,1.98-.71.43-.47.65-1.07.65-1.79s-.21-1.32-.65-1.79c-.43-.47-1.09-.71-1.98-.71s-1.55.24-1.98.71c-.43.47-.65,1.07-.65,1.79s.21,1.32.65,1.79c.43.47,1.09.71,1.98.71Z"/><polygon class="cls-3" points="494.5 213.45 494.5 216.62 497.92 216.62 497.92 235.72 501.92 235.72 501.92 216.62 501.92 213.45 497.92 213.45 494.5 213.45"/><path class="cls-3" d="m522.06,214.02c-1.45-.54-3.31-.81-5.59-.81-.67,0-1.36,0-2.09.02-.72.01-1.42.04-2.11.08-.68.04-1.33.09-1.94.15v3.5c.61-.06,1.33-.1,2.17-.12.83-.03,1.71-.06,2.63-.08.92-.03,1.81-.04,2.67-.04,1.53,0,2.69.39,3.48,1.17.79.78,1.19,1.93,1.19,3.46v.54h-5.63c-1.92,0-3.56.27-4.92.81-1.36.54-2.4,1.34-3.11,2.4-.71,1.06-1.06,2.38-1.06,3.96s.33,2.84.98,3.92,1.58,1.91,2.79,2.48c1.21.57,2.65.85,4.32.85,1.56,0,2.88-.28,3.98-.83,1.1-.56,1.96-1.37,2.59-2.44.3-.51.54-1.09.73-1.72v4.41h3.17v-14.1c0-2.08-.35-3.74-1.04-4.96-.7-1.22-1.77-2.11-3.21-2.65Zm-.52,16.85c-.57.82-1.29,1.4-2.15,1.75-.86.35-1.77.52-2.71.52-1.61,0-2.85-.38-3.71-1.13-.86-.75-1.29-1.74-1.29-2.96s.43-2.22,1.29-3c.86-.78,2.1-1.17,3.71-1.17h5.8v2.59c-.06,1.45-.37,2.58-.94,3.4Z"/><path class="cls-3" d="m544.75,212.79h-.17c-1.86,0-3.41.4-4.63,1.19-1.22.79-2.13,1.95-2.73,3.46-.15.38-.28.79-.4,1.22v-5.2h-3.17v22.27h4v-13.3c0-1.81.54-3.25,1.63-4.34,1.08-1.08,2.5-1.63,4.25-1.63s3.03.52,4,1.56c.97,1.04,1.46,2.43,1.46,4.15v13.55h4v-12.72c0-3.31-.67-5.84-2.02-7.59s-3.43-2.63-6.23-2.63Z"/><path class="cls-3" d="m572.73,214.02c-1.45-.54-3.31-.81-5.59-.81-.67,0-1.36,0-2.09.02-.72.01-1.42.04-2.11.08-.68.04-1.33.09-1.94.15v3.5c.61-.06,1.33-.1,2.17-.12.83-.03,1.71-.06,2.63-.08.92-.03,1.81-.04,2.67-.04,1.53,0,2.69.39,3.48,1.17.79.78,1.19,1.93,1.19,3.46v.54h-5.63c-1.92,0-3.56.27-4.92.81-1.36.54-2.4,1.34-3.11,2.4-.71,1.06-1.06,2.38-1.06,3.96s.33,2.84.98,3.92,1.58,1.91,2.79,2.48c1.21.57,2.65.85,4.32.85,1.56,0,2.88-.28,3.98-.83,1.1-.56,1.96-1.37,2.59-2.44.3-.51.54-1.09.73-1.72v4.41h3.17v-14.1c0-2.08-.35-3.74-1.04-4.96-.7-1.22-1.77-2.11-3.21-2.65Zm-.52,16.85c-.57.82-1.29,1.4-2.15,1.75-.86.35-1.77.52-2.71.52-1.61,0-2.85-.38-3.71-1.13-.86-.75-1.29-1.74-1.29-2.96s.43-2.22,1.29-3c.86-.78,2.1-1.17,3.71-1.17h5.8v2.59c-.06,1.45-.37,2.58-.94,3.4Z"/><path class="cls-3" d="m607.43,223.84h10.93v6.7c-.91.98-2.03,1.8-3.38,2.46-1.86.9-4,1.36-6.42,1.36-2.22,0-4.16-.37-5.8-1.11-1.64-.74-3-1.74-4.09-3.02-1.08-1.28-1.89-2.77-2.42-4.46-.53-1.7-.79-3.49-.79-5.38s.28-3.67.83-5.34c.56-1.67,1.36-3.13,2.42-4.4,1.06-1.26,2.36-2.26,3.9-2.98,1.54-.72,3.3-1.08,5.28-1.08,1.86,0,3.57.34,5.11,1.02,1.54.68,2.81,1.67,3.82,2.96,1,1.29,1.61,2.88,1.83,4.77h2.29c-.25-2.17-.95-4.07-2.09-5.69s-2.65-2.89-4.52-3.79c-1.88-.9-4.02-1.36-6.44-1.36s-4.54.44-6.38,1.31c-1.83.88-3.37,2.06-4.61,3.57-1.24,1.5-2.17,3.18-2.79,5.03-.63,1.85-.94,3.73-.94,5.65v.67c0,1.95.31,3.86.92,5.73.61,1.88,1.55,3.57,2.82,5.07,1.26,1.5,2.86,2.7,4.8,3.59,1.93.89,4.22,1.33,6.86,1.33s5.05-.47,7.07-1.42c2.02-.94,3.65-2.2,4.9-3.75v-7.42h2.84v-1.92h-15.93v1.92Z"/><path class="cls-3" d="m647.25,216.71c-.97-1.08-2.16-1.95-3.57-2.59-1.4-.64-3-.96-4.78-.96s-3.41.32-4.82.96c-1.4.64-2.59,1.5-3.57,2.59-.97,1.08-1.71,2.31-2.21,3.67-.5,1.36-.75,2.77-.75,4.21v.42c0,1.42.24,2.8.73,4.15.49,1.35,1.21,2.56,2.17,3.65.96,1.08,2.15,1.96,3.57,2.63,1.42.67,3.04,1,4.88,1s3.45-.33,4.86-1c1.4-.67,2.59-1.54,3.54-2.63.96-1.08,1.69-2.3,2.19-3.65.5-1.35.75-2.73.75-4.15v-.42c0-1.45-.26-2.85-.77-4.21-.52-1.36-1.26-2.59-2.23-3.67Zm-.31,12.82c-.71,1.46-1.74,2.63-3.09,3.52-1.35.89-3,1.33-4.94,1.33s-3.6-.44-4.96-1.33c-1.36-.89-2.4-2.06-3.11-3.52s-1.06-3.04-1.06-4.73.36-3.36,1.08-4.82c.72-1.46,1.77-2.63,3.15-3.5,1.38-.88,3.01-1.31,4.9-1.31s3.55.44,4.9,1.31c1.35.88,2.38,2.04,3.11,3.5.72,1.46,1.08,3.07,1.08,4.82s-.35,3.27-1.06,4.73Z"/><path class="cls-3" d="m674.49,218.56c-.07-.14-.12-.28-.19-.41-.82-1.54-1.96-2.76-3.42-3.65-1.46-.89-3.18-1.33-5.15-1.33-1.7,0-3.2.32-4.5.96s-2.41,1.51-3.32,2.61c-.9,1.1-1.59,2.32-2.06,3.67-.47,1.35-.71,2.75-.71,4.19v.42c0,1.5.24,2.93.73,4.3.49,1.36,1.19,2.58,2.11,3.65.92,1.07,2.04,1.92,3.36,2.54s2.8.94,4.44.94c1.92,0,3.62-.43,5.11-1.29s2.66-2.08,3.52-3.65c.2-.37.38-.76.54-1.16v5.4h1.75v-30.44h-2.21v13.28Zm.12,7.24c0,1.67-.37,3.15-1.1,4.44-.74,1.29-1.75,2.31-3.04,3.06-1.29.75-2.79,1.13-4.48,1.13-1.78,0-3.32-.43-4.61-1.29s-2.29-2.02-2.98-3.48c-.69-1.46-1.04-3.08-1.04-4.86s.34-3.32,1.02-4.77c.68-1.46,1.66-2.63,2.94-3.52,1.28-.89,2.84-1.33,4.67-1.33,1.7,0,3.19.38,4.48,1.13,1.29.75,2.31,1.77,3.04,3.04.74,1.28,1.1,2.71,1.1,4.3v2.17Z"/><path class="cls-3" d="m703.14,216.71c-.97-1.08-2.16-1.95-3.57-2.59-1.4-.64-3-.96-4.78-.96s-3.41.32-4.82.96c-1.4.64-2.59,1.5-3.57,2.59-.97,1.08-1.71,2.31-2.21,3.67-.5,1.36-.75,2.77-.75,4.21v.42c0,1.42.24,2.8.73,4.15.49,1.35,1.21,2.56,2.17,3.65.96,1.08,2.15,1.96,3.57,2.63,1.42.67,3.04,1,4.88,1s3.45-.33,4.86-1c1.4-.67,2.59-1.54,3.54-2.63.96-1.08,1.69-2.3,2.19-3.65.5-1.35.75-2.73.75-4.15v-.42c0-1.45-.26-2.85-.77-4.21-.52-1.36-1.26-2.59-2.23-3.67Zm-.31,12.82c-.71,1.46-1.74,2.63-3.09,3.52-1.35.89-3,1.33-4.94,1.33s-3.6-.44-4.96-1.33c-1.36-.89-2.4-2.06-3.11-3.52s-1.06-3.04-1.06-4.73.36-3.36,1.08-4.82c.72-1.46,1.77-2.63,3.15-3.5,1.38-.88,3.01-1.31,4.9-1.31s3.55.44,4.9,1.31c1.35.88,2.38,2.04,3.11,3.5.72,1.46,1.08,3.07,1.08,4.82s-.35,3.27-1.06,4.73Z"/><path class="cls-3" d="m726.11,213.83l-6.27,19.39h-1.21l-7.16-19.39h-2.25l7.96,21.35h2.02l-.89,2.75c-.36,1.14-.81,2.02-1.36,2.63-.54.61-1.17,1.04-1.9,1.27-.72.24-1.57.35-2.54.35h-2.5v2.04h2.33c1.28,0,2.43-.18,3.44-.54,1.01-.36,1.89-.95,2.63-1.77.74-.82,1.33-1.91,1.77-3.27l8.13-24.81h-2.21Z"/><path class="cls-4" d="m114.77,169.84c1.59,3.98,3.82,7,6.68,9.39,5.89,4.46,9.07,4.61,12.09,4.61h-56.17c.16,0,16.55-2.07,11.14-17.03l-10.34-26.73-36.12-.16-9.55,24.03c-4.46,9.71.16,19.1,11.62,19.89H9.1c7.48-.48,15.6-7.48,20.21-18.78l41.38-100.25.48,1.43,43.6,103.6Zm-62.38-55.86l-9.39,24.03h34.53l-10.34-27.37c-2.86-6.84-4.77-10.66-5.57-11.14-.32-.16-.64-.16-.8-.16-2.07,0-3.98,3.98-8.43,14.64Zm81.16,69.86h.48-.48Z"/><path class="cls-4" d="m193.86,119.55c0,4.93-2.71,9.55-8.43,9.71-2.23,0-3.98-.48-5.41-1.27-2.55-1.75-5.09-5.73-6.21-6.52-5.25-3.82-10.5-1.75-15.75,6.05v43.6c0,5.89,2.71,9.87,6.52,11.3,3.82,1.27,5.41,1.43,7.16,1.43h-45.19c1.75,0,3.34-.16,7-1.43,3.82-1.43,6.52-5.41,6.52-11.3v-40.58c0-6.21-3.02-8.27-7.32-7.48l25.3-14.64v16.87c5.25-10.03,15.6-16.87,25.14-16.39,7.48.16,10.66,5.73,10.66,10.66Z"/><path class="cls-4" d="m247.96,141.35c-19.57,5.89-27.85,11.14-28.33,21.48-.48,6.21,3.02,11.94,9.39,13.21,6.21,1.27,12.25-.64,18.14-5.89-2.07,2.39-3.66,4.3-4.77,5.41l-5.25,4.77c-4.62,3.98-10.03,5.73-16.23,5.73-6.84,0-11.62-1.91-14.64-5.73-3.02-3.98-4.3-8.27-4.14-13.05.16-3.82.96-7,3.34-9.55,2.55-2.71,3.82-4.77,8.27-6.68,4.46-2.07,6.05-3.02,11.94-4.93l6.84-2.07c1.43-.48,3.98-1.11,7.64-2.07,3.66-.96,6.37-1.59,7.8-2.07v-8.91c0-15.28-5.57-22.6-16.23-20.53-7,1.27-11.3,4.61-11.3,13.69,0,2.71,2.39,7.32,2.55,9.87.48,10.82-18.62,12.73-18.14-.95.16-4.3,1.75-8.27,5.09-11.78,6.52-7.16,14.8-10.66,22.44-11.94,14-2.55,34.53.48,33.74,21.8v36.92c0,7.8,3.66,9.71,7.64,7.64,2.39-.16,4.3-2.71,4.93-4.61l.48-1.43c-1.11,3.98-1.75,6.21-4.3,10.18-2.39,3.82-6.84,6.05-12.57,6.05-8.75,0-14.32-4.93-14.32-13.05v-31.51Z"/><path class="cls-4" d="m312.89,169.84c0,13.69,11.3,14,12.57,14h-42.81c1.11.16,12.25-.32,12.25-14v-38.03c.16-10.18-6.68-8.75-7.96-8.27l25.94-15.12v61.43Zm33.1-60.31c3.34.16,6.37.95,8.27,2.86,1.91,1.91,3.5,2.86,4.3,6.05.8,3.18,1.43,4.14,1.43,8.43.16,2.07.16,3.5.16,4.61.16,1.91,0,8.12,0,10.03v28.33c0,13.69,11.3,14,12.57,14h-42.97c1.11,0,12.41-.32,12.41-14v-26.1c0-4.62,0-7.64-.16-9.39,0-1.75-.16-3.82-.64-6.21-.8-4.93-2.55-6.21-5.89-7.48-6.21-2.23-13.69,0-22.28,6.52,11.62-12.57,22.44-18.46,32.78-17.66Zm30.39,4.77c5.89-3.66,11.46-5.25,17.03-4.77,3.34.16,6.37,1.11,8.27,3.02,1.91,1.75,3.5,2.71,4.3,6.05.8,3.18,1.43,3.82,1.59,8.28.16,2.07.16,3.66.16,4.61.16.8.16,2.55,0,5.09v33.26c0,13.69,11.3,14,12.57,14h-42.97c1.11,0,12.41-.32,12.41-14v-24.98c0-7.96-.32-13.37-.8-16.07-.48-2.86-2.07-4.93-4.61-6.37-7.48-3.98-15.44-1.59-23.55,4.77,4.61-4.93,9.71-9.23,15.59-12.89Z"/><path class="cls-4" d="m473.45,141.35c-19.57,5.89-27.85,11.14-28.33,21.48-.48,6.21,3.02,11.94,9.39,13.21,6.21,1.27,12.25-.64,18.14-5.89-2.07,2.39-3.66,4.3-4.77,5.41l-5.25,4.77c-4.61,3.98-10.03,5.73-16.23,5.73-6.84,0-11.62-1.91-14.64-5.73-3.02-3.98-4.3-8.27-4.14-13.05.16-3.82.95-7,3.34-9.55,2.55-2.71,3.82-4.77,8.27-6.68,4.46-2.07,6.05-3.02,11.94-4.93l6.84-2.07c1.43-.48,3.98-1.11,7.64-2.07,3.66-.96,6.37-1.59,7.8-2.07v-8.91c0-15.28-5.57-22.6-16.23-20.53-7,1.27-11.3,4.61-11.3,13.69,0,2.71,2.39,7.32,2.55,9.87.48,10.82-18.62,12.73-18.14-.95.16-4.3,1.75-8.27,5.09-11.78,6.52-7.16,14.8-10.66,22.44-11.94,14-2.55,34.53.48,33.74,21.8v36.92c0,7.8,3.66,9.71,7.64,7.64,2.39-.16,4.3-2.71,4.93-4.61l.48-1.43c-1.11,3.98-1.75,6.21-4.3,10.18-2.39,3.82-6.84,6.05-12.57,6.05-8.75,0-14.32-4.93-14.32-13.05v-31.51Z"/><path class="cls-4" d="m556.36,181.93c-3.34,2.71-7.64,3.98-12.57,4.14-9.39.32-17.19-2.86-23.71-9.71s-9.87-15.91-10.18-27.37c-.32-12.57,2.86-22.28,9.71-29.44s15.12-10.98,24.67-11.14c8.75-.16,15.44,1.75,19.89,5.73v-20.21c0-7.64-4.93-10.03-9.23-8.59l27.05-16.07v94.53c0,9.23,7.96,7.64,9.71,7.64l.48-.16-28.01,16.23v-38.99c0-10.98-1.75-20.05-5.09-27.53s-7.96-11.3-14-11.46c-5.73-.32-10.03,3.18-13.05,10.66-2.86,7.48-3.82,16.07-2.86,25.94.64,8.27,2.71,15.6,6.37,21.8,3.66,6.21,8.27,9.71,13.84,10.66,5.89,1.11,10.66-1.11,14.16-6.68-2.23,4.61-4.62,7.96-7.16,10.03Z"/><path class="cls-4" d="m618.42,180.98c-8.12-3.82-14.96-12.41-17.5-24.67-2.39-10.82-.96-20.53,4.3-29.28,5.25-8.75,12.89-14.48,23.23-17.19,12.09-3.02,22.6-1.59,31.67,4.3,9.07,5.73,14.16,15.12,15.6,28.33,1.11,11.94-1.75,21.96-8.59,30.08-6.68,7.96-15.44,12.25-26.42,12.89-7,.48-14-.64-22.28-4.46Zm26.89-65.4c-4.93-5.73-10.5-7-16.71-3.82-4.61,2.23-7.64,7.8-8.91,16.71-1.27,8.75-.8,17.5,1.27,26.1,2.23,10.98,5.73,18.62,10.5,23.23,4.93,4.61,9.71,6.37,14.32,5.41,3.98-.8,6.84-3.82,8.91-8.75,3.98-10.03,3.02-22.76.96-35.65-1.91-9.71-5.41-17.5-10.34-23.23Z"/><path class="cls-4" d="m744.3,135.31c-3.34-6.52-7.64-11.94-13.21-16.55-5.57-4.61-10.98-7-16.55-7.32-6.37-.16-10.18,3.34-10.66,8.43-.16,1.75.16,3.5.64,5.09,1.27,3.18,7.64,9.07,18.94,12.89,19.73,7,26.1,13.84,26.26,23.87.16,6.52-1.91,12.25-6.21,17.03-4.3,4.61-11.14,7-20.53,7-10.34,0-20.69-2.71-31.35-8.12l-.48-24.51c4.93,9.39,11.3,16.87,18.94,22.12,6.05,4.3,12.09,6.68,17.98,7.32,6.05.48,9.71-1.11,10.98-4.93,2.39-7.48-3.98-15.12-21.8-21.48-18.62-6.84-25.14-14.96-24.67-25.14.16-6.05,2.71-11.3,7.64-15.6,4.93-4.46,12.09-6.68,21.32-6.52,4.3,0,8.28.64,12.09,1.75,7.64,2.07,9.87,3.98,10.66,4.77v19.89Z"/><rect class="cls-2" x="89.14" y="12.92" width="72.63" height="71.18"/><path class="cls-5" d="m108.02,70.12c-.81,0-1.6-.22-2.3-.66-1.33-.83-2.09-2.29-2.09-3.99,0-3.88,0-7.77,0-11.65v-10.57s0-11.5,0-11.5c0-1.41.51-2.62,1.51-3.6,1.35-1.32,3.17-1.62,4.87-.79l33.3,16.1c.46.21.91.43,1.35.66,1.79.96,2.71,2.55,2.65,4.59-.06,1.93-1.02,3.45-2.72,4.28-3.84,1.87-7.68,3.72-11.53,5.58l-22.88,11.05c-.71.34-1.45.51-2.16.51Zm.22-38.49c-.03.12-.03.22-.03.3v32.97c0,.27,0,.41,0,.54,0,0,0,.02,0,.03l.72-.33,33.23-16.04c.38-.18.41-.36.41-.55,0-.16,0-.33-.41-.53-4.18-2-8.35-4.02-12.53-6.04l-17.02-8.25c-1.46-.71-2.91-1.41-4.37-2.1Z"/><rect class="cls-1" x="173.39" y="12.92" width="356.38" height="71.18"/><path class="cls-5" d="m223.73,65.44c-2.77,2.03-6.19,3.05-10.26,3.05-2.9,0-5.43-.51-7.59-1.53-2.16-1.02-3.97-2.41-5.42-4.19-1.45-1.77-2.53-3.81-3.25-6.1-.71-2.29-1.07-4.72-1.07-7.27,0-2.68.36-5.17,1.07-7.46.71-2.29,1.77-4.32,3.18-6.07,1.41-1.75,3.17-3.12,5.29-4.09,2.12-.97,4.59-1.46,7.4-1.46,2.6,0,4.94.43,7.04,1.3,2.1.87,3.84,2.17,5.23,3.93,1.38,1.75,2.25,3.97,2.6,6.65h6.49c-.39-3.59-1.47-6.71-3.25-9.35-1.77-2.64-4.18-4.69-7.21-6.17-3.03-1.47-6.66-2.21-10.91-2.21s-7.72.71-10.71,2.14c-2.99,1.43-5.41,3.31-7.27,5.65-1.86,2.34-3.24,4.93-4.12,7.79-.89,2.86-1.33,5.71-1.33,8.57v1.43c0,2.64.43,5.38,1.3,8.21.87,2.83,2.23,5.46,4.09,7.89,1.86,2.42,4.32,4.39,7.37,5.91s6.74,2.27,11.07,2.27,8.17-.8,11.26-2.4c3.09-1.6,5.52-3.74,7.27-6.43,1.75-2.68,2.84-5.65,3.28-8.89h-6.49c-.61,3.85-2.29,6.79-5.06,8.83Z"/><polygon class="cls-5" points="239.18 25.78 239.18 30.71 243.98 30.71 243.98 73.17 250.21 73.17 250.21 30.71 250.21 25.78 243.98 25.78 239.18 25.78"/><path class="cls-5" d="m284.61,59.14c0,2.9-.82,5.18-2.47,6.85-1.65,1.67-3.77,2.5-6.36,2.5s-4.5-.77-5.97-2.3c-1.47-1.54-2.21-3.67-2.21-6.39v-21.36h-6.23v20.12c0,5.06,1.1,8.94,3.31,11.62,2.21,2.68,5.37,4.02,9.48,4.02h.26c2.77,0,5.05-.62,6.85-1.85,1.8-1.23,3.15-3.03,4.06-5.39.22-.58.42-1.19.58-1.83v8.03h4.93v-34.73h-6.23v20.71Z"/><path class="cls-5" d="m333.75,42.56c-1.47-1.62-3.22-2.9-5.26-3.83-2.03-.93-4.28-1.4-6.75-1.4-2.64,0-5.05.57-7.24,1.72-2.19,1.15-3.95,2.91-5.29,5.29-.02.04-.04.09-.06.13v-18.69h-6.23v47.39h4.93v-7.19c.15.33.28.68.45.99,1.3,2.4,3.06,4.23,5.29,5.49,2.23,1.25,4.77,1.88,7.63,1.88,2.55,0,4.88-.48,6.98-1.43,2.1-.95,3.91-2.26,5.42-3.93,1.51-1.67,2.67-3.58,3.47-5.74.8-2.16,1.2-4.48,1.2-6.95v-1.17c0-2.47-.39-4.77-1.17-6.91-.78-2.14-1.9-4.02-3.38-5.65Zm-3.12,19.99c-.95,1.97-2.29,3.52-4.02,4.64-1.73,1.13-3.76,1.69-6.1,1.69-2.03,0-3.94-.45-5.71-1.36-1.77-.91-3.2-2.21-4.28-3.89-1.08-1.69-1.62-3.72-1.62-6.1v-2.99c0-2.47.53-4.58,1.59-6.33,1.06-1.75,2.48-3.09,4.25-4.02,1.77-.93,3.7-1.4,5.78-1.4,2.29,0,4.31.53,6.04,1.59,1.73,1.06,3.08,2.56,4.06,4.51.97,1.95,1.46,4.22,1.46,6.82s-.48,4.88-1.43,6.85Z"/><path class="cls-5" d="m371.3,39.77c-2.45-1.62-5.55-2.43-9.31-2.43-2.9,0-5.42.51-7.56,1.53-2.14,1.02-3.91,2.38-5.29,4.09-1.39,1.71-2.41,3.62-3.08,5.74-.67,2.12-1.01,4.31-1.01,6.56v1.17c0,2.21.33,4.37,1.01,6.49.67,2.12,1.7,4.04,3.08,5.74,1.38,1.71,3.18,3.08,5.39,4.12s4.82,1.56,7.85,1.56c2.73,0,5.17-.45,7.33-1.36,2.16-.91,3.96-2.23,5.39-3.96,1.43-1.73,2.38-3.79,2.86-6.17h-5.84c-.35,1.6-1.37,3.01-3.08,4.22-1.71,1.21-3.93,1.82-6.65,1.82s-4.74-.57-6.43-1.72c-1.69-1.15-2.93-2.7-3.73-4.67-.67-1.65-1.04-3.49-1.15-5.48h27.47v-2.79c0-2.9-.6-5.62-1.79-8.18-1.19-2.55-3.01-4.64-5.45-6.26Zm-15.45,4.71c1.62-1.12,3.67-1.69,6.13-1.69s4.35.5,5.91,1.49c1.56,1,2.73,2.39,3.5,4.19.5,1.15.82,2.44,1,3.86h-21.09c.2-1.16.5-2.24.91-3.25.8-1.95,2.01-3.48,3.63-4.61Z"/><path class="cls-5" d="m430.86,46.45c-.1-.21-.18-.44-.29-.64-1.28-2.4-3.05-4.29-5.32-5.68-2.27-1.38-4.94-2.08-8.02-2.08-2.64,0-4.98.5-7.01,1.49-2.03,1-3.75,2.35-5.16,4.06-1.41,1.71-2.48,3.61-3.21,5.71-.74,2.1-1.1,4.27-1.1,6.52v.65c0,2.34.38,4.57,1.14,6.69.76,2.12,1.85,4.01,3.28,5.68,1.43,1.67,3.17,2.99,5.22,3.96s4.36,1.46,6.91,1.46c2.99,0,5.64-.67,7.95-2.01,2.31-1.34,4.14-3.23,5.49-5.68.32-.58.6-1.18.84-1.8v8.39h2.73V25.78h-3.44v20.67Zm.19,11.27c0,2.6-.57,4.9-1.72,6.91-1.15,2.01-2.73,3.6-4.74,4.77-2.01,1.17-4.34,1.75-6.98,1.75-2.77,0-5.16-.67-7.17-2.01-2.01-1.34-3.56-3.15-4.64-5.42s-1.62-4.79-1.62-7.56.53-5.16,1.59-7.43c1.06-2.27,2.59-4.1,4.58-5.48,1.99-1.38,4.41-2.08,7.27-2.08,2.64,0,4.97.58,6.98,1.75,2.01,1.17,3.59,2.75,4.74,4.74,1.15,1.99,1.72,4.22,1.72,6.69v3.38Z"/><path class="cls-5" d="m475.45,43.57c-1.51-1.69-3.37-3.03-5.55-4.02-2.19-.99-4.66-1.49-7.43-1.49s-5.31.5-7.5,1.49c-2.19,1-4.04,2.34-5.55,4.02-1.52,1.69-2.66,3.59-3.44,5.71-.78,2.12-1.17,4.31-1.17,6.56v.65c0,2.21.38,4.36,1.14,6.46.76,2.1,1.88,3.99,3.38,5.68,1.49,1.69,3.34,3.05,5.55,4.09s4.74,1.56,7.59,1.56,5.38-.52,7.56-1.56c2.18-1.04,4.02-2.4,5.52-4.09,1.49-1.69,2.63-3.58,3.41-5.68.78-2.1,1.17-4.25,1.17-6.46v-.65c0-2.25-.4-4.44-1.2-6.56-.8-2.12-1.96-4.02-3.47-5.71Zm-.49,19.96c-1.1,2.27-2.71,4.1-4.8,5.49-2.1,1.39-4.66,2.08-7.69,2.08s-5.61-.69-7.72-2.08c-2.12-1.38-3.73-3.21-4.84-5.49-1.1-2.27-1.66-4.73-1.66-7.37s.56-5.23,1.69-7.5c1.12-2.27,2.76-4.09,4.9-5.45,2.14-1.36,4.68-2.04,7.63-2.04s5.53.68,7.63,2.04c2.1,1.36,3.71,3.18,4.84,5.45,1.12,2.27,1.69,4.77,1.69,7.5s-.55,5.1-1.66,7.37Z"/><path class="cls-5" d="m510.86,57.07c-2.1-1.56-4.75-2.49-7.95-2.79l-4.02-.45c-2.25-.26-3.93-.93-5.03-2.01-1.1-1.08-1.66-2.38-1.66-3.9,0-1.82.7-3.4,2.11-4.74,1.41-1.34,3.56-2.01,6.46-2.01s4.9.63,6.39,1.88c1.49,1.26,2.22,2.81,2.17,4.67h3.38c-.04-2.99-1.16-5.34-3.34-7.08-2.19-1.73-5.05-2.6-8.6-2.6-2.42,0-4.53.43-6.33,1.3-1.8.87-3.17,2.03-4.12,3.51-.95,1.47-1.43,3.14-1.43,5,0,2.6.88,4.65,2.63,6.17,1.75,1.52,4.12,2.45,7.11,2.79l4.02.45c2.47.26,4.42.91,5.87,1.95,1.45,1.04,2.17,2.53,2.17,4.48s-.8,3.71-2.4,5.16c-1.6,1.45-4.11,2.17-7.53,2.17s-6.03-.72-7.56-2.17c-1.54-1.45-2.3-3.15-2.3-5.1h-3.38c.04,3.03,1.2,5.52,3.47,7.46,2.27,1.95,5.53,2.92,9.77,2.92,2.81,0,5.19-.47,7.14-1.4s3.45-2.17,4.51-3.73c1.06-1.56,1.59-3.31,1.59-5.26,0-2.9-1.05-5.13-3.15-6.69Z"/></svg>