<?xml version="1.0" encoding="UTF-8"?><svg id="Camada_1" xmlns="http://www.w3.org/2000/svg" xmlns:xlink="http://www.w3.org/1999/xlink" viewBox="0 0 793.33 74.66"><defs><style>.cls-1{fill:url(#Gradiente_sem_nome_18-2);}.cls-1,.cls-2,.cls-3,.cls-4{stroke-width:0px;}.cls-2{fill:url(#Gradiente_sem_nome_18);}.cls-3{fill:#333;}.cls-4{fill:#fff;}</style><linearGradient id="Gradiente_sem_nome_18" x1="79.05" y1="36.37" x2="395.35" y2="36.37" gradientUnits="userSpaceOnUse"><stop offset="0" stop-color="#f29ea2"/><stop offset=".39" stop-color="#f29497"/><stop offset="1" stop-color="#f57e7f"/></linearGradient><linearGradient id="Gradiente_sem_nome_18-2" x1="4.27" x2="68.74" xlink:href="#Gradiente_sem_nome_18"/></defs><path class="cls-3" d="m456.25,60.62c.83,2.08,2,3.67,3.5,4.92,3.09,2.34,4.75,2.42,6.34,2.42h-29.44c.08,0,8.67-1.08,5.84-8.92l-5.42-14.01-18.93-.08-5,12.59c-2.33,5.09.08,10.01,6.09,10.43h-18.35c3.92-.25,8.17-3.92,10.59-9.84l21.69-52.54.25.75,22.85,54.3Zm-32.69-29.27l-4.92,12.59h18.1l-5.42-14.35c-1.5-3.59-2.5-5.59-2.92-5.84-.17-.08-.33-.08-.42-.08-1.08,0-2.09,2.08-4.42,7.67Zm42.54,36.61h.25-.25Z"/><path class="cls-3" d="m497.71,34.26c0,2.58-1.42,5-4.42,5.09-1.17,0-2.08-.25-2.84-.67-1.33-.92-2.67-3-3.25-3.42-2.75-2-5.5-.92-8.26,3.17v22.85c0,3.09,1.42,5.17,3.42,5.92,2,.67,2.83.75,3.75.75h-23.69c.92,0,1.75-.08,3.67-.75,2-.75,3.42-2.83,3.42-5.92v-21.27c0-3.25-1.58-4.34-3.84-3.92l13.26-7.67v8.84c2.75-5.25,8.17-8.84,13.18-8.59,3.92.08,5.59,3,5.59,5.59Z"/><path class="cls-3" d="m526.07,45.69c-10.26,3.09-14.6,5.84-14.85,11.26-.25,3.25,1.58,6.26,4.92,6.92,3.25.67,6.42-.33,9.51-3.09-1.08,1.25-1.92,2.25-2.5,2.84l-2.75,2.5c-2.42,2.08-5.25,3-8.51,3-3.59,0-6.09-1-7.67-3-1.58-2.08-2.25-4.34-2.17-6.84.08-2,.5-3.67,1.75-5,1.33-1.42,2-2.5,4.34-3.5,2.33-1.08,3.17-1.58,6.25-2.58l3.59-1.08c.75-.25,2.08-.58,4-1.08,1.92-.5,3.34-.83,4.09-1.08v-4.67c0-8.01-2.92-11.84-8.51-10.76-3.67.67-5.92,2.42-5.92,7.17,0,1.42,1.25,3.84,1.33,5.17.25,5.67-9.76,6.67-9.51-.5.08-2.25.92-4.34,2.67-6.17,3.42-3.75,7.76-5.59,11.76-6.25,7.34-1.33,18.1.25,17.68,11.43v19.35c0,4.09,1.92,5.09,4,4,1.25-.08,2.25-1.42,2.59-2.42l.25-.75c-.58,2.08-.92,3.25-2.25,5.34-1.25,2-3.59,3.17-6.59,3.17-4.59,0-7.51-2.58-7.51-6.84v-16.51Z"/><path class="cls-3" d="m560.1,60.62c0,7.17,5.92,7.34,6.59,7.34h-22.44c.58.08,6.42-.17,6.42-7.34v-19.93c.08-5.34-3.5-4.59-4.17-4.34l13.59-7.92v32.19Zm17.35-31.61c1.75.08,3.34.5,4.34,1.5,1,1,1.83,1.5,2.25,3.17s.75,2.17.75,4.42c.08,1.08.08,1.83.08,2.42.08,1,0,4.25,0,5.25v14.85c0,7.17,5.92,7.34,6.59,7.34h-22.52c.58,0,6.51-.17,6.51-7.34v-13.68c0-2.42,0-4-.08-4.92,0-.92-.08-2-.33-3.25-.42-2.59-1.33-3.25-3.09-3.92-3.25-1.17-7.17,0-11.68,3.42,6.09-6.59,11.76-9.67,17.18-9.26Zm15.93,2.5c3.09-1.92,6.01-2.75,8.92-2.5,1.75.08,3.34.58,4.34,1.58,1,.92,1.83,1.42,2.25,3.17.42,1.67.75,2,.83,4.34.08,1.08.08,1.92.08,2.42.08.42.08,1.33,0,2.67v17.43c0,7.17,5.92,7.34,6.59,7.34h-22.52c.58,0,6.51-.17,6.51-7.34v-13.09c0-4.17-.17-7.01-.42-8.42-.25-1.5-1.08-2.58-2.42-3.34-3.92-2.08-8.09-.83-12.34,2.5,2.42-2.58,5.09-4.84,8.17-6.76Z"/><path class="cls-3" d="m644.25,45.69c-10.26,3.09-14.6,5.84-14.85,11.26-.25,3.25,1.58,6.26,4.92,6.92,3.25.67,6.42-.33,9.51-3.09-1.08,1.25-1.92,2.25-2.5,2.84l-2.75,2.5c-2.42,2.08-5.25,3-8.51,3-3.59,0-6.09-1-7.67-3-1.58-2.08-2.25-4.34-2.17-6.84.08-2,.5-3.67,1.75-5,1.33-1.42,2-2.5,4.34-3.5,2.33-1.08,3.17-1.58,6.25-2.58l3.59-1.08c.75-.25,2.08-.58,4-1.08,1.92-.5,3.34-.83,4.09-1.08v-4.67c0-8.01-2.92-11.84-8.51-10.76-3.67.67-5.92,2.42-5.92,7.17,0,1.42,1.25,3.84,1.33,5.17.25,5.67-9.76,6.67-9.51-.5.08-2.25.92-4.34,2.67-6.17,3.42-3.75,7.76-5.59,11.76-6.25,7.34-1.33,18.1.25,17.68,11.43v19.35c0,4.09,1.92,5.09,4,4,1.25-.08,2.25-1.42,2.59-2.42l.25-.75c-.58,2.08-.92,3.25-2.25,5.34-1.25,2-3.59,3.17-6.59,3.17-4.59,0-7.51-2.58-7.51-6.84v-16.51Z"/><path class="cls-3" d="m687.71,66.96c-1.75,1.42-4,2.08-6.59,2.17-4.92.17-9.01-1.5-12.43-5.09-3.42-3.59-5.17-8.34-5.34-14.35-.17-6.59,1.5-11.68,5.09-15.43,3.59-3.75,7.92-5.75,12.93-5.84,4.59-.08,8.09.92,10.43,3v-10.59c0-4-2.58-5.25-4.84-4.5l14.18-8.42v49.54c0,4.84,4.17,4,5.09,4l.25-.08-14.68,8.51v-20.43c0-5.75-.92-10.51-2.67-14.43-1.75-3.92-4.17-5.92-7.34-6.01-3-.17-5.25,1.67-6.84,5.59-1.5,3.92-2,8.42-1.5,13.59.33,4.34,1.42,8.17,3.34,11.43,1.92,3.25,4.34,5.09,7.26,5.59,3.09.58,5.59-.58,7.42-3.5-1.17,2.42-2.42,4.17-3.75,5.25Z"/><path class="cls-3" d="m720.24,66.46c-4.25-2-7.84-6.51-9.17-12.93-1.25-5.67-.5-10.76,2.25-15.35,2.75-4.59,6.76-7.59,12.18-9.01,6.34-1.58,11.84-.83,16.6,2.25,4.75,3,7.42,7.92,8.17,14.85.58,6.26-.92,11.51-4.5,15.76-3.5,4.17-8.09,6.42-13.84,6.76-3.67.25-7.34-.33-11.68-2.33Zm14.1-34.28c-2.59-3-5.5-3.67-8.76-2-2.42,1.17-4,4.09-4.67,8.76-.67,4.59-.42,9.17.67,13.68,1.17,5.75,3,9.76,5.5,12.18,2.59,2.42,5.09,3.34,7.51,2.83,2.08-.42,3.59-2,4.67-4.59,2.08-5.25,1.58-11.93.5-18.68-1-5.09-2.84-9.17-5.42-12.18Z"/><path class="cls-3" d="m786.21,42.52c-1.75-3.42-4-6.25-6.92-8.67-2.92-2.42-5.75-3.67-8.67-3.84-3.34-.08-5.34,1.75-5.59,4.42-.08.92.08,1.83.33,2.67.67,1.67,4,4.75,9.92,6.76,10.34,3.67,13.68,7.26,13.76,12.51.08,3.42-1,6.42-3.25,8.92-2.25,2.42-5.84,3.67-10.76,3.67-5.42,0-10.84-1.42-16.43-4.25l-.25-12.84c2.58,4.92,5.92,8.84,9.92,11.59,3.17,2.25,6.34,3.5,9.42,3.84,3.17.25,5.09-.58,5.75-2.59,1.25-3.92-2.08-7.92-11.43-11.26-9.76-3.59-13.18-7.84-12.93-13.18.08-3.17,1.42-5.92,4-8.17,2.58-2.33,6.34-3.5,11.18-3.42,2.25,0,4.34.33,6.34.92,4,1.08,5.17,2.08,5.59,2.5v10.43Z"/><rect class="cls-2" x="79.05" y="4.78" width="316.3" height="63.17"/><path class="cls-4" d="m123.23,50.41c-2.46,1.81-5.49,2.71-9.1,2.71-2.57,0-4.82-.45-6.74-1.35-1.92-.9-3.52-2.14-4.81-3.72-1.29-1.57-2.25-3.38-2.88-5.42-.63-2.04-.95-4.19-.95-6.45,0-2.38.32-4.59.95-6.62.63-2.04,1.57-3.83,2.82-5.39,1.25-1.56,2.81-2.77,4.7-3.63,1.88-.86,4.07-1.3,6.57-1.3,2.3,0,4.39.38,6.25,1.15,1.86.77,3.41,1.93,4.64,3.49,1.23,1.56,2,3.52,2.3,5.91h5.76c-.35-3.19-1.31-5.95-2.88-8.3-1.58-2.34-3.71-4.17-6.39-5.47-2.69-1.31-5.92-1.96-9.68-1.96s-6.86.63-9.51,1.9c-2.65,1.27-4.8,2.94-6.45,5.01-1.65,2.07-2.87,4.38-3.66,6.91-.79,2.54-1.18,5.07-1.18,7.6v1.27c0,2.34.38,4.77,1.15,7.29.77,2.52,1.98,4.85,3.63,7,1.65,2.15,3.83,3.9,6.54,5.24,2.71,1.34,5.98,2.02,9.82,2.02s7.25-.71,10-2.13c2.75-1.42,4.9-3.32,6.45-5.7,1.56-2.38,2.52-5.01,2.91-7.89h-5.76c-.54,3.42-2.04,6.03-4.49,7.84Z"/><polygon class="cls-4" points="136.94 15.21 136.94 19.59 141.2 19.59 141.2 57.26 146.73 57.26 146.73 19.59 146.73 15.21 141.2 15.21 136.94 15.21"/><path class="cls-4" d="m177.27,44.82c0,2.57-.73,4.6-2.19,6.08-1.46,1.48-3.34,2.22-5.65,2.22s-4-.68-5.3-2.04c-1.31-1.36-1.96-3.25-1.96-5.67v-18.95h-5.53v17.86c0,4.49.98,7.93,2.94,10.31,1.96,2.38,4.76,3.57,8.41,3.57h.23c2.46,0,4.48-.55,6.08-1.64,1.59-1.09,2.79-2.69,3.6-4.78.2-.51.37-1.06.52-1.62v7.13h4.38v-30.82h-5.53v18.38Z"/><path class="cls-4" d="m220.88,30.1c-1.31-1.44-2.86-2.57-4.67-3.4-1.81-.83-3.8-1.24-5.99-1.24-2.34,0-4.48.51-6.42,1.53-1.94,1.02-3.51,2.58-4.7,4.7-.02.04-.04.08-.06.11V15.21h-5.53v42.06h4.38v-6.39c.13.3.25.6.4.88,1.15,2.13,2.72,3.75,4.7,4.87,1.98,1.11,4.23,1.67,6.77,1.67,2.27,0,4.33-.42,6.19-1.27,1.86-.84,3.47-2.01,4.81-3.49,1.34-1.48,2.37-3.18,3.08-5.1.71-1.92,1.07-3.98,1.07-6.17v-1.04c0-2.19-.35-4.24-1.04-6.14-.69-1.9-1.69-3.57-3-5.01Zm-2.77,17.74c-.85,1.75-2.04,3.12-3.57,4.12-1.54,1-3.34,1.5-5.42,1.5-1.81,0-3.5-.4-5.07-1.21-1.58-.81-2.84-1.96-3.8-3.46-.96-1.5-1.44-3.3-1.44-5.42v-2.65c0-2.19.47-4.06,1.41-5.62.94-1.56,2.2-2.75,3.77-3.57,1.57-.83,3.28-1.24,5.13-1.24,2.04,0,3.82.47,5.36,1.41,1.54.94,2.74,2.28,3.6,4s1.3,3.75,1.3,6.05-.42,4.33-1.27,6.08Z"/><path class="cls-4" d="m254.21,27.62c-2.17-1.44-4.93-2.16-8.27-2.16-2.57,0-4.81.45-6.71,1.35-1.9.9-3.47,2.11-4.7,3.63-1.23,1.52-2.14,3.22-2.74,5.1-.6,1.88-.89,3.82-.89,5.82v1.04c0,1.96.3,3.88.89,5.76.6,1.88,1.51,3.58,2.74,5.1,1.23,1.52,2.82,2.74,4.78,3.66,1.96.92,4.28,1.38,6.97,1.38,2.42,0,4.59-.4,6.51-1.21,1.92-.81,3.51-1.98,4.78-3.51,1.27-1.54,2.11-3.36,2.54-5.47h-5.19c-.31,1.42-1.22,2.67-2.74,3.75-1.52,1.08-3.49,1.61-5.91,1.61s-4.21-.51-5.7-1.53c-1.5-1.02-2.6-2.4-3.31-4.15-.6-1.46-.93-3.09-1.02-4.87h24.38v-2.48c0-2.57-.53-4.99-1.58-7.26-1.06-2.27-2.67-4.12-4.84-5.56Zm-13.71,4.18c1.44-1,3.25-1.5,5.44-1.5s3.86.44,5.24,1.32c1.38.88,2.42,2.12,3.11,3.72.44,1.02.73,2.17.89,3.43h-18.72c.18-1.03.45-1.99.81-2.88.71-1.73,1.79-3.09,3.23-4.09Z"/><path class="cls-4" d="m307.07,33.55c-.09-.19-.16-.39-.26-.57-1.13-2.13-2.71-3.81-4.72-5.04-2.02-1.23-4.39-1.84-7.11-1.84-2.34,0-4.42.44-6.22,1.33-1.81.88-3.33,2.08-4.58,3.6-1.25,1.52-2.2,3.21-2.85,5.07-.65,1.86-.98,3.79-.98,5.79v.58c0,2.07.34,4.05,1.01,5.93.67,1.88,1.64,3.56,2.91,5.04,1.27,1.48,2.81,2.65,4.64,3.51,1.82.86,3.87,1.3,6.14,1.3,2.65,0,5-.6,7.06-1.79,2.05-1.19,3.68-2.87,4.87-5.04.28-.52.53-1.05.75-1.61v7.46h2.42V15.21h-3.05v18.35Zm.17,10c0,2.3-.51,4.35-1.53,6.14-1.02,1.79-2.42,3.2-4.21,4.23-1.79,1.04-3.85,1.56-6.19,1.56-2.46,0-4.58-.59-6.37-1.79-1.79-1.19-3.16-2.79-4.12-4.81-.96-2.02-1.44-4.25-1.44-6.71s.47-4.58,1.41-6.6c.94-2.02,2.29-3.64,4.06-4.87,1.77-1.23,3.92-1.84,6.45-1.84,2.34,0,4.41.52,6.19,1.56,1.79,1.04,3.19,2.44,4.21,4.21,1.02,1.77,1.53,3.75,1.53,5.93v3Z"/><path class="cls-4" d="m346.64,30.99c-1.34-1.5-2.99-2.69-4.93-3.57-1.94-.88-4.14-1.33-6.6-1.33s-4.71.44-6.65,1.33c-1.94.88-3.58,2.07-4.93,3.57-1.35,1.5-2.36,3.19-3.05,5.07-.69,1.88-1.04,3.82-1.04,5.82v.58c0,1.96.34,3.87,1.01,5.73.67,1.86,1.67,3.54,3,5.04,1.32,1.5,2.97,2.71,4.93,3.63,1.96.92,4.21,1.38,6.74,1.38s4.77-.46,6.71-1.38c1.94-.92,3.57-2.13,4.9-3.63,1.33-1.5,2.33-3.18,3.02-5.04.69-1.86,1.04-3.77,1.04-5.73v-.58c0-2-.36-3.94-1.07-5.82-.71-1.88-1.74-3.57-3.08-5.07Zm-.43,17.71c-.98,2.02-2.4,3.64-4.26,4.87-1.86,1.23-4.14,1.84-6.83,1.84s-4.97-.61-6.86-1.84c-1.88-1.23-3.31-2.85-4.29-4.87-.98-2.02-1.47-4.2-1.47-6.54s.5-4.64,1.5-6.65c1-2.02,2.45-3.63,4.35-4.84,1.9-1.21,4.16-1.81,6.77-1.81s4.91.6,6.77,1.81c1.86,1.21,3.29,2.82,4.29,4.84,1,2.02,1.5,4.23,1.5,6.65s-.49,4.52-1.47,6.54Z"/><path class="cls-4" d="m378.07,42.98c-1.86-1.38-4.22-2.21-7.06-2.48l-3.57-.4c-2-.23-3.49-.83-4.46-1.79s-1.47-2.11-1.47-3.46c0-1.61.62-3.01,1.87-4.21,1.25-1.19,3.16-1.79,5.73-1.79s4.35.56,5.67,1.67,1.97,2.5,1.93,4.15h3c-.04-2.65-1.03-4.74-2.97-6.28-1.94-1.54-4.48-2.3-7.63-2.3-2.15,0-4.02.38-5.62,1.15-1.59.77-2.81,1.81-3.66,3.11-.85,1.31-1.27,2.79-1.27,4.44,0,2.3.78,4.13,2.33,5.47,1.56,1.34,3.66,2.17,6.31,2.48l3.57.4c2.19.23,3.93.81,5.21,1.73,1.29.92,1.93,2.25,1.93,3.98s-.71,3.29-2.13,4.58c-1.42,1.29-3.65,1.93-6.68,1.93s-5.35-.64-6.71-1.93c-1.36-1.29-2.04-2.79-2.04-4.52h-3c.04,2.69,1.07,4.9,3.08,6.62,2.02,1.73,4.91,2.59,8.67,2.59,2.5,0,4.61-.41,6.34-1.24,1.73-.83,3.06-1.93,4-3.31.94-1.38,1.41-2.94,1.41-4.67,0-2.57-.93-4.55-2.79-5.93Z"/><rect class="cls-1" x="4.27" y="4.78" width="64.46" height="63.17"/><path class="cls-4" d="m21.03,55.43c-.7,0-1.37-.19-1.97-.56-1.14-.71-1.79-1.96-1.8-3.43,0-3.56,0-7.13,0-10.69v-8.58c0-3.55,0-7.11,0-10.66,0-1.21.44-2.26,1.3-3.11,1.16-1.13,2.72-1.38,4.18-.68l29.56,14.29c.4.19.8.38,1.19.59,1.55.82,2.34,2.19,2.28,3.96-.05,1.69-.86,2.97-2.34,3.69-3.37,1.64-6.75,3.27-10.12,4.9l-20.41,9.86c-.61.3-1.25.44-1.86.44Zm.11-34.21s-.03.06-.06.12c-.02.04-.02.21-.02.32v14.76s0,14.5,0,14.5v.13c0,.12,0,.24,0,.36,0,.12.03.18.04.21,0-.02.07-.03.15-.07,3-1.45,6-2.91,9.01-4.36l21.11-10.19c.4-.19.43-.41.43-.6,0-.2-.03-.39-.44-.58-3.71-1.78-7.41-3.57-11.12-5.36l-15.11-7.32c-1.3-.63-2.59-1.25-3.89-1.87-.06-.03-.1-.04-.13-.05Z"/></svg>