<?xml version="1.0" encoding="UTF-8"?><svg id="Camada_1" xmlns="http://www.w3.org/2000/svg" xmlns:xlink="http://www.w3.org/1999/xlink" viewBox="0 0 204.06 204.06"><defs><style>.cls-1{fill:url(#Gradiente_sem_nome_18);}.cls-1,.cls-2{stroke-width:0px;}.cls-2{fill:#fde7e0;}</style><linearGradient id="Gradiente_sem_nome_18" x1="-54.32" y1="102.03" x2="330.97" y2="102.03" gradientUnits="userSpaceOnUse"><stop offset="0" stop-color="#f29ea2"/><stop offset=".39" stop-color="#f29497"/><stop offset="1" stop-color="#f57e7f"/></linearGradient></defs><path class="cls-2" d="m183.9,94.27c-19.83-9.5-39.64-19.07-59.44-28.65-26.94-13.04-53.87-26.11-80.81-39.15-6.94-3.36-13.89-6.7-20.84-10.03-3.75-1.8-6.63-.66-8.23,3.16-.58,1.38-.5,2.81-.5,4.24,0,26.16,0,52.31,0,78.47,0,25.86,0,51.71,0,77.57,0,.98-.03,1.97.04,2.95.33,5.17,4.14,7.44,8.71,5.23,16.05-7.77,32.11-15.55,48.17-23.3,37.64-18.17,75.29-36.33,112.93-54.49,3.36-1.62,5.33-4.31,5.34-8.03,0-3.73-1.93-6.3-5.37-7.95Z"/><path class="cls-1" d="m190.31,86.51c-3-1.6-6.12-2.97-9.18-4.45-32.93-15.93-65.86-31.86-98.78-47.79C63.57,25.18,44.8,16.1,26.02,7.02c-5.79-2.8-11.69-1.85-16.29,2.65-3.57,3.49-5.38,7.73-5.37,12.79.03,26.61.02,53.22.02,79.83,0,26.76-.05,53.52.02,80.28.03,12.53,11.31,19.6,22.47,14.22,14.98-7.22,29.94-14.47,44.91-21.71,14.36-6.94,28.72-13.86,43.08-20.8,25.12-12.12,50.25-24.19,75.33-36.4,6.15-2.99,9.29-8.16,9.5-15.08.23-7.39-2.89-12.83-9.38-16.29Zm-6.38,23.74c-37.64,18.17-75.29,36.32-112.93,54.49-16.06,7.75-32.12,15.53-48.17,23.3-4.57,2.21-8.38-.06-8.71-5.23-.06-.98-.04-1.96-.04-2.95,0-25.86,0-51.71,0-77.57,0-26.16,0-52.31,0-78.47,0-1.43-.07-2.86.5-4.24,1.6-3.82,4.48-4.96,8.23-3.16,6.95,3.33,13.9,6.67,20.84,10.03,26.94,13.05,53.86,26.12,80.81,39.15,19.8,9.58,39.6,19.14,59.44,28.65,3.44,1.65,5.38,4.22,5.37,7.95,0,3.72-1.98,6.41-5.34,8.03Z"/></svg>