<?xml version="1.0" encoding="UTF-8"?><svg id="Camada_1" xmlns="http://www.w3.org/2000/svg" xmlns:xlink="http://www.w3.org/1999/xlink" viewBox="0 0 671.89 199.08"><defs><style>.cls-1{stroke:url(#Gradiente_sem_nome_18-2);}.cls-1,.cls-2{fill:none;stroke-miterlimit:10;}.cls-2{stroke:url(#Gradiente_sem_nome_18-3);}.cls-3{fill:url(#Gradiente_sem_nome_18);stroke-width:0px;}</style><linearGradient id="Gradiente_sem_nome_18" x1="475.91" y1="99.54" x2="671.25" y2="99.54" gradientUnits="userSpaceOnUse"><stop offset="0" stop-color="#f29ea2"/><stop offset=".39" stop-color="#f29497"/><stop offset="1" stop-color="#f57e7f"/></linearGradient><linearGradient id="Gradiente_sem_nome_18-2" x1="237.77" x2="434.12" xlink:href="#Gradiente_sem_nome_18"/><linearGradient id="Gradiente_sem_nome_18-3" x1=".14" x2="196.48" xlink:href="#Gradiente_sem_nome_18"/></defs><path class="cls-3" d="m475.93,99.8c0-26.61.02-53.22-.02-79.83,0-5.06,1.8-9.3,5.37-12.79,4.6-4.5,10.5-5.44,16.29-2.65,18.78,9.07,37.56,18.16,56.33,27.24,32.93,15.93,65.86,31.86,98.78,47.79,3.06,1.48,6.18,2.85,9.18,4.45,6.49,3.46,9.6,8.9,9.38,16.29-.21,6.92-3.35,12.08-9.5,15.08-25.07,12.21-50.21,24.28-75.33,36.4-14.36,6.93-28.72,13.86-43.08,20.8-14.97,7.23-29.93,14.48-44.91,21.71-11.16,5.38-22.44-1.69-22.47-14.22-.07-26.76-.02-53.52-.02-80.28Zm9.7.02c0,25.86,0,51.71,0,77.57,0,.98-.03,1.97.04,2.95.33,5.17,4.14,7.44,8.71,5.23,16.05-7.77,32.11-15.55,48.17-23.3,37.64-18.17,75.29-36.33,112.93-54.49,3.36-1.62,5.33-4.31,5.34-8.03,0-3.73-1.93-6.3-5.37-7.95-19.83-9.5-39.64-19.07-59.44-28.65-26.94-13.04-53.87-26.11-80.81-39.15-6.94-3.36-13.89-6.7-20.84-10.03-3.75-1.8-6.63-.66-8.23,3.16-.58,1.38-.5,2.81-.5,4.24,0,26.16,0,52.32,0,78.47Z"/><path class="cls-1" d="m238.29,99.8c0-26.61.02-53.22-.02-79.83,0-5.06,1.8-9.3,5.37-12.79,4.6-4.5,10.5-5.44,16.29-2.65,18.78,9.07,37.56,18.16,56.33,27.24,32.93,15.93,65.86,31.86,98.78,47.79,3.06,1.48,6.18,2.85,9.18,4.45,6.49,3.46,9.6,8.9,9.38,16.29-.21,6.92-3.35,12.08-9.5,15.08-25.07,12.21-50.21,24.28-75.33,36.4-14.36,6.93-28.72,13.86-43.08,20.8-14.97,7.23-29.93,14.48-44.91,21.71-11.16,5.38-22.44-1.69-22.47-14.22-.07-26.76-.02-53.52-.02-80.28Zm9.7.02c0,25.86,0,51.71,0,77.57,0,.98-.03,1.97.04,2.95.33,5.17,4.14,7.44,8.71,5.23,16.05-7.77,32.11-15.55,48.17-23.3,37.64-18.17,75.29-36.33,112.93-54.49,3.36-1.62,5.33-4.31,5.34-8.03,0-3.73-1.93-6.3-5.37-7.95-19.83-9.5-39.64-19.07-59.44-28.65-26.94-13.04-53.87-26.11-80.81-39.15-6.94-3.36-13.89-6.7-20.84-10.03-3.75-1.8-6.63-.66-8.23,3.16-.58,1.38-.5,2.81-.5,4.24,0,26.16,0,52.32,0,78.47Z"/><path class="cls-2" d="m.65,99.8c0-26.61.02-53.22-.02-79.83,0-5.06,1.8-9.3,5.37-12.79,4.6-4.5,10.5-5.44,16.29-2.65,18.78,9.07,37.56,18.16,56.33,27.24,32.93,15.93,65.86,31.86,98.78,47.79,3.06,1.48,6.18,2.85,9.18,4.45,6.49,3.46,9.6,8.9,9.38,16.29-.21,6.92-3.35,12.08-9.5,15.08-25.07,12.21-50.21,24.28-75.33,36.4-14.36,6.93-28.72,13.86-43.08,20.8-14.97,7.23-29.93,14.48-44.91,21.71-11.16,5.38-22.44-1.69-22.47-14.22-.07-26.76-.02-53.52-.02-80.28Zm9.7.02c0,25.86,0,51.71,0,77.57,0,.98-.03,1.97.04,2.95.33,5.17,4.14,7.44,8.71,5.23,16.05-7.77,32.11-15.55,48.17-23.3,37.64-18.17,75.29-36.33,112.93-54.49,3.36-1.62,5.33-4.31,5.34-8.03,0-3.73-1.93-6.3-5.37-7.95-19.83-9.5-39.64-19.07-59.44-28.65-26.94-13.04-53.87-26.11-80.81-39.15-6.94-3.36-13.89-6.7-20.84-10.03-3.75-1.8-6.63-.66-8.23,3.16-.58,1.38-.5,2.81-.5,4.24,0,26.16,0,52.32,0,78.47Z"/></svg>