<?xml version="1.0" encoding="UTF-8"?><svg id="Layer_2" xmlns="http://www.w3.org/2000/svg" viewBox="0 0 125.74 129.99"><defs><style>.cls-1,.cls-2{fill:#fff;}.cls-3{fill:#af478e;}.cls-4{fill:none;stroke:#000;}.cls-4,.cls-2{stroke-miterlimit:10;}.cls-2{stroke:#0c0c0c;stroke-width:.75px;}</style></defs><g id="Camada_1"><path class="cls-1" d="m63.82,129.99c-6.65,0-14.1-4.43-16.2-14.07-.87.85-1.52,1.34-1.97,1.67-3.18,2.37-6.83,3.62-10.53,3.62-5.75,0-11.06-3.08-13.86-8.05-2.65-4.7-2.77-10.32-.42-15.8-1.2.19-2.02.2-2.57.21-.12,0-.24,0-.36,0-8.25,0-15.1-5.32-16.66-12.94-1.46-7.11,1.89-13.87,8.65-17.96-1.09-.55-1.76-1.02-2.22-1.33C1.3,60.95-1.43,53.61.73,46.66c2.15-6.9,8.59-11.36,16.42-11.36,1.37,0,2.78.13,4.21.4-1.36-2.29-1.82-3.75-2.09-4.61-1.7-5.46-.86-11.05,2.3-15.34,2.97-4.03,7.73-6.44,12.74-6.44,4.74,0,9.31,2.07,13.07,5.86.28-1.81.66-2.89.9-3.56,2.49-7.05,8.63-11.6,15.63-11.6s14.43,4.99,16.24,14.58c.89-.82,1.57-1.29,2.02-1.61,3.1-2.16,6.6-3.3,10.13-3.3,5.86,0,11.23,3.17,14,8.27,2.62,4.83,2.61,10.53.04,16.03,1.09-.13,1.85-.13,2.37-.13h.22c8.36.11,15.18,5.59,16.58,13.32,1.09,5.99-1.42,13.45-9.18,17.82,1.07.58,1.73,1.07,2.17,1.4,6.15,4.54,8.68,11.86,6.44,18.67-2.21,6.73-8.57,11.09-16.18,11.09h0c-.78,0-1.58-.04-2.39-.13.53,1.09.78,1.88.95,2.4,1.77,5.48.98,11.11-2.17,15.45-2.97,4.08-7.75,6.52-12.8,6.52-4.34,0-8.56-1.74-12.15-4.96-.21,1.2-.46,1.98-.63,2.51-2.34,7.35-8.53,12.09-15.76,12.09Z"/><path class="cls-3" d="m109.66,70.55c-4.48-3.3-15.48-4.98-24.69-5.83,7.9-.46,16.11-1.44,21.2-3.44,12.33-4.83,8.91-18.78-2-18.92-5.57-.07-15.49,4.97-23.46,9.65,6.15-4.98,12.25-10.57,15.23-15.15,7.21-11.11-3.7-20.45-12.65-14.21-4.57,3.18-9.69,13.07-13.44,21.51,2.09-7.63,3.8-15.73,3.55-21.18-.62-13.23-14.93-14.46-18.57-4.18-2.04,5.78.1,18.55,2.18,28-3.06-8.13-6.94-16.93-10.81-21.64-8.41-10.23-20.61-2.65-17.37,7.76,2.01,6.47,13.24,16.72,20.74,23.03-7.96-4.97-17.72-10.42-24.35-11.89-12.93-2.86-17.86,10.63-8.88,16.83,4.58,3.16,15.62,4.5,24.85,5.05-7.88.71-16.05,1.95-21.07,4.09-12.18,5.21-8.32,19.05,2.59,18.85,5.57-.1,15.32-5.45,23.14-10.38-5.99,5.17-11.91,10.94-14.74,15.61-6.86,11.33,4.34,20.33,13.09,13.81,4.47-3.33,9.27-13.36,12.77-21.93-1.86,7.69-3.31,15.84-2.89,21.28,1.03,13.21,15.37,13.99,18.69,3.6,1.69-5.3-.25-16.27-2.4-25.26,2.98,7.33,6.54,14.8,10.06,18.98,8.53,10.13,20.64,2.41,17.28-7.97-1.72-5.3-9.68-13.07-16.67-19.12,6.69,4.23,13.94,8.22,19.23,9.56,12.84,3.26,18.18-10.07,9.4-16.54Z"/><path class="cls-4" d="m109.66,70.55c-4.48-3.3-15.48-4.98-24.69-5.83,7.9-.46,16.11-1.44,21.2-3.44,12.33-4.83,8.91-18.78-2-18.92-5.57-.07-15.49,4.97-23.46,9.65,6.15-4.98,12.25-10.57,15.23-15.15,7.21-11.11-3.7-20.45-12.65-14.21-4.57,3.18-9.69,13.07-13.44,21.51,2.09-7.63,3.8-15.73,3.55-21.18-.62-13.23-14.93-14.46-18.57-4.18-2.04,5.78.1,18.55,2.18,28-3.06-8.13-6.94-16.93-10.81-21.64-8.41-10.23-20.61-2.65-17.37,7.76,2.01,6.47,13.24,16.72,20.74,23.03-7.96-4.97-17.72-10.42-24.35-11.89-12.93-2.86-17.86,10.63-8.88,16.83,4.58,3.16,15.62,4.5,24.85,5.05-7.88.71-16.05,1.95-21.07,4.09-12.18,5.21-8.32,19.05,2.59,18.85,5.57-.1,15.32-5.45,23.14-10.38-5.99,5.17-11.91,10.94-14.74,15.61-6.86,11.33,4.34,20.33,13.09,13.81,4.47-3.33,9.27-13.36,12.77-21.93-1.86,7.69-3.31,15.84-2.89,21.28,1.03,13.21,15.37,13.99,18.69,3.6,1.69-5.3-.25-16.27-2.4-25.26,2.98,7.33,6.54,14.8,10.06,18.98,8.53,10.13,20.64,2.41,17.28-7.97-1.72-5.3-9.68-13.07-16.67-19.12,6.69,4.23,13.94,8.22,19.23,9.56,12.84,3.26,18.18-10.07,9.4-16.54Z"/><path class="cls-2" d="m83.25,65c0,10.28-8.33,18.61-18.61,18.61s-18.61-8.33-18.61-18.61,8.33-18.61,18.61-18.61,18.61,8.33,18.61,18.61Z"/></g></svg>