<?xml version="1.0" encoding="utf-8"?>
<!-- Generator: Adobe Illustrator 27.7.0, SVG Export Plug-In . SVG Version: 6.00 Build 0)  -->
<svg version="1.1" id="Layer_2_00000041986114312674982380000018313172061543295115_"
	 xmlns="http://www.w3.org/2000/svg" xmlns:xlink="http://www.w3.org/1999/xlink" x="0px" y="0px" viewBox="0 0 829 524.2"
	 style="enable-background:new 0 0 829 524.2;" xml:space="preserve">
<style type="text/css">
	.st0{fill:#232323;}
	.st1{clip-path:url(#SVGID_00000147188311746584141800000004782735383696470433_);}
	.st2{fill:url(#SVGID_00000166663535393759403740000005888313405587607681_);}
	.st3{fill:#1A1A1A;}
	.st4{fill:#FFFFFF;}
	.st5{clip-path:url(#SVGID_00000090991478843571315380000016004908553802398636_);}
	.st6{fill:url(#SVGID_00000001626388754889452710000011004222796785039801_);}
	.st7{fill:#333333;}
</style>
<g id="Camada_1">
	<path class="st0" d="M175.1,279.7c-7.1,4.5-15.7,7.6-25.2,7.6c-29.7,0-47.2-15.3-54-31.6l-12.2-29.4h-32l-1.3,3.6l0.2-0.4
		c-5.5,15.7-3.2,18.9,2.6,19.7v6.6H14.4l0.9-6.6c4.7-0.7,10.9-4.4,15.7-18.2L27.5,241l30.6-87.2h27.8l42.5,102
		c6.1,14.6,17,21.4,26.4,21.4c7.6,0,11.6-1.8,15.9-5L175.1,279.7L175.1,279.7z M79.5,216.7l-13.4-32.2l-11.2,32.2H79.5z"/>
	<path class="st0" d="M237.4,147c0,8-6.3,16.2-20.1,15.9c-27.2-0.4-45.7,29.4-47.6,51.1v15.4c0,15.7,4.9,18.9,9.5,19.7l0.4,6.6
		h-47.8l0.4-6.6c4.5-0.7,9.5-4.4,9.5-18.2v-25.6c0-15.4-4.8-21.6-9.2-24.2c8.4-11.1,30.6-11.6,37.1-8.4v19.5
		c8.3-24.3,30.1-59.9,52.7-59.9C231.9,132.3,237.4,139.6,237.4,147L237.4,147z"/>
	<path class="st0" d="M299,246.4c-8.3,9.3-15.6,11.9-25.3,11.9c-10.6,0-19.8-4.8-21.7-14.7c-0.1,0.3-0.1,0.4-0.3,0.6
		c-3.8,8.2-15.9,14.3-28.6,14.1c-19.8-0.1-29.7-11.1-29.9-24.2c-0.1-11.9,9.5-20.5,23.9-25.1c9.8-3.1,22.1-3.6,34.4-3.6v-8.6
		c0-10.5-6.9-15.4-13.1-15.4c-5.2,0-9.9,3.5-9.9,9.9c0.1,11.6-26.4,12.5-26.5,0.4c0-12.2,16.5-21.7,38-21.7
		c27.8,0,40.6,17.5,40.6,39.6v24.5c0,12.7,7.3,12.2,12.5,6.3L299,246.4L299,246.4z M251.5,216.8v-3.2c-10.9,0-29.7,0.9-29.7,16.9
		c0,6.4,3.8,12.1,13.1,12.1C242.1,242.6,250.9,236.9,251.5,216.8L251.5,216.8z"/>
	<path class="st0" d="M411.8,229.6v-28.6c0-15.4-5-18.4-8.2-18.4c-9,0-16.2,16-16.2,31.9v14.9c0,15.7,5,18.9,9.5,19.7v6.6h-45.2
		v-6.6c4.5-0.7,9.5-3.9,9.5-19.7v-28.6c0-15.4-5-18.4-8.2-18.4c-9,0-16.2,16-16.2,31.9v15c0,15.7,5,18.9,9.5,19.7v6.6h-45.6l0.4-6.6
		c4.5-0.7,9.5-3.9,9.5-19.7v-28.6c0-15.4-5.8-17.2-10.2-19.8c8.5-11.1,29.9-11.6,36.4-8.4v13.4c3.9-8.4,16.5-16,26.7-16
		c9.3,0,19.4,4.9,22.7,19.8c1.5-9.8,16.2-19.7,27.8-19.7s23.9,7.3,23.9,31v28.4c0,15.7,5,18.8,9.5,19.5l0.4,6.6h-45.6v-6.6
		C406.8,248.4,411.8,245.4,411.8,229.6L411.8,229.6z"/>
	<path class="st0" d="M558,246.4c-8.3,9.3-15.6,11.9-25.3,11.9c-10.6,0-19.8-4.8-21.7-14.7c-0.1,0.3-0.1,0.4-0.3,0.6
		c-3.8,8.2-15.9,14.3-28.5,14.1c-19.8-0.1-29.7-11.1-29.9-24.2c-0.1-11.9,9.5-20.5,23.9-25.1c9.8-3.1,22.1-3.6,34.4-3.6v-8.6
		c0-10.5-6.9-15.4-13.1-15.4c-5.2,0-9.9,3.5-9.9,9.9c0.1,11.6-26.4,12.5-26.5,0.4c0-12.2,16.5-21.7,38-21.7
		c27.8,0,40.6,17.5,40.6,39.6v24.5c0,12.7,7.3,12.2,12.5,6.3L558,246.4L558,246.4z M510.5,216.8v-3.2c-10.9,0-29.7,0.9-29.7,16.9
		c0,6.4,3.8,12.1,13.1,12.1C501.1,242.6,509.9,236.9,510.5,216.8L510.5,216.8z"/>
	<path class="st0" d="M588.5,257.2c-17.3-0.1-31.5-13.8-31.9-40.4c-0.3-29,23-54.3,54.3-44.7v-0.3c0-15.4-5.8-17.2-10.2-19.8
		c8.5-11.1,31.8-11.6,38.3-8.4v85.9c0,15.7,5,18.9,9.5,19.7h0.2l0.3,6.6h-38v-11.8C607,251.8,597.9,257.3,588.5,257.2L588.5,257.2z
		 M610.9,216.8v-25.6c0-2.9-0.7-10.5-9.5-10.1c-9.3,0.4-17.5,8.6-17.5,35.7c0,17.3,5,25.8,12.1,25.8
		C601.4,242.6,610.3,236.9,610.9,216.8L610.9,216.8z"/>
	<path class="st0" d="M651.4,214.1c0-23.7,16.5-43,43.4-43s43.3,19.2,43.3,43s-16.5,43.1-43.3,43.1S651.4,237.8,651.4,214.1z
		 M708.9,214.1c0-18.1-6.5-33.1-14.1-33.1s-14,15-14,33.1s6.4,33.1,14,33.1S708.9,232.3,708.9,214.1z"/>
	<path class="st0" d="M788.7,235.6c0-7-18.1-14-31.8-22.6c-9.8-6.3-15.7-14.1-13.1-22.7c3.6-13.3,20.4-19.1,37.7-19.1
		c16,0,27.8,6.4,29.4,15.1c2.8,16.2-21.6,16.6-19.5,1.2c0.7-5.4-5.5-7.9-11.9-7.9s-11.7,2.6-11.7,7.4c0,6.6,16.8,11.6,34.7,24
		c8,5.4,11.8,11.6,11.8,19.1c0,12.2-11.4,27.1-37.7,27.1c-20.8,0-37.1-8.6-37.1-23c0-5.1,4.2-13.1,14-13.1c6.5,0,11.2,4.1,11.2,8.7
		c0,3.9-4.7,5.7-4.7,8.7c0,5.7,7.3,8.7,14.4,8.7C783.5,247.4,788.8,242.5,788.7,235.6L788.7,235.6z"/>
	<path class="st0" d="M158.7,388.6l-11.8,20.1H62.5l0.4-6.5c4.5-0.7,9.5-4.4,9.5-18.2v-0.9c11.1-2.6,19.5-12.2,19.5-24.3
		c0-9.6-6.7-22.6-19.5-22.6v-8.7c0-6-3.2-9-8.2-9c-10.8,0-20.5,9-20.5,18.6c0,11.4,7.7,17,15.1,17c6.6,0,11.7-3.8,13.6-12.5
		c21.3,3.2,17.5,37.7-9.3,37.7c-24.5,0-36-18.5-34.5-36.6c1.6-19.2,16.3-36,43.8-36h75l9,20.7l-6,3.4c-6.4-12.1-12.4-14-47.5-14
		h-1.5v31.9l26.8-2.8l2.5,14.3c-9.2-1.3-19.1-1.8-29.3-1.9v24.2c0,6.9,0.9,11.4,2.3,14.3h20.8c10.8-0.7,21.6-3.4,29.4-12.4
		L158.7,388.6L158.7,388.6z"/>
	<path class="st0" d="M212.3,388.6c0-7-18.1-14-31.8-22.6c-9.8-6.3-15.7-14.1-13.1-22.7c3.6-13.2,20.4-19.1,37.7-19.1
		c16,0,27.8,6.4,29.4,15.1c2.8,16.2-21.6,16.6-19.5,1.2c0.7-5.4-5.5-7.9-11.9-7.9s-11.6,2.6-11.6,7.4c0,6.5,16.8,11.6,34.7,24
		c8,5.4,11.8,11.6,11.8,19.1c0,12.2-11.4,27.1-37.7,27.1c-20.8,0-37.1-8.6-37.1-23c0-5.1,4.2-13.1,14-13.1c6.6,0,11.2,4.1,11.2,8.7
		c0,3.9-4.7,5.7-4.7,8.7c0,5.7,7.3,8.7,14.4,8.7C207.1,400.4,212.4,395.5,212.3,388.6L212.3,388.6z"/>
	<path class="st0" d="M331.5,362.7c0,17.2-10.6,48.2-41.5,48.6c-5.1,0.1-9.2-0.9-12.2-2.3v2.6c0,15.7,5,18.9,9.5,19.7l0.4,6.5h-47.9
		l0.4-6.5c4.5-0.7,9.5-4.4,9.5-18.2v-59.1c0-15.4-5.8-17.2-10.2-19.8c8.4-11.1,31.8-11.6,38.3-8.5v8.9c3.4-7.3,12.8-11.5,19.8-11.5
		C315.6,323,331.5,333.5,331.5,362.7L331.5,362.7z M302.4,366c0-14.3-3.8-30.4-12.4-30.4c-8,0-12.2,11.6-12.2,27.5v21.4
		c0,13.1,2.3,16.9,7.7,16.9C298.6,401.4,302.4,379.3,302.4,366z"/>
	<path class="st0" d="M424.4,393.7c-9.2,11.8-24.3,18.5-40.1,18.5c-25.2,0-45.6-20-45.6-44.7s20.4-44.7,45.6-44.7
		s41.4,12.7,39.2,28.7c-1.3,9.5-8.2,15.7-20.2,19.5c-8.5,2.6-19.7,3.9-33.2,1.5c0.4,13.7,12.4,23.9,24.9,24.8
		c7.7,0.6,17.6-2.8,23.6-9.5L424.4,393.7z M371,362.4c21.1,3.9,29.9-4.7,32.3-13.1c2.6-9-4.7-15.6-12.1-14.9
		C378.4,335.6,372.9,348.4,371,362.4L371,362.4z"/>
	<path class="st0" d="M427.4,367.8c0-24.8,20.4-44.7,45.6-44.7c16.9,0,30.9,7.6,35.7,20.2c7.6,20.1-27.5,22.9-22.4,1.3
		c1.3-5.5,0.1-10.5-6.4-9.9c-13.1,1.2-21.7,17.2-21.7,32.9c0,16.9,10.2,28.5,25.5,29.6c7.7,0.6,17.6-2.8,23.6-9.5l5.8,6
		c-9.2,11.8-24.3,18.5-40.1,18.5C447.8,412.2,427.4,392.6,427.4,367.8L427.4,367.8z"/>
	<path class="st0" d="M562.4,408.7h-47.9l0.4-6.5c4.5-0.7,9.5-4.4,9.5-18.2v-25.6c0-15.4-4.8-21.6-9.2-24.2
		c8.5-11.1,30.7-11.6,37.3-8.5v56.8c0,15.7,5,18.9,9.5,19.7L562.4,408.7L562.4,408.7z M523.8,298.5c1.8-9,9.6-14.9,17.9-13.8
		s14,8.9,12.2,17.8c-1.8,8.7-9.5,14.7-17.9,13.7C527.7,315.1,522,307.3,523.8,298.5z"/>
	<path class="st0" d="M672.5,399.4c-8.3,9.3-15.6,11.9-25.3,11.9c-10.6,0-19.8-4.8-21.7-14.7c-0.2,0.3-0.2,0.4-0.3,0.6
		c-3.8,8.2-15.9,14.3-28.5,14.1c-19.8-0.1-29.7-11.1-29.9-24.2c-0.2-11.9,9.5-20.5,23.9-25c9.8-3.1,22.1-3.6,34.4-3.6v-8.6
		c0-10.5-6.8-15.4-13.1-15.4c-5.2,0-9.9,3.5-9.9,9.9c0.2,11.6-26.4,12.5-26.5,0.4c0-12.2,16.5-21.7,38-21.7
		c27.8,0,40.6,17.5,40.6,39.6v24.5c0,12.7,7.3,12.2,12.5,6.3L672.5,399.4L672.5,399.4z M625,369.8v-3.2c-10.9,0-29.7,0.9-29.7,16.9
		c0,6.4,3.8,12.1,13.1,12.1C615.6,395.6,624.4,389.9,625,369.8L625,369.8z"/>
	<path class="st0" d="M721.9,408.7H674l0.4-6.5c4.5-0.7,9.5-4.4,9.5-18.2v-25.6c0-15.4-4.8-21.6-9.2-24.2
		c8.5-11.1,30.7-11.6,37.3-8.5v56.8c0,15.7,5,18.9,9.5,19.7L721.9,408.7L721.9,408.7z M683.3,298.5c1.8-9,9.6-14.9,17.9-13.8
		s14,8.9,12.2,17.8c-1.8,8.7-9.5,14.7-17.9,13.7C687.2,315.1,681.5,307.3,683.3,298.5z"/>
	<path class="st0" d="M774,388.6c0-7-18.1-14-31.8-22.6c-9.8-6.3-15.7-14.1-13.1-22.7c3.6-13.2,20.4-19.1,37.7-19.1
		c16,0,27.8,6.4,29.4,15.1c2.8,16.2-21.6,16.6-19.5,1.2c0.7-5.4-5.5-7.9-11.9-7.9s-11.7,2.6-11.7,7.4c0,6.5,16.8,11.6,34.7,24
		c8,5.4,11.8,11.6,11.8,19.1c0,12.2-11.4,27.1-37.7,27.1c-20.8,0-37.1-8.6-37.1-23c0-5.1,4.2-13.1,14-13.1c6.5,0,11.2,4.1,11.2,8.7
		c0,3.9-4.7,5.7-4.7,8.7c0,5.7,7.3,8.7,14.4,8.7C768.8,400.4,774,395.5,774,388.6L774,388.6z"/>
	<path class="st0" d="M143.9,8.3H676c9,0,16.4,7.3,16.4,16.4v74.8c0,9-7.3,16.4-16.4,16.4H143.9c-9,0-16.4-7.3-16.4-16.4V24.7
		C127.5,15.6,134.8,8.3,143.9,8.3z"/>
	<g>
		<defs>
			<path id="SVGID_1_" d="M685.6,108H153.5c-9,0-16.4-7.3-16.4-16.4V16.8c0-9,7.3-16.4,16.4-16.4h532.2c9,0,16.4,7.3,16.4,16.4v74.8
				C702,100.7,694.7,108,685.6,108z"/>
		</defs>
		<clipPath id="SVGID_00000057838179063921683980000012645982149433283773_">
			<use xlink:href="#SVGID_1_"  style="overflow:visible;"/>
		</clipPath>
		<g style="clip-path:url(#SVGID_00000057838179063921683980000012645982149433283773_);">
			
				<linearGradient id="SVGID_00000124856950983391207020000000117843342171635373_" gradientUnits="userSpaceOnUse" x1="419.555" y1="418.025" x2="419.555" y2="525.595" gradientTransform="matrix(1 0 0 -1 0 526)">
				<stop  offset="0" style="stop-color:#DDACC2"/>
				<stop  offset="1" style="stop-color:#AF478E"/>
			</linearGradient>
			<polygon style="fill:url(#SVGID_00000124856950983391207020000000117843342171635373_);" points="137.1,0.4 137.1,1.5 137.1,2.5 
				137.1,3.6 137.1,4.7 137.1,5.7 137.1,6.8 137.1,7.9 137.1,8.9 137.1,10 137.1,11.1 137.1,12.1 137.1,13.2 137.1,14.3 137.1,15.3 
				137.1,16.4 137.1,17.4 137.1,18.5 137.1,19.6 137.1,20.6 137.1,21.7 137.1,22.8 137.1,23.8 137.1,24.9 137.1,26 137.1,27 
				137.1,28.1 137.1,29.2 137.1,30.2 137.1,31.3 137.1,32.4 137.1,33.4 137.1,34.5 137.1,35.6 137.1,36.6 137.1,37.7 137.1,38.7 
				137.1,39.8 137.1,40.9 137.1,41.9 137.1,43 137.1,44.1 137.1,45.1 137.1,46.2 137.1,47.3 137.1,48.3 137.1,49.4 137.1,50.5 
				137.1,51.5 137.1,52.6 137.1,53.7 137.1,54.7 137.1,55.8 137.1,56.9 137.1,57.9 137.1,59 137.1,60 137.1,61.1 137.1,62.2 
				137.1,63.2 137.1,64.3 137.1,65.4 137.1,66.4 137.1,67.5 137.1,68.6 137.1,69.6 137.1,70.7 137.1,71.8 137.1,72.8 137.1,73.9 
				137.1,75 137.1,76 137.1,77.1 137.1,78.2 137.1,79.2 137.1,80.3 137.1,81.4 137.1,82.4 137.1,83.5 137.1,84.5 137.1,85.6 
				137.1,86.7 137.1,87.7 137.1,88.8 137.1,89.9 137.1,90.9 137.1,92 137.1,93.1 137.1,94.1 137.1,95.2 137.1,96.3 137.1,97.3 
				137.1,98.4 137.1,99.5 137.1,100.5 137.1,101.6 137.1,102.7 137.1,103.7 137.1,104.8 137.1,105.8 137.1,106.9 137.1,108 702,108 
				702,106.9 702,105.8 702,104.8 702,103.7 702,102.7 702,101.6 702,100.5 702,99.5 702,98.4 702,97.3 702,96.3 702,95.2 702,94.1 
				702,93.1 702,92 702,90.9 702,89.9 702,88.8 702,87.7 702,86.7 702,85.6 702,84.5 702,83.5 702,82.4 702,81.4 702,80.3 702,79.2 
				702,78.2 702,77.1 702,76 702,75 702,73.9 702,72.8 702,71.8 702,70.7 702,69.6 702,68.6 702,67.5 702,66.4 702,65.4 702,64.3 
				702,63.2 702,62.2 702,61.1 702,60 702,59 702,57.9 702,56.9 702,55.8 702,54.7 702,53.7 702,52.6 702,51.5 702,50.5 702,49.4 
				702,48.3 702,47.3 702,46.2 702,45.1 702,44.1 702,43 702,41.9 702,40.9 702,39.8 702,38.7 702,37.7 702,36.6 702,35.6 702,34.5 
				702,33.4 702,32.4 702,31.3 702,30.2 702,29.2 702,28.1 702,27 702,26 702,24.9 702,23.8 702,22.8 702,21.7 702,20.6 702,19.6 
				702,18.5 702,17.4 702,16.4 702,15.3 702,14.3 702,13.2 702,12.1 702,11.1 702,10 702,8.9 702,7.9 702,6.8 702,5.7 702,4.7 
				702,3.6 702,2.5 702,1.5 702,0.4 			"/>
		</g>
	</g>
	<path class="st3" d="M685.6,108.5H153.5c-9.3,0-16.9-7.6-16.9-16.9V16.8c0-9.3,7.6-16.9,16.9-16.9h532.2c9.3,0,16.9,7.6,16.9,16.9
		v74.8C702.5,100.9,694.9,108.5,685.6,108.5z M153.5,0.9c-8.7,0-15.9,7.1-15.9,15.9v74.8c0,8.8,7.1,15.9,15.9,15.9h532.2
		c8.8,0,15.9-7.1,15.9-15.9V16.8c0-8.8-7.1-15.9-15.9-15.9C685.6,0.9,153.5,0.9,153.5,0.9z"/>
	<path class="st4" d="M251.4,26.3c-5.2,2.2-7.4,7.2-10.4,16.1c-0.4,1.2-0.6,2.4-1.4,3.4c0.1,1.8,0.4-0.2-11.1,33.6
		c-2.3,6.7-1.5,7-3.8,7.1h-14.2c-0.8,0-1.5-0.5-1.8-1.4C208.2,84,192.3,46,190.5,42c-0.4-2.4-1.6-4.1-2.6-6.2
		c-1.6-3.7-4.1-4.5-4.6-4.9c-2.3-1.7-5-1.5-7.6-1.4c-4.6,0.3-7.8,2.7-10.7,6.3c-2.7,3.3-1.7,6.6-1.8,7.8c-0.1,2.3,1.2,4,2.7,5.6
		c1.2,1.2,2.4,2.4,4,2.7c0.8,0.3,1.6,0.8,2.4,1.3c0.6-0.5,1.4-1.2,2.4-1c0.2,0.1,0.5,0.2,0.5,0.3c-0.1,0.2-0.2,0.4-0.4,0.5
		c-0.7,0.4-1,1-0.7,1.6c0.2,0.5,0.6,0.4,0.9,0.5c0.8,0.2,1.2-0.7,1.9-0.7c-0.2,1-0.3,2-0.5,3c0.7,0.3,0.7-0.4,0.9-0.6
		c0.6-1,0-2.5,1.2-3.2c0.3-2.9,0.3-3.7,0.6-4.3c0.8-1.5,1.7-2.8,2.3-4.3c0-0.2,0.5-0.4,0.6-0.3c1.6,0.5,3.4,0.7,4.4,2.4
		c0.6,1.1,2.8,1.5,3.2,6.2c0.6,7.3-4.6,13.1-10.4,14c-16.1,2.7-25.3-8.7-25.3-20.8c0-7.8,3.8-15.9,12.2-20.7
		c6.1-3.5,14.1-3.4,21.9-3.5l21.6-0.1c2.1,0.1,1.7,0.7,1.8,2.4c0,0.9-0.5,1.5-1.4,1.8c-1.1,0.3-1.7,1.1-2.3,2.1
		c-1.5,2.7,0.4,7.4,1.3,9.9c1,2.9,2,5.9,3.5,8.7c1.3,2.5,2.2,5.3,3.5,7.8c0.3,0.6,1,2.4,0.7,3c-0.3,0.7-0.2,1.3,0.1,1.8
		c0.2,0.3,0.1,0.6,0.2,1c0.1,1,0.1,1.1,1,1.1c1.3,0.1,1,0.8,2.8,4.5c0.2,0.4,0.8,0.3,1.1-0.2c0.6-1.3,1.4-4.6,2.4-7.3
		c1.6-4,2.7-8.1,4.3-12.2c0.8-2.3,1.8-4.6,2.5-7c0.6-1.9,2.1-1.7,1.1-2.7c1-1.2,0.3-3.3,1.8-3.5c0.8-0.1,0.9-0.1,0.6-0.7
		c-0.2-0.3-0.5-0.6-0.6-0.6c-0.7-0.1-0.8-0.4-1-2.8c-0.1-1.2-0.6-2-1.6-2.6c-0.9-0.6-2.1-0.6-1.8-2.9c0.1-1.8,0.2-1.4,20.1-1.4
		c2.9,0,2.6,0,2.9,2.4C252.6,25.3,252.3,25.9,251.4,26.3L251.4,26.3z M173.5,57.4c0.1,0,0.2,0,0.2-0.1c0.1-1.2,0.1-0.9-0.5-1.3
		c-0.2,0.1-0.3,0.2-0.4,0.3C172.8,56.4,173.3,57.3,173.5,57.4L173.5,57.4z M176.4,59.1c0.1,0.2,0.1,0.4,0.2,0.4
		c0.4,0.1,1.2-0.2,1.1-0.5c0-0.1-0.2-0.3-0.3-0.3C177.1,58.8,176.8,58.9,176.4,59.1L176.4,59.1z M177.6,50.9
		c0.1,0.1,0.2,0.3,0.2,0.4s-0.2,0.2-0.4,0.3c0-0.1-0.2-0.3-0.1-0.4C177.4,51,177.5,51,177.6,50.9L177.6,50.9z M178.8,56.6l0.3-0.2
		c0-0.1-0.1-0.2-0.2-0.3C178.6,56.5,178.7,56.4,178.8,56.6L178.8,56.6z M179.3,52.1c0,0.3,0.1,0.5,0.2,0.8c0,0.1,0.3,0.2,0.4,0.1
		c0.1,0,0.2-0.2,0.3-0.4c-0.2-0.2-0.3-0.5-0.4-0.8l-0.2-0.1C179.4,51.8,179.3,51.9,179.3,52.1L179.3,52.1z M192.2,34.1H192
		c-0.1,0.2-0.2-0.1,0.3,1.5c0,0,0.1,0.1,0.2,0.1C192.7,35.7,192.9,34.8,192.2,34.1z M193.3,30.2c0,0.5,0.1,1.1,0.2,1.5v-1.5H193.3z
		 M206.1,44.9c0.7,0,0.9-0.4,0.7-0.9c-0.3-0.6-0.6-1.3-1-1.7c-0.4-0.6-0.6-1.3-0.5-1.9c0.3-1.4,0.1-2.4-1.1-3.2
		c-0.2-0.2-0.2-0.6-0.3-0.9c-0.1-0.4-0.3-0.5-0.4-0.8c-0.2,0.6,0,1.2,0.1,1.7c0,0.6,0.6,1.4-0.1,1.7c-0.3,0.2-0.8,0-1.3,0
		c-0.3,0-0.5,0.2-0.7,0.2c-1.1,0.2-1.9-0.5-1.9-1.5c0-0.6,0.4-1.4,0.2-1.9c-0.2-0.5-0.9-1-1.3-1.5c-0.3-0.5-0.5-1-0.6-1.5
		c-0.1-0.1-0.4-0.2-0.4-0.1c-0.2,0-0.3,0.3-0.3,0.4c1.1,4.1,0.4,1.8,1.3,6.7c-0.6,0-1.3-0.1-2-0.1c-1.7,0-1.4-1.7-2.1-6.7
		c-0.1-0.6-0.6-0.7-1-0.8c0.5,1.8,0.1,3.9,1.2,5.7c0.1,0.1,0.1,0.4,0.1,0.5c0,1.9,0.9,3.7,1.1,5.6c0,0.1,0.1,0.2,0.3,0.4v0.1
		c0,0,0.1,0,0.1,0.1c0,0.2-0.1,0.4,0,0.5c0,0.3,0.3,0.5,0.5,0.6c0.2-0.3,0.3-0.5,0.4-0.7c0.6,0.5,1.3,0.9,1.9,1.3
		c0.1,0.1,0.1,0.1,0.1,0.2h0.1c0,0.2-0.1,0.3,0,0.4c1.2,1.7,1.6,3.6,1.6,5.7c-0.1,0.6,0,1.3,0.1,1.9c0.1,1,0.5,1.9,1.2,2.7
		c-0.5-3.1-0.8-4.1,0.1-4.9c1.7-1.8,2.3-4.1,2.4-6.4L206.1,44.9L206.1,44.9z M200.4,46.2c-0.4-0.2-0.8-0.3-1.3-0.4v-0.1
		c-0.1,0-0.1-0.1-0.2-0.1c-0.6-1.7-0.6-2-1.9-1.3c-0.3-0.2-0.6-0.3-0.8-0.4v-0.2h-0.1c0.2-1.9-1.3-3.8,0.1-3.7
		c0.4,0.1,0.7,0.2,1.2,0.1c1.3-0.1,0.2,1.5,2,2.2c0.6,0.2,0.6,0.7,0.7,1.2c0.3,0.5,0.6,0.8,0.9,1.2c0,0.1,0.3,0,0.5,0
		c0-0.1,0.1-0.2,0.1-0.3c0.1-0.5-0.6-1.3,0.2-1.8c0.1,0,0-0.4-0.1-0.4c-0.5-0.4-0.9-0.7-1-1.4c-0.2,0.1-0.5,0.1-0.6,0.2
		c-0.6,0.8-0.8-0.2-1.6-1.8c1.6,0.2,2.8,1.3,4.5,1.3h0.1c0.1,0.2,0.3,0.4,0.2,0.5c-0.9,1.4-0.3,3-0.6,4.6c-0.1,0.4,0,0.8,0,1.5
		C201.8,47.1,201.2,46.7,200.4,46.2L200.4,46.2z M197.3,51c-0.2-0.1-0.3-0.2-0.4-0.3c-0.1,0.1-0.3,0.3-0.2,0.4
		c0,0.1,0.2,0.2,0.4,0.3C197.2,51.2,197.2,51.1,197.3,51L197.3,51z M200.6,33.9c0-0.4,0.2-0.3-0.6-0.4
		C200,33.9,199.8,33.8,200.6,33.9z M202.1,35.9c0.4-0.7,0.5-0.3,0-1.7l-0.4,0.1C201.6,35.8,201.6,35.4,202.1,35.9z M204.3,42.4
		c0.1,0.9,0.1,1.7,0.2,2.7C203.8,43.9,203.1,42.8,204.3,42.4z M205.2,43.2c-0.3-0.3-0.6-0.5-0.9-0.8c0.4,0.2,0.7,0.3,1.1,0.5v0.3
		L205.2,43.2z M204.4,45.1L204.4,45.1L204.4,45.1z M205.5,26.4c0,0.1,0,0.3,0.1,0.4l0.3-0.2l-0.2-0.3L205.5,26.4L205.5,26.4z
		 M206.6,51c-0.2,0.8-0.2,0.5,0.2,0.9C207.2,51.1,207.2,51.3,206.6,51z M213.3,67.6c-0.2-0.2-0.5-0.4-0.6-0.6
		c-0.1,0.2-0.4,0.4-0.4,0.6c0,0.6,0.3,1,0.6,0.8C213,68.1,213.1,68,213.3,67.6L213.3,67.6z M214.7,74.2c-0.1-0.4-0.3-0.6-0.4-1
		c-0.1,0.1-0.2,0.1-0.3,0.1l0.3,1.1c0,0.1,0.2,0.2,0.2,0.2C214.6,74.5,214.8,74.3,214.7,74.2L214.7,74.2z M214.3,66.1
		c0-0.2,0.1-0.3,0.2-0.5c-0.1,0-0.1-0.1-0.2-0.2C214.1,66,214.1,65.8,214.3,66.1z M214.6,55.9c-0.1,1-0.1,0.7,0.3,0.9
		C215.2,56,215.2,56.3,214.6,55.9z M216,70.4c-0.1,0-0.2,0.1-0.3,0.1c0.1,0.3,0.3,0.6,0.4,0.7C216.4,70.9,216.4,71.1,216,70.4
		L216,70.4z M217.7,67.4c0-0.5-0.1-0.9-0.3-1.3c0-0.1-0.3-0.2-0.4-0.2s-0.3,0.2-0.3,0.3c0,0.4,0.1,0.9,0.2,1.4
		c0.1,0.1,0.3,0.2,0.5,0.2C217.6,67.8,217.7,67.6,217.7,67.4L217.7,67.4z M224.4,64.7l-0.3-0.3c-0.1,0.1-0.2,0.3-0.2,0.4
		s0.2,0.2,0.3,0.3C224.2,64.9,224.4,64.7,224.4,64.7z M236.7,27.8c-0.1,0-0.1,0.1-0.1,0.2c0.1,0.1,0.2,0.2,0.3,0.2
		C237,28,237.1,28.1,236.7,27.8L236.7,27.8z M237.7,45.6c0,0-0.1-0.1-0.2-0.1l-0.1,0.1c-0.1,0.6-0.1,1.4-0.1,2
		C237.7,47,237.7,46.2,237.7,45.6L237.7,45.6z M239.8,28.5c-0.1-0.1-0.2-0.2-0.2-0.4c-0.1,0.1-0.2,0.3,0,0.4H239.8z"/>
	<path class="st4" d="M283.1,84.6c0,1.2-0.4,1.6-1.6,1.7c-2.3,0-4.6,0.1-7,0c-7.4-0.3-16.4,0.2-19.6-0.1c-0.6,0-0.9-0.4-0.9-0.9
		c-0.6-5.5,5.7,0,5.9-14.5c0.1-2.8,0-5.6,0-8.5c0-3.4,0.5-7.2-0.6-13.7c-1.2-7.8-6.3-8-4-9.9c1.8-1.4,5.7-4,8-3.7h0.3
		c2.3-1.5,5-0.8,7.6-1c1.3-0.2,2.6,0.1,3.9,0.3c1.4,0.2,1.9,0.7,1.9,2.2c0.1,10.8,0.1,11.5-0.9,12.9c-0.6,0.7-0.6,1.9-0.9,2.7
		c0,0.4,0,0.6-0.1,1c-0.7-0.3-0.9-0.9-0.7-1.2c0.8-1.5,0.2-2.5-1.1-3.7c-0.5-2.2-0.8-2.7-2.4-2.8c-0.1,0-0.3,0.1-0.4,0.2
		c-0.3,0.3-0.1,0.5,0.9,2.7c-0.3,0.5-0.6,0.7-1.1,0.2c-0.6-0.8-1.3-1.5-2.2-1.9c-0.1-0.1-0.3-0.4-0.3-0.5s0.2-0.3,0.4-0.3
		c0.3,0,0.7,0.2,0.6-0.4c0-0.3-0.3-0.6-0.5-0.8c-0.5-0.2-1.5,0-1.7,0.5c-0.7,1.7,0,2.8,0.5,3.7c-0.3,0.1-0.6,0.1-0.8,0.3
		c-1.1,0.9-2.4,1.7-1.9,3.4v-0.1c0.1,0,0,0.1,0,0.1c0.3,0.5,0.5,1.1,0.7,1.7c0.1,0.1-0.2,0.5-0.3,0.5c-0.2,0-0.5-0.2-0.5-0.4
		c0-0.6,0.1-1.1,0.1-1.8c-2.3,1-1.7,0.7-2.5,1c-0.5,0.2-0.9,0.8-0.6,0.7c0.5-0.2,0.8-0.6,1.3-0.9c0.1,0.5,0.1,1.2,0.3,1.6
		c0.5,0.9,0.4,1.5,0,2.4c-0.5,1.2,0.2,2.4,1.5,2.7c0.3,0.1,0.6,0.1,0.9,0.2c-0.2,0.4-0.3,0.7-0.5,1.1c-0.2,0.3-0.6,0.5-0.8,0.6
		c0.3,0.8,0.7,0.5,1.1,0.6c0.3,0.2,0.6,0.3,0.9,0.3c-0.1,0.5-0.1,1.2-0.3,1.8c-0.2,0.9,0.2,1.6,0.4,2.3c0.1,0.2,0.2,0.4,0.4,0.5
		c1.7,0.2,1.4,1.3,0.8,2.4c-0.4,0.7,0.2,0.6,0.5,0.8c0.4,0.3,0.4,1.6,0.5,3.4c0,0.1,0.2,0.2,0.4,0.2c0.7-0.1-0.2-2.1,0.4-3.8
		c1.2-3.2,2.7-2.8,2.9-5.5c-0.1-0.6,0-1.5,0.3-1.7c1.3-0.6,1.8-2.3,3.4-2.5c0.5,0,1.1,0.2,1.2,0.7c0.1,0.7,0.1,1.5,0.1,2.3
		c0.5,11.4,0.3,10.8,1.5,14.5C280.2,83.5,283.1,81.5,283.1,84.6L283.1,84.6z M260,23c-2.7-6.2,2.6-15.3,11.5-13.6
		c1.7,0.3,3.2,1.2,4.2,2.6c2.4,3,3.1,6.5,0.9,10.6c-1.7,3.2-4.2,5.3-8.3,5.6C263.9,27.8,261.5,26.6,260,23L260,23z M262.4,71.5
		c-0.1-0.2-0.4-0.3-0.7-0.6c-0.1,0.4-0.4,0.6-0.5,0.8c0,0.1,0.3,0.4,0.5,0.5C262,72.3,262.4,71.9,262.4,71.5z M262.2,52.3h0.4
		l0.1-0.1C262.4,52.1,262.5,52.1,262.2,52.3z M265,59.2c0,0.4,0.1,0.7,0.1,1.1c-0.5-0.6-0.9-0.9-0.8-1.5
		C264.4,58.5,264.9,58.8,265,59.2z M264.7,63.7c-0.1-0.2,0-0.1-0.3-0.2c0,0.1,0,0.2,0.1,0.3C264.6,63.8,264.6,63.8,264.7,63.7z
		 M265.7,62.9c0.9,0.1,0.7,0,0.9,0.3C266.4,63.2,266.6,63.3,265.7,62.9z M266.2,20.7c0.1,0.1,0.3,0.1,0.4,0.1c0-0.1,0-0.1,0.1-0.2
		C266.2,20.5,266.3,20.5,266.2,20.7L266.2,20.7z M267.3,80.4c-0.5-0.3-0.4-0.2-0.5,0l0.2,0.3C267.1,80.5,267.2,80.4,267.3,80.4
		L267.3,80.4z M267.6,38.3c0.1-0.1,0.1-0.2,0.2-0.2c-0.1-0.6-0.1-0.5-0.4-0.8C267.1,38.1,267.4,38.1,267.6,38.3z M267.3,11.3
		c0.1-0.1,0.3-0.1,0.4-0.1V11C267.2,11,267.3,11,267.3,11.3z M267.9,40.4c0-0.2-0.2-0.4-0.3-0.6c-0.2,0.2-0.4,0.3-0.3,0.4
		c0,0.2,0.1,0.4,0.2,0.4C267.7,40.6,267.9,40.4,267.9,40.4L267.9,40.4z M267.7,41.9l-0.3,0.2c0.1,0.2,0,0.2,0.3,0.1V41.9z
		 M268.2,54.5c0.2,0.2,0.3,0.3,0.3,0.4c0,0.3,0,0.5-0.1,0.7c-0.1,0.1-0.3,0.2-0.4,0.1C267.6,55.6,267.9,55.1,268.2,54.5L268.2,54.5z
		 M268.5,63.5c-0.5-1.1,1-0.7,1.1-0.5s0,0.7,0,1.1h0.1C269,64.3,268.7,64,268.5,63.5L268.5,63.5z M268.5,51.3l0.2-0.3
		c0.1,0,0.3,0.1,0.4,0.2c-0.1,0.1-0.1,0.3-0.2,0.4C268.7,51.5,268.6,51.5,268.5,51.3L268.5,51.3z M269.6,80.5c0-0.2-0.3-0.4-0.4-0.5
		c-0.7,0.9-0.6,0.6,0,1.4C269.4,80.9,269.6,80.7,269.6,80.5z M269,40.9l0.3-0.2c0.1-0.4-0.1-0.7-0.1-1c0-0.1-0.2-0.2-0.2-0.1
		C268.7,40,268.7,39.7,269,40.9L269,40.9z M269.1,65.5c-0.2-0.6-0.4-0.2,0.5-1.3c0.3,0.3,0.2,0.6,0,1
		C269.6,65.4,269.3,65.4,269.1,65.5L269.1,65.5z M269.2,24.4c0,0.1,0.2,0.3,0.3,0.3c0.3,0.1,0.7-0.9,0.7-1.3
		c0.1-0.2-0.3-0.5-0.5-0.7C269.1,23.2,268.9,22.9,269.2,24.4L269.2,24.4z M269.1,15.1c0,0.1,0.1,0.3,0.3,0.4c0.1,0,0.2-0.1,0.2-0.2
		c0.1-0.1,0-0.2-0.1-0.4C269.4,15,269.2,15,269.1,15.1z M270.7,51.7c0.3,0.3,0.3,1.3-0.1,1.5c0,0-0.3-0.1-0.3-0.2
		c-0.1-0.2-0.1-0.7,0-1.1C270.4,51.8,270.7,51.7,270.7,51.7L270.7,51.7z M270.5,13.9c0.2,0.3,0.3,0.4,0.4,0.4c0.1,0.1,0.5,0,0.5-0.1
		c0.1-0.4,0.2-0.8,0.2-1.3c0,0-0.4-0.2-0.4-0.1C270.8,13.1,270.7,13.5,270.5,13.9L270.5,13.9z M272,48.4c-0.4,0.3-0.3,0.4-0.5,0
		C272,48.4,271.8,48.3,272,48.4z M272.3,75.4c-0.1,0-0.3-0.1-0.3,0c0,0.5-0.1,1-0.1,1.4c0,0,0.3,0.1,0.4,0
		C272.8,76.5,272.8,75.5,272.3,75.4L272.3,75.4z M272.8,58.2c0.1,0.2,0.2,0.3,0.4,0.5c-0.5,0.6-0.3,0.5-0.7,0.3
		C272.7,58.7,272.7,58.5,272.8,58.2L272.8,58.2z M273.2,52.9c-0.1,0.1-0.2,0.2-0.4,0.3c0-0.2-0.1-0.3-0.1-0.4c0-0.2,0.2-0.2,0.3-0.3
		C273.1,52.6,273.2,52.8,273.2,52.9L273.2,52.9z M273.2,48.5c-0.1-0.1-0.1-0.1-0.1-0.2C273.1,48.4,273.2,48.4,273.2,48.5z
		 M273.2,48.5c0.1,0.5,0.2,1.1,0.5,1.9C272.8,49.8,273.3,49.2,273.2,48.5z M274.1,67.1v-0.8l-0.5,0.7l0.1,0.2
		C273.8,67.1,274.1,67.1,274.1,67.1z M274.7,63.3c0-0.2-0.3-0.3-0.5-0.4c-0.3-0.1-1,1.1-0.1,3.1C274.9,65.2,274.9,64.3,274.7,63.3z
		 M275.6,56c0.2,0,0.3,0.3,0.3,0.4c-0.3,2.2-0.4,1.9-0.6,2.2c-0.5-0.7-0.5-0.5-0.5-1.1l0.5-1.3C275.2,56.1,275.5,56,275.6,56
		L275.6,56z"/>
	<path class="st4" d="M346.8,35.7l-0.5,4.6c-0.1,0.5-1.5,0.8-2.1,0.9c-3.7,0.8-6,3.3-7.2,6.6c-1.8,4.8-11.2,30.3-12.5,33.8
		c-1.5,3.8-1.4,4.7-2.8,4.8c-7.8,0-7.7-0.1-9.9,0c-1.4,0-2.2-0.5-2.7-1.9c-1.2-3.2-2.5-6.5-3.8-9.7c-9.7-24.1-9.6-24.3-11.3-27.5
		c-1.7-3-3.8-5.7-7.6-6.4c-1.3-0.3-1.4-0.5-1.3-1.7c0.1-4.6,0.2-4.7,2-4.7h9.2c3,0,5.9,0,9-0.1c1.2,0,2.3,0.5,3.5,0.3
		c1.1-0.2,6.5-0.2,6.9-0.2c2.9,0,3,0.1,2.9,2.7c-0.1,3.7,0.5,3.4-3.3,3.7c-2.2,0.3-3.4,2.2-3.1,4.1c0.3,1.9,0.8,3.7,1.6,5.6
		c1.2,2.5,1.4,3.4,1.2,3.7c-0.8,1,0,1.5,0.5,2c1.2,0.9,1.3,1.5,5.1,11.2c0.5,1.6,0.9,2.6,1.5,2.7c0.5,0.2,0.5-0.2,1.8-3.7
		c7.4-20,7.8-20.2,7.1-23c-0.5-1.9-2-2-4.8-2.7c-0.7-0.2-1.1-0.5-1.1-1.1c-0.1-1.5-0.2-2.7-0.2-4c-0.1-0.7,0.4-1.1,1.1-1.1l19.9,0.1
		C346.6,34.7,346.9,35.1,346.8,35.7L346.8,35.7z M297.7,40.5c-0.2,0.4,0.5,1.1,0.9,1.1l0.3-0.4C298.9,40.3,297.8,40.1,297.7,40.5
		L297.7,40.5z M306.1,55C306.2,55,306.2,55.1,306.1,55c0.5,0.3,1,0.9,1.5,0.5c1.2-0.6,2.3-0.4,3.4-0.5c-0.8-2.1-0.5-1.5-1.1-2
		c-0.1,0.2-0.3,0.4-0.3,0.5c0,0.5-0.3,0.6-0.7,0.5l-1.3-0.2c0.5-2.5,0.5-2.5,0.3-2.7c-0.5-0.5-1.7,0.1-1.8,0.6
		c-0.4,1.4-0.3,1.3-2.2,0c0.9-2.1,1-2.1-0.2-2.4c-1.1-0.2-1-0.4-1.8-2v0.1c-0.2-0.2-0.3-0.5-0.5-0.5c-0.6-0.3-1.2-0.2-1.5,0.3
		c-0.5,0.7,0.5,1.3,0.6,2.2c0.2,2.1,1.7,2.9,1.8,3.5c0.4,1.8,2.2,2.9,2.7,4.7c0,0.2,0.5,0.4,0.8,0.4C306.9,57.9,306.4,56.6,306.1,55
		L306.1,55z M302.9,55.8c-1-0.6-1.6-1.7-2.2-2.8c-0.1-0.2-0.4-0.3-0.5-0.4c-0.1,0.1-0.3,0.3-0.2,0.4c0.5,1.1,1,2.2,1.6,3.2
		c0.3,0.5,0.8,0.5,1.2,0.2C302.9,56.3,302.9,55.9,302.9,55.8L302.9,55.8z M300.1,45.3c0,0.2,0,0.1,0.2,0.5c0.1-0.1,0.2-0.2,0.2-0.3
		C300.4,45.4,300.3,45.3,300.1,45.3L300.1,45.3z M300.9,42.1c0.1,0,0.2-0.1,0.3-0.1C301.1,42,301,42,300.9,42.1z M301.8,47.4
		c1,0.1,1.2,0,0.9-0.7c-0.1-0.3-0.3-0.5-0.5-0.8c-0.1-0.1-0.4,0-0.4,0.1C301.6,46.4,301.6,47,301.8,47.4L301.8,47.4z M302.7,41.7
		c0.5,0.4-0.1,0.3,1.9,0.4l1.2-1.6c-1.4,0.1-1.4,0.2-1.2,1.6C302.8,41.1,303.3,41.3,302.7,41.7z M303.9,60.8c-0.1-0.5-0.1-1-0.1-1.5
		c0-0.1-0.2-0.2-0.2-0.2c-0.2,0.1-0.4,0.2-0.4,0.3C303.1,59.9,303,60.5,303.9,60.8L303.9,60.8z M303.4,45.6
		c-0.2,0.1-0.2-0.1-0.1,0.5C303.7,46,303.7,46.1,303.4,45.6z M305.6,42.5c0,0-0.3,0.4-0.2,0.5c0,0.5,0.5,0.7,0.1,1.2
		c-1,0.3-1.2,0.3-1.1,0.5l0.2,0.1c0.3-0.3,0.6-0.5,1-0.6c0.1,0.2,0.1,0.8,0.5,0.5c0.7-0.4,0.5-1.2,0.5-1.9
		C306.4,42.7,306,42.6,305.6,42.5L305.6,42.5z M304.5,37c0.1,0.3-0.2,0.2,0.8,0.5C304.7,36.8,305,37,304.5,37z M306.1,47.2
		c-0.1-0.5-0.5-0.5-0.8-0.5c-0.6-0.1-0.6,0.4-0.6,0.8s0.3,0.5,0.6,0.5C305.9,47.9,306.1,47.7,306.1,47.2z M305.4,37.5
		c0.2,0.5,0.5,1,0.7,1.5c-0.5,0.4-0.6,0.8-0.3,1.3l0.3-1.3c-0.1-0.3-0.2-0.5-0.1-0.7C306.1,37.7,305.9,37.6,305.4,37.5z M305.9,49.5
		c-0.1,0.1-0.2,0.2-0.2,0.3c-0.1,0.1,0.1,0.3,0.1,0.3c0.1-0.2,0.2-0.3,0.3-0.3C306,49.7,305.9,49.6,305.9,49.5z M307.5,54l-1.3,1.1
		c0,0,0-0.1-0.1-0.1C305.6,54.2,305.9,54.2,307.5,54z M308.9,61.6c-0.4-0.9-0.8-1.7-1.3-2.7c-0.1-0.1-0.4,0-0.5-0.1
		c-0.2,0.2-0.5,0.4-0.4,0.5c0.1,0.7,0.3,1.5,0.5,2.2c0.1,0.4,0.8,0.9,1.4,0.6C308.8,62.1,309,61.7,308.9,61.6L308.9,61.6z
		 M307.1,39.3c0.1,0.4,0.4,0.5,0.5,0.6c0.3,0.2,0.5,0.4,0.8,0.1c0.2-0.2,0.2-0.5,0.3-0.7c-0.1-0.7-0.6-1.1-1.3-0.9
		C307,38.5,306.8,39,307.1,39.3z M309.3,63.8c-0.1-0.1-0.2-0.3-0.2-0.4c-0.5,0.2-0.5,0-0.2,0.5C309.1,63.9,309.2,63.9,309.3,63.8
		L309.3,63.8z M309.4,56.5c0.1,0,0.2-0.2,0.4-0.2l-0.4-0.3l-0.3,0.3C309.2,56.4,309.3,56.5,309.4,56.5z M310.7,72.5
		c-0.2-0.1-0.4-0.3-0.5-0.3c-0.5,0.2-0.6,1.1-0.3,1.4c0.1,0.1,0.4,0,0.5-0.1C310.5,73.2,310.5,72.9,310.7,72.5L310.7,72.5z
		 M310.1,50.2c0.1,0,0.2,0.1,0.2,0.1c0.1,0,0.1-0.1,0.1-0.2c0-0.2-0.1-0.2-0.2-0.2C310.2,49.9,310.1,50.1,310.1,50.2z M311.1,67.9
		c-0.1,0.1-0.2,0.2-0.3,0.4c-0.4,0.6-0.4,1.5-0.2,1.2c0.3-0.3,0.4-0.8,0.5-1.1C311.2,68.1,311.1,68,311.1,67.9L311.1,67.9z
		 M314.3,64.5c-1.6-0.1-1.7,1.2-2.6,1.6c-0.9,0.5-0.7,1-0.5,1.6l1-1c0.1-0.1,0.4-0.1,0.5,0c0.5,0.6-0.5,1.6,0.8,1.5
		c1-0.2,1.4-0.9,1.9-1.6C316.1,65.6,315.6,64.7,314.3,64.5L314.3,64.5z M312,55.7c0-0.5,0.2-0.4-0.9-0.6
		C311.9,55.9,311.7,55.7,312,55.7z M311.3,59.5c0,0.2,0.2,0.4,0.3,0.4s0.3-0.1,0.5-0.2c-0.2-0.2-0.4-0.4-0.5-0.5
		C311.4,59.4,311.3,59.4,311.3,59.5L311.3,59.5z M312.3,54.2c0.5-0.5,0.5-0.2,0.1-1.5C311.8,53.5,311.7,53.2,312.3,54.2z"/>
	<path class="st4" d="M396.1,75.6c2.2,2.3,2.2,2.2,0,4.4c-7.5,7.1-17.1,9.6-27.1,8.5c-1.6-0.2-3.3-0.4-3.8-2.3c0-0.1-0.5-0.1-0.5,0
		c-0.7,1.6-1.8,0.6-5.7-1.5c-5.6-2.9-10.9-8.4-13.1-15.8c-6.5-21.8,12.8-40.9,34.8-35.7c2.8,0.6,5.6,1.3,8.1,2.7
		c4.9,2.7,4.8,3.7,6.3,5.2c3.6,3.7,3.7,7.9,2.1,12.5c-2.7,7.8-16.7,11.2-24.9,10.7c-2.9-0.2-7-0.7-7-0.7c-0.8,0-1.3,0.5-1.2,1.2
		c0.6,7.6,5.9,14,16.7,15.7c0.2,0,0.5,0.1,0.7,0c3-0.6,6.1-0.8,8.9-2.7C394.9,74.7,394.6,74.1,396.1,75.6L396.1,75.6z M349.2,59.1
		l0.3-0.4c-0.2-0.2-1-0.5-1.1,0.2c0,0.2,0.1,0.5,0.1,0.7C348.7,59.5,349,59.3,349.2,59.1z M348.5,56.7c0.1,0,0.3,0,0.4-0.1
		c0-0.1-0.1-0.2-0.1-0.3c-0.1-0.1-0.2,0-0.2,0C348.5,56.5,348.5,56.6,348.5,56.7z M348.9,53.1c0,0.1,0.3,0.3,0.4,0.3
		c0.1-0.1,0.3-0.3,0.4-0.5l-0.4-0.4L348.9,53.1z M361.9,56.6c-0.5-0.5-1.4-0.9-1.8-1.7c-0.7-1.2,1.8-2,0.4-3.6
		c-0.4-0.5-0.8-0.9-1.5-0.5c-0.9,0.4-1.7,0.5-2.5-0.1c-0.4-0.2-0.6,0.1-0.8,0.5c-0.4,1.1,0.3,1.9,0.7,2.8l-0.5,0.5
		c-0.6,0.5-1.3,0.5-1.7-0.1c-0.3-0.4-0.6-1.7-2.8-3.7c0.6,2.2,0.7,2.2,0.4,2.7c-0.6,0.9-0.5,1.2,0.5,1.5c0.3,0.1,0.8,0.1,0.9,0.3
		c0.2,0.5,0.4,1.1,0.4,1.6c-0.1,0.3-0.5,0.5-0.8,0.8c-0.3-0.3-0.5-0.5-0.6-0.7c-0.1-0.2-0.1-1.3-0.7-1.1c-1.4,0.4-1,0.4-1.6,2.8
		c0.4-0.4,0.8-0.7,1.6-0.2c0.6,0.4,0.8,1,0.9,1.6h0.1l-0.3,0.6c-0.2,1.7,1.1,2.9,1.6,4.4c0.1,0.2,0.6,0.2,0.9,0.3
		c0,1.4-0.1,1.8,1.1,1.8c0.2,0,0.4,0,0.5-0.2c0.1-0.3-0.3-0.6-1.5-1.6c0.3-1.4,1-2.1,2.5-2.3c0.5,0,0.9-0.3,1.4-0.5
		c0.1,0,0.1-0.1,0.2-0.1v0.1c1-0.3,1.5-1.1,2.1-1.8c1.1-1-1.8-1.9,0-3C361,57.4,361.8,57.4,361.9,56.6L361.9,56.6z M350.5,60.6
		c-0.5,0.4-0.5,0.1-0.2,0.8C350.7,61.3,350.7,61.5,350.5,60.6z M352.6,68.8c-0.1-0.2-0.5-0.5-0.7-0.6c-0.6,0-1.5,0.8-1.5,1.6
		s0.7,0.4,1.2,0.6l1,0.4C352.6,69.9,352.6,69.3,352.6,68.8L352.6,68.8z M350.5,63.1c-0.2,0.5-0.2,0.3,0.1,0.8c0-0.2,0.1-0.3,0.1-0.5
		C350.6,63.4,350.5,63.3,350.5,63.1z M352.3,65.8l-0.1-0.2c-1.1,0.8-1,0.7-0.9,1.2C351.4,66.9,352.6,66.7,352.3,65.8L352.3,65.8z
		 M352.4,60.2c-0.1,0-0.1-0.1-0.2-0.1h-0.1c0,0,0.1,0,0.1-0.1L352.4,60.2z M352.4,60.2c1.5,0.5,1.1,0.3,1.4,0.7
		C353.2,61,353.6,61.3,352.4,60.2z M355.1,57.7c0.1,0.1,0.2,0.2,0.4,0.3c-0.1,0.2-0.2,0.4-0.4,0.5c-0.1-0.2-0.2-0.3-0.2-0.4
		C354.9,58,355,57.9,355.1,57.7z M357.1,54.5c0.1,0.1,0,0.4,0,0.6c-0.5-0.4-0.5,0-0.7-1.1C356.7,54.2,356.8,54.3,357.1,54.5
		L357.1,54.5z M356.7,59.8c0.1,0.1,0.1,0.2,0.1,0.2c0,0.1-0.1,0.2-0.1,0.2C356.6,60.1,356.6,60,356.7,59.8z M356.9,49.3
		c0,0.1,0.5,0.2,0.5,0.1c0.3-0.4,0.5-0.8,0.7-1.3C356.8,48.1,356.5,48.4,356.9,49.3z M358.2,69.6l-0.3-0.3c0,0-0.1,0-0.1,0.1
		c-0.1,0,0,0.2,0,0.2H358.2z M358.7,62.8l-0.3-0.2c-0.1,0.1-0.2,0.2-0.2,0.3c-0.2,0.4-0.4,0.7,0.1,1.1
		C358.5,64.1,359.1,63.7,358.7,62.8L358.7,62.8z M359,57.5c0.1,0,0.2,0.1,0.3,0.2L359,58c0-0.1-0.1-0.3-0.2-0.4
		C358.8,57.6,359,57.5,359,57.5z M359.8,49.4l1.1,0.8c0.3-0.2,0.5-0.4,0.5-0.4c-0.4-1,0.5-0.8,1-1c0.4-0.1,0.8-0.3,0.7-0.8
		s-0.7-0.5-1.1-0.5c-0.9,0-1.6,0.6-2.2,1.4C359.7,49.1,359.7,49.3,359.8,49.4L359.8,49.4z M361.3,62.8c0-0.2,0-0.3-0.1-0.4
		c0,0.1,0,0.1-0.1,0.2C361.2,62.7,361.3,62.7,361.3,62.8L361.3,62.8z M364.3,57c0.7,0.7,1.6,0.9,2.5,1c2.7,0.4,5.5,0.5,8.2,0
		c5.8-1.1,9.7-4.2,10.9-9.8c0.7-3.6-1.5-7.6-5-8.4c-1.5-0.5-3.1-0.5-4.6-0.6c-1.2-0.1-1.5,0.4-6.1,3.7c-2.1,3-4.4,5.9-5,9.7
		c-0.2,1.1-0.5,2.1-1.5,2.7l-0.8,0.9c0-0.8-0.3-1.3-1-1.5c0.2-1.2,0.2-0.8-0.2-1.1c-0.1,0.2-0.1-0.1,0.2,1.1l1,1.5
		C363.3,56.5,363.9,56.6,364.3,57z M363.5,58.7l-0.4-0.5c-0.2,0.2-0.4,0.4-0.4,0.5s0.3,0.3,0.5,0.4C363.3,59,363.4,58.9,363.5,58.7
		L363.5,58.7z M364.1,46.1c-0.1-0.3,0-0.3-0.5-0.2C363.7,46.1,363.6,46.1,364.1,46.1z M373.2,83.6c-0.2-0.1-0.3-0.2-0.5-0.2
		l-0.1,0.2l0.3,0.3L373.2,83.6L373.2,83.6z M374.4,36.7c0.1,0.1,0.4,0.4,0.5,0.3c0.2,0,0.3-0.3,0.5-0.5
		C374.8,36.3,375.1,36.1,374.4,36.7L374.4,36.7z M376,81.1c-0.1-0.2-0.2-0.3-0.3-0.4c-0.1,0.3-0.2,0.2,0.1,0.6
		C375.9,81.2,375.9,81.1,376,81.1L376,81.1z M380,83.5c0.1,0.2,0.1,0.3,0.2,0.4C380.3,83.6,380.3,83.7,380,83.5z M384.9,80.9
		c-0.1-0.2-0.3-0.3-0.5-0.5c-0.2,0.2-0.3,0.3-0.4,0.5c0.2,0.1,0.4,0.3,0.5,0.3L384.9,80.9L384.9,80.9z M386.3,55.8
		c0.3,0.1,0.2,0.2,0.5-0.3c-0.1,0-0.2-0.1-0.2-0.1L386.3,55.8L386.3,55.8z M390.9,55.7c0.1,0.1,0.1,0.2,0.3,0.4
		c0.2-0.1,0.4-0.3,0.5-0.4c0-0.1-0.2-0.4-0.3-0.4C391.1,55.4,391,55.5,390.9,55.7z M391.9,52c0.1-0.1,0.3-0.1,0.4-0.2
		c0-0.1-0.1-0.1-0.1-0.2C391.7,51.8,391.8,51.8,391.9,52L391.9,52z"/>
	<path class="st4" d="M462.6,85.9c-0.1,1.4-4.5,0.1-8.2,0.6c-0.9,0.1-1.9-0.2-2.9-0.2c-18-0.2-17.9,0.7-18-1.6c0-1.2-0.3-2,0.7-2.4
		c2.8-1.1,3.8-3.6,4.6-6c0.2-0.7,0.4-1.5,0.4-2.2c0.5-13.3,0.4-15.7,0.4-15.7c0.3-4.7,0.5-3.6-0.2-8.9c-0.2-2.4-0.5-4.6-1.7-6.6
		c-1.3-2.2-2.8-2.8-5.1-1.9c-1.6,0.7-4.1,2.5-5.7,5.8c-2.3,4.8-2.2,5.7-3.8,14c-0.3,1.5-1.2,0.5-2.8,0.5c-0.5,0-0.9,0.5-0.6,1.1
		c0.3,0.6,0.2,1-0.4,1.5c-0.2,0.2-0.6,0.5-0.5,0.6c0.2,1-0.6,1.3-1.1,1.8l-0.8,0.9c0.5-2,0.6-2.7,0.5-2.7c-0.3-0.1-0.5-0.2-0.7-0.1
		c-1.1,0.5-1.2,0.9-2,2.3c0.4,0.6,0.9,0.5,2.2,0.3v0.1c-0.6,0.8-1.4,1.7-1.6,2.9c1-0.7,1.8-1.5,1.7-2.7c0.8,0.6,1.5,1.4,2.5,1.3
		c0.1,0,0.3,0.2,0.3,0.4c0,0.1-0.1,0.4-0.2,0.4c-1.3,0.2-1.6,1.2-2,2.1c0.5,0,0.9-0.2,1.4,0c1.4,0.4,2.3-0.3,3.3-1.2
		c0.7-0.6,0.5-1.1,0.1-1.6c-0.1-0.1,0.1-0.4,0.2-0.6c0.2,0.1,0.5,0.1,0.6,0.3c1.1,1.6,0.1,2.6-1.8,5.1c-0.7-0.3-0.6-0.4-1.1-0.1v0.2
		c0.5,0.2,0.4,0.2,1.1-0.1c1-0.1,0.7,0.6,0.7,1.2c0,0.1,0.2,0.2,0.3,0.3c0.4-0.4,0.2-0.1,0.6-0.9c0.3,0.3,0.6,0.4,0.7,0.6
		c0.2,0.8,0.4,1.7-0.6,2.4c-0.1,0.1-0.2,0.4-0.2,0.4c0.2,0.2,0.5,0.4,0.6,0.4c0.4-0.1,0.7-0.2,1,0.4c0.4,0.6,0.8,1.3,1.3,2
		c2.1,3.3,4.2,1.3,3.6,5.2c-0.1,0.6-0.5,1.1-1.4,1l-16.3-0.3c-9.3-0.1-8.8,0-10.5-0.3c-1-0.1-0.8-0.9-0.8-2.5
		c0.1-1.2,1.2-1.2,1.7-1.6c1.4-0.9,3.1-1.7,3-3.7c1.5-3.7,1.2-6.8,1.5-27.4c0-4-1.4-8.1-5-10.4c-0.9-0.5-0.9-0.9-0.1-1.6
		c2.4-2.3,5.3-3.5,8.7-4.2c2.5-0.5,5.5-1,6-0.8c2.3-0.1,4.6,0.1,6.8,0.7c1.5,0.4,1.2,0.7,1.1,5.6v0.9c0.1,0.4,0.2,0.9,0.5,1.1
		c0.5,0.3,0.7-0.2,0.9-0.5c3.1-4.3,12.4-11,22.4-6.6c3,1.5,5.4,3.7,6.8,6.6c0.8,1.6,0.7,3.4,0.7,5.1c0,0.3,0.2,0.7,0.2,0.7
		c1.4-0.3,1.2,0.8,1.2,1.5c1.2,16.7-0.7,18.5,0.8,29.1c0.3,1.6,1.6,4.4,3.6,4.8C462.4,82.8,462.8,82.9,462.6,85.9L462.6,85.9z
		 M410.5,42c0.1,0,0.4-0.2,0.6-0.4c-0.3-0.3-0.5-0.5-0.5-0.7C410.2,41.3,409.9,41.6,410.5,42L410.5,42z M410.8,39.3h0.2
		c0.1-0.1,0.2-0.2,0.2-0.4C410.9,38.9,411,38.8,410.8,39.3z M410.9,43.4c0,0.6,0,1.3,0.1,2.1c1.1-0.7,0.8-2.3,0.3-2.3
		C411.1,43.2,410.8,43.3,410.9,43.4L410.9,43.4z M411.9,75c0.5,0,1.1-0.2,0.8-0.3c-0.7-0.4-1.5,0.1-1.7,0.2c0.2-0.5,0.3-0.9,0.5-1.5
		c-0.1,0-0.2,0-0.3-0.1c-0.1,0.6-0.2,1.1-0.2,1.6C411.2,75,411.6,75,411.9,75L411.9,75z M412.8,77.3c-0.1,0-0.2,0.1-0.3,0.2
		c0,0.1,0.1,0.2,0.2,0.3C412.9,77.4,412.9,77.5,412.8,77.3L412.8,77.3z M413.6,70.8c-0.2,0.3-0.5,0.6,0,0.6c0.1,0.1,0.5-0.1,0.5-0.2
		c0.4-0.4,0.5-0.7,0.8-1.1C414.3,70,414,70.4,413.6,70.8L413.6,70.8z M415.6,72c1.1,1.5,0.5,0.8,1.1,1.7c0.5,0.9,1.4,1,1.9,0.2
		c0.3-0.3,0.5-0.7,0.5-1.1c0.1-0.1,0-0.4-0.1-0.4c-0.2-0.1-0.4-0.1-0.5-0.1c-0.4,0-0.6,0.6-1.1,0.3l-0.3-1.2
		C416.8,71.7,416.3,71.7,415.6,72L415.6,72z M415.8,75.9c-0.1,0.3-0.2,0.2,0.3,0.3C416.1,76,416.2,76,415.8,75.9z M416.3,70.5
		l0.5,0.3l0.3-0.6c0.1,0-0.3-0.3-0.3-0.3L416.3,70.5z M416.7,67L416.7,67L416.7,67z M416.7,67.1L416.7,67.1L416.7,67.1
		C416.8,67,416.8,67.1,416.7,67.1z M416.8,67.3c-0.1-0.1-0.1-0.1-0.1-0.2C416.7,67,416.8,67.2,416.8,67.3z M418.7,66.6
		c0,0,0.1-0.1,0.2-0.1s0.2,0.1,0.3,0.2l-0.3,0.3C418.8,66.8,418.7,66.6,418.7,66.6z M420.5,66.4c0.5-0.5,0.8-1,1.3-1.5
		c0.5-0.2,0.9-0.4,1.4-0.5C422.6,66.4,422.4,66.6,420.5,66.4z M420.5,64.7l1.3,0.2h-1.3V64.7z M422.3,63.1c-0.9,0.8-0.5,0.6-1.2,0.3
		C422.1,62.6,421.7,62.7,422.3,63.1z M441.9,66.9c-0.3-0.2-0.6-0.3-0.9-0.3c-0.2,0.1-0.4,0.1-0.5,0.2c0,0.1,0,0.4,0.1,0.5
		C441.4,68.6,442.6,67.2,441.9,66.9L441.9,66.9z M442.3,62.4c-0.1-0.1-0.2-0.2-0.3-0.2s-0.3,0.1-0.4,0.2l0.3,0.3
		C442.1,62.5,442.2,62.5,442.3,62.4L442.3,62.4z M445,61.5c-0.7-0.5-1,0.2-1.5,0.3c-0.4,0.1-0.5,0.6-0.2,0.7
		C444,62.7,444.1,62.5,445,61.5L445,61.5z M445.4,78.3c-0.8-0.1-0.6-0.2-0.8,0.3C445.4,78.8,445.3,78.9,445.4,78.3z M449.2,80.1
		c-0.5-0.6-0.5-0.4-1.3,0c-0.5-0.9-1-0.6-1.4-0.5c0.5,0.6,0.1,0.6,1.4,0.5c0.4,0.3,0.5,0.6,1.3,0.5
		C449.2,80.6,449.3,80.2,449.2,80.1z M447.1,56.4c0.1,0.1,0.3,0.1,0.5,0.1c-0.2-0.7,0.7-1.4,0.3-2.1c-0.2-0.3-0.5-0.5-0.6-0.6
		c-0.2,0.1-0.5,0.1-0.5,0.3C446.4,54.9,446.5,55.7,447.1,56.4L447.1,56.4z M448.1,68.4c-0.1-0.2-0.2-0.4-0.3-0.5
		c-0.6-0.1-0.8,0.2-0.9,0.6c0,0.1,0.2,0.4,0.2,0.4C447.4,68.7,447.8,68.6,448.1,68.4L448.1,68.4z M447.3,76.4
		c-0.3,0.6-0.2,1.3-0.3,2.2c1-0.9,1.5-1.8,1.5-2.8C448.1,75.9,447.3,76.1,447.3,76.4z M450.1,50.3c0.6-0.4,1.2-0.9,1.7-1.4
		c-0.8-0.7-1.4-1.5-2.1-0.7c-0.5,0.5-1,0.6-1.5,0.9c-1.1,0.7-1,1.8-1.1,2.9c-0.1,1.1,1.1,0.3,1.4,0.9l0.2,0.2c0.6,0.6,1.3,0,2.2-1
		C451.5,51.4,450.8,50.9,450.1,50.3z M448.1,72.4c-0.1,0.3-0.3,0.6-0.4,0.8c0.2-0.1,0.4-0.1,0.5-0.1
		C448.5,72.5,448.5,72.7,448.1,72.4z M449.6,74.8c-0.2-0.8-0.4-2.1-1.4-1.6c-0.3,0.5-0.3,0.9,0.1,1.3
		C448.6,74.8,449.1,74.8,449.6,74.8L449.6,74.8z M448.4,70.4c0.3,0,0.5-0.1,0.8-0.1c-0.1-0.3,0-0.6-0.1-0.6
		c-0.4-0.3-0.6-0.1-0.7,0.2C448.3,70,448.4,70.4,448.4,70.4z M453.6,76.2c-0.5-0.8-0.7,0.2-1.1,0.3c-0.4,0.1-0.7,0.1-1,0.3
		c-0.2,0.2-0.3,0.6-0.3,0.8c0,0.4,0.2,0.6,0.4,0.7c0.3-0.4,0.6-0.7,1.2-0.9C453.5,77.2,453.8,76.7,453.6,76.2L453.6,76.2z M452.3,81
		c-0.5,0-0.5,0.3-1,1.8c0.6-0.1,0.9-0.2,1.3-0.3h0.2c0.2-0.2,0.4-0.4,0.4-0.6C453.2,81.6,452.6,81,452.3,81L452.3,81z M451.4,79.2
		c0.6,0.1,1,0.4,1.5-0.7c0.1-0.1-0.3-0.4-0.4-0.4c-0.4,0.1-0.5,0.3-0.8,0.3L451.4,79.2L451.4,79.2z M454.2,45.6l-0.4-0.6
		c-0.4,0.3-0.6,0.4-0.8,0.5C453.5,46,453.2,46.1,454.2,45.6z M454.2,64.4l-0.3-0.2c-0.1,0-0.2,0.1-0.3,0.2l0.3,0.4
		C454,64.6,454.2,64.4,454.2,64.4z M456,83.3l-0.7-0.2c0,0.2-0.1,0.4-0.1,0.5c0.1,0.1,0.3,0.1,0.5,0.1
		C455.7,83.7,455.8,83.5,456,83.3L456,83.3z M458.6,83l-0.5-0.6c-0.2,0.1-0.3,0.1-0.4,0.2c0,0.2,0.1,0.5,0.3,0.6
		C458.1,83.2,458.3,83.1,458.6,83z M460.4,83.4c0-0.1-0.2-0.2-0.2-0.2c-0.2,0.1-0.4,0.1-0.4,0.3c-0.1,0.1-0.1,0.3-0.1,0.3
		c0,1.2,0,0.8,0.3,1.3C460.5,84.5,460.6,85,460.4,83.4z"/>
	<path class="st4" d="M522.8,84.6c-0.1,0.9,0.1,1.4-0.7,1.9c-0.4,0.3-2.7-0.1-10.9-0.1v-0.1c-11.3,0-10.6,0-11.1-0.1
		c-1-0.3-0.7-0.7-0.7-4.8c0-0.4-0.1-0.8-0.2-1.2c0-0.1-0.5-0.3-0.5-0.2c-2,1.4-1.5,3.2-7.3,5.7c-4.5,2-9,1.7-13.5-0.3
		c-5.7-2.4-8.9-6.9-10.8-12.8c-6.2-19.2,4.8-36.8,18.6-39.5c7.7-1.5,11.3,0.5,12.9,0.6c0.5,0.1,0.9-0.3,0.9-0.7
		c-0.1-8.7-3.2-10.2-5.2-11.5c-0.8-0.5-0.9-0.9-0.2-1.6c1.1-1.2,2.5-2.2,4.2-2.9c6.8-2.9,12.6-2.1,16.2-1.9c0.5,0.1,1,0.2,1.5,0.4
		c1.8,0.6,0.7,1.6,1,10.8c0,2.2-0.5,4.2,0,6.4c0.1,0.7,0,1.5,0,2.3c-0.5,18.1,0.3,11.4-0.3,14.6c-0.3,1.4-0.4,2.7-0.1,4.2
		c0.4,1.9,0.2,4,0.2,6.1c0,1-0.5,2-0.5,3.1c0,0.8-0.1,1.6,0.1,2.5c1,4.7-0.4,8.7,1.7,13c0.7,1.6,1.5,3,3.1,3.7
		C522.5,82.7,522.8,83.6,522.8,84.6L522.8,84.6z M470.9,51.2c1.5,0.8,1.6,0.8,2.5-0.3c0.5-0.5,0.8-1.2,1.5-1.5
		C473.3,49.1,472.9,50.9,470.9,51.2c0.9-0.9,0.7-0.6,0.5-1.1C471,50.3,471.1,50.1,470.9,51.2L470.9,51.2z M470.9,56.2l0.4,0.6
		c0.2-0.2,0.4-0.4,0.5-0.5c0-0.1-0.2-0.4-0.3-0.4L470.9,56.2L470.9,56.2z M471,65.7c0.6,0.5,1.1,0.6,1.5,1c-0.1,0.6-0.2,1,0.1,1.6
		c0.1,0.1,0.3,0.1,0.5,0.2c0.2-0.5,0.4,0-0.5-1.9c0.7-0.2,1.1-0.7,1.2-1.4c0-0.8-0.4-1.6-0.5-2.4c-0.3,0-0.5,0.1-0.6,0.2
		c-1,0.8,0.9,1.9-1,2.5C471.4,65.5,471.2,65.6,471,65.7L471,65.7z M473.9,71.3c0.1-0.8-0.5-1.2-1.3-1.5s-0.8,0.3-1.2,0.6
		c-0.2,0.1-0.4,0.5-0.3,0.6C471.5,71.5,471.9,71.3,473.9,71.3z M473.8,53.5c-0.6,0.4-0.5,0.3-0.3,0.6l0.5-0.3
		C473.9,53.7,473.9,53.6,473.8,53.5L473.8,53.5z M475.1,72.3c0-0.3-0.2-0.6-0.3-0.9h-0.9c-0.2,0.5-0.4,0.9,0.2,1.2
		c0.2,0.1,0.5,0.3,0.6,0.3C474.9,72.8,475.1,72.5,475.1,72.3z M474.2,59.8c0.1,0.1,0.4,0.1,0.6,0.2c0.2-0.2,0.4-0.4,0.5-0.6
		c0.1-0.2-0.1-0.5-0.1-0.7C474.5,58.9,473.9,59,474.2,59.8L474.2,59.8z M477,54.9c0,0.1,0.3,0,0.4,0l0.2-0.2
		c-0.1-0.3-0.6-1.9-0.4-2.1c0.9-0.6,0.7-1.5,0.6-2.4c0-1-0.2-1.2-1.1-0.8l-1.3,0.7c1-0.6,0.7-1.5,0.8-2.5c-1.9,1.5-1.5,1-1.4,1.8
		h0.1c-0.2,1.1,0.5,2.1,0,3.2c0,0.2,0.2,0.5,0.3,0.6C476.1,53.6,476.6,54.2,477,54.9L477,54.9z M475.4,70.6
		c-0.5,0.2-0.5-0.1-0.5,0.8c0.3-0.1,0.5-0.1,0.5-0.3C475.5,71,475.4,70.8,475.4,70.6z M475.5,69.2l-0.3-0.3l-0.3,0.3
		c0.1,0.1,0.3,0.1,0.4,0.1S475.5,69.2,475.5,69.2z M476.7,61.7c1-0.2,1.5-1.1,2.5-1c0.1,0.1,0.2-0.3,0.2-0.4
		c-0.1-0.1-0.3-0.3-0.4-0.2C478.2,60.4,477.4,60.7,476.7,61.7z M477.1,63.5c0.1-0.1,0.2-0.2,0.4-0.3c-0.2-0.1-0.3-0.2-0.4-0.3
		C476.9,63.2,476.9,63,477.1,63.5L477.1,63.5z M477.9,70.3c-0.1-0.2-0.3-0.4-0.5-0.6c-0.3,1.2-0.3,0.8,0.3,1.2
		C477.8,70.7,477.9,70.5,477.9,70.3L477.9,70.3z M479.7,73.4c-0.8,0.6-0.7,0.2-0.6,1.5C479.9,74,479.7,74.3,479.7,73.4z M479.9,69.8
		h-0.4c-0.1,0.2-0.1,0.5-0.1,0.7c0,0,0.2,0.1,0.4,0.3C479.9,70.4,479.9,70,479.9,69.8L479.9,69.8z M480.2,44.5
		c0.1-0.1,0.1-0.2,0.1-0.4c-0.2,0-0.5,0-0.7,0.3c0,0.1,0.2,0.3,0.3,0.3S480.1,44.6,480.2,44.5L480.2,44.5z M480.4,44
		c1.6-0.6,1.3-0.5,1.5-1.1c-0.2,0-0.4-0.1-0.5-0.1C480.8,43.1,480.5,43.4,480.4,44L480.4,44z M481.7,63.5c-0.7,0.4-0.5,0.2-0.6,0.7
		C481.6,64,481.4,64.3,481.7,63.5z M499.3,60c-0.2-1.8,0.4-13.6-0.3-16.7c-0.5-2.5-2.5-3.7-4.5-3.8c-2.2-0.3-4.1,0.3-6,0.9
		c-0.3,0.1-0.5,0.2-0.5,0.4c-0.7,1-1.8,1.6-2.5,2.7c-0.6,1-0.7,2.4-1.3,3.5c-1.5,3.4-1.5,7-2.2,10.6c0.4,2,0,3.8-0.3,5.8
		c0.5,0.6,0.4,1.4,0.4,2.2c0,3.7,0.9,7,3,10.1c2.9,4.4,10.1,3,12.6-4.8C499,67.3,499.8,63.6,499.3,60L499.3,60z M482.6,48.2
		c0.1,0,0.2,0.1,0.3,0.1l0.1-0.1c-0.1-0.1-0.1-0.2-0.1-0.3L482.6,48.2z M492,37.5c0.1,0.1,0.2,0.2,0.4,0.2c0.1-0.2,0.2-0.1-0.2-0.4
		C492.1,37.4,492.1,37.5,492,37.5L492,37.5z M504.8,42.8c0.3-0.1,1.5,0.3,0.7,1.1c-0.5,0.7-0.6,1.4-0.2,2.1c0.4,0.5,0.6,1.1,0.4,1.7
		c-0.1,0.4-0.3,0.8,0.3,1c0.4-0.4,0.6-0.8,1-1.1c0.5-0.1,0.2-1,1.1-0.7c0.1,1.5,0.1,1.9,0.1,2.3c0.6-0.1,1.3,0,1.5-0.9
		c0.1-0.5,0.5-0.4,0.8-0.4c1.5,0.1-1.2-1.6,1.2-2.8c0.1-0.1,0.3-0.2,0.3-0.3c0-0.5-0.5-1.4-1-1.3c-1,0.5-1.5-0.5-2.1-0.8
		c0.4,1.5,0.4,1.1,0,1.8c-0.5-0.7-0.5-0.2,0-1.7c-0.6-0.2-1.3-0.5-1.7,0.2c0,0.1-0.2,0.1-0.3,0.1c-0.1-0.2-0.2-0.5-0.2-0.7
		c0.1-0.4,0.5-0.3,0.8-0.4c0.9-0.5,1.1-1.3,0.3-1.8c-1.1-0.7-0.5-1-1.4-2.5c-0.1-0.1-0.4-0.1-0.5-0.1c-0.1,0.1-0.3,0.3-0.3,0.4
		c0.2,1.3,0.9,3.7-0.5,3.7c-1,0.1-0.6-0.8-0.9-1.6c0-0.1-0.1-0.2-0.2-0.2c-0.1,0.1-0.4,0.1-0.5,0.2c-1,1.4,0.2-0.2-0.9,4.2
		c0,0.1-0.1,0.2,0,0.3l0.5,0.6c0.2,0,0.5-0.2,0.6-0.4c0.1-0.5,0.1-1,0.3-1.5C504.3,43.1,504.5,42.8,504.8,42.8L504.8,42.8z
		 M503.4,66.6c-0.2-0.1-0.3-0.2-0.4-0.3c0,0.2-0.1,0.3-0.1,0.4s0.2,0.2,0.2,0.2L503.4,66.6L503.4,66.6z M503.4,28
		c0,1.5,0.1,1.5,0.5,2.2c0.5,0.7,1.2,0.8,1.8,0.2c0.5-0.5,0.6-1.3,1.5-1.6c0.4-0.2,0.5-0.7,0.9-0.9c0.2-0.2,0.5,0.9,0.5,1.6
		c-0.1,0.3-0.3,0.5-0.5,0.8c-1.1,2-1.4,1.9-0.8,2.8c0.3,0.5,0.7,0.5,1.2,0.5c0.4,0,0.4-0.2,0.2-0.5c-0.5-0.5-0.5-0.1,1.6-6.1
		c0.1-0.2,0.1-0.4,0.1-0.5c0.1-0.5-0.3-0.7-0.7-0.7v-0.1c-0.3-4.3-0.1-3.8-0.5-4l-0.2,0.1c0.2,1-0.5,1.6-0.7,2.5l-0.1-0.1v0.1
		c-0.4,0-0.7,0-0.8,0.5c-0.2,1.4,0.3,3.3-1.6,3.3c-0.6,0.1-0.7,0.5-0.5,1.1c0,0-0.1,0.2-0.1,0.3c-0.1,0-0.3,0-0.5-0.1
		C504.1,29.1,504.1,28.2,503.4,28L503.4,28z M505.4,34.9c0.1,0.3,0.1,0.5,0.1,0.8c0.1,0.5,0.5,0.8,0.9,0.5c0.5-0.3,1.1-0.5,1.3-1
		c0.4-0.5-0.5-0.8-0.7-1.3c-1.2-1.8-1.4-2-2.5-1.8c-0.3,0-0.5,0.3-0.5,0.5c0,0.3,0.2,0.5,0.3,0.8C504.3,33.8,506.1,33.2,505.4,34.9
		L505.4,34.9z M504.4,68.6c-0.1-0.2-0.1-0.3-0.2-0.4c-0.1,0-0.3,0-0.4,0.1c0,0.1,0.1,0.3,0.2,0.5C504.1,68.6,504.2,68.6,504.4,68.6z
		 M505.3,53.2l-0.4-0.5c-0.1,0-0.4,0.2-0.4,0.3c0.1,0.2,0.2,0.4,0.4,0.5C504.9,53.5,505.1,53.3,505.3,53.2z M506.6,63.2
		c-0.2-0.1-0.4-0.1-0.5-0.2c-0.9,1.6-1.5,2.5-0.5,2.5c0.3,0,0.5-0.1,0.6-0.3C506.4,64.6,506.5,63.9,506.6,63.2L506.6,63.2z
		 M505.9,50.8c-0.3-0.5-1-0.2-0.5,0.5c0.2,0.2,0.4,0.3,0.5,0.5C505.9,51.5,506,51,505.9,50.8L505.9,50.8z M506.6,58.9
		c0.4,0.3,0.6,0.5,0.9,0.8c0.3,0.2,0.7,0.2,0.8-0.1c0.5-0.9,0.9-1.2,1.7-0.5c0.7,0.5,1.7-0.3,2.5,0.3c0,0,0.5-0.3,0.5-0.5
		c0-0.3,0-0.7-0.2-0.9c-0.5-0.4-1.4-0.5-1.1-1.4c0,0-0.5-0.2-0.6-0.2c-0.5-0.1-1.7,0.2-1.5-0.9l0.6-0.4c0.5-0.2,1.4,0.2,1.4-0.6
		c0-0.3-0.8-0.5-1.2-0.7c-0.5-0.2-0.7-0.8-0.5-1.7c0.1-0.8-0.4-1.1-1.9-2.8c0,0.3-0.1,0.5-0.2,1.2c-1.7,1.9-0.9,3.7-0.8,4.4
		c-0.5-0.1-1-0.2-1.7-0.4c0.2,1.1,0.4,2.2,0.5,3.2C505.9,58.3,506.2,58.6,506.6,58.9L506.6,58.9z M506,26.5c0.2,0,0.5-0.2,0.5-0.2
		l-0.3-0.8c-0.4,0.2-0.5,0.2-0.6,0.3C505.5,26.1,505.7,26.4,506,26.5L506,26.5z M506.5,69c-0.1-0.6-0.3-1.1-0.5-1.6
		c0,0-0.1-0.1-0.1-0.2c-0.4,0.5-0.3,0.2-0.4,0.8c0,0.6,0.1,1.6,0.5,2C506.2,70.2,506.6,69.5,506.5,69L506.5,69z M506.4,73.3
		l-0.5-0.5c0,0-0.2,0.1-0.1,0.2c0,0.2,0.1,0.4,0.2,0.6C506.1,73.5,506.2,73.5,506.4,73.3z M507.5,57.4c-0.2-0.4-0.6-0.7-0.6-1.2
		c-0.1-0.5,0.2-0.8,0.4-1.3c0.3,0.2,0.7,0.3,1,0.5c0.4,0.5,0.3,1.2-0.3,1.8C507.8,57.4,507.6,57.5,507.5,57.4L507.5,57.4z
		 M507.8,68.2c-0.1-0.4-0.2-0.7-0.2-1.1c-0.2,0.1-0.3,0-0.3,0.1c-0.3,0.2,0,0.8,0.3,1C507.7,68.3,507.7,68.2,507.8,68.2z
		 M511.3,62.4c-0.7,0.9-1.4,1.1-2.1,0.6c-0.5-0.1-0.9-0.3-1.1-0.8c-0.1-0.4-0.2-0.7-0.6-0.5l-0.1,0.6c0.1,0.5,0.4,1.1,0.4,1.6
		c-0.1,0.9,0.2,1.6,0.9,2c0.5,0.4,0.5,1,0.3,1.6C511.2,67,511,64.8,511.3,62.4L511.3,62.4z M512.6,74.9l0.5-0.2
		c0.5-0.1,0.7-0.5,0.6-0.7c-0.5-0.8-1.1-0.6-3-0.4c-1.2,0.1-0.9-0.8-1.7-2.8c0-0.2-0.5-0.3-0.6-0.2s-0.4,0.4-0.4,0.6
		c0.2,0.6,0.5,1.1,0.6,1.7C508.8,74.5,508.4,74.1,512.6,74.9L512.6,74.9z M508.8,25.9c-0.4-0.5-0.5-1.1-0.7-1.6h0.1
		c0.5,0.5,1,0.9,1.5,1.5C509.4,26,509,26.4,508.8,25.9L508.8,25.9z M508,50.5c1,0.5,0.9,0.4,0.8,1.1c-0.1,0.1-0.2,0.1-0.3,0.1
		C508.1,51.4,508.3,51.5,508,50.5L508,50.5z M508.8,68.5c0,0.1,0.3,0.2,0.4,0.3c0.1-0.5,0.3-0.2-0.2-1
		C508.9,68,508.8,68.3,508.8,68.5L508.8,68.5z M510.1,61.1c-0.1-0.2-0.3-0.4-0.4-0.5c-0.5,0.4-0.3-0.3-0.5,2.3
		C509.8,62.4,510.2,61.8,510.1,61.1L510.1,61.1z M509.7,55.4c-0.1-0.1-0.3-0.1-0.4-0.1c0-0.1,0.1-0.2,0.2-0.4L509.7,55.4z
		 M510.1,39.4c-0.9,0.4-0.9,1.4-0.1,1.2c0.5-0.2,0.7,0,1.1,0.4c0.4,0.3,0.8,0,0.8-0.5s-0.1-0.8-0.2-1.2l1.1,0.6
		c0.3,0.2,0.8-0.1,0.6-0.3c-0.4-0.5-0.7-0.4-1.7-0.4C511.3,39.8,510.7,39.2,510.1,39.4z M509.9,55.4c0,0.1,0,0.1-0.1,0.2L509.9,55.4
		z M511.1,68.6c0.7,0.3,0.4-0.7,0.7-1.1c0.1-0.2,0.1-0.6,0.1-0.8c-0.1-0.1-0.2-0.2-0.3-0.2l-0.4,0.6
		C511.1,67.6,510.5,68.3,511.1,68.6L511.1,68.6z M511,29.5c0.2,0.7,0.3,1.1,0.4,1.3c0.4,0.4,0.5,0.2,0.6-0.2
		c0.1-0.2,0.1-0.4,0.1-0.6c-0.1-0.2-0.3-0.5-0.5-0.6C511.4,29.3,511.1,29.4,511,29.5L511,29.5z M512.3,51.9
		c-1.2,0.1-1.6,1.5-0.6,1.5c0.5,0.1,1-0.6,1-1.3C512.6,52.1,512.4,51.9,512.3,51.9L512.3,51.9z M513.6,47.7c-0.2-0.8-0.4-0.7-1-1
		c-0.6,0.5-1.1,0.7-0.8,1.1c0.3,0.5,0.6,0.3,1,0c0.1-0.1,0.4,0,0.5,0C513.4,47.8,513.6,47.7,513.6,47.7L513.6,47.7z M512.1,64.9
		c0.5-0.2,0.2,0,1-0.5c-0.1-0.3-0.1-0.7-0.4-0.8c-0.5-0.3-0.6,0.2-0.8,0.6L512.1,64.9z M513.6,42.9c-0.1-0.3-0.1-0.5-0.2-0.5
		c-2-1.5-1.1,1.7-0.1,1.1C513.4,43.4,513.5,43.1,513.6,42.9L513.6,42.9z M513.8,76.6c0-0.1-0.3-0.3-0.3-0.3c-0.5,0.5-0.8,1-1.2,1.5
		c-0.1,0.2,1.1,1.1,1.2,1.1C513.7,78.1,513.7,77.3,513.8,76.6z M513.1,54.7c-0.5,0.8-0.6,0.5,0,1.4
		C513.7,55.5,513.7,55.9,513.1,54.7z M513.6,70.8c-0.3-0.1-0.2-0.2-0.5,0.3C513.4,71.1,513.3,71.2,513.6,70.8z M513.9,38l-0.5-0.3
		c0,0.2-0.1,0.3-0.1,0.4c0.1,0.1,0.3,0.2,0.5,0.3C513.7,38.4,513.7,38.2,513.9,38L513.9,38z M513.9,64.8c-0.2-0.2-0.5-0.3-0.6-0.3
		c0.1,0.2,0.2,0.5,0.4,0.6l0.3-0.2V64.8L513.9,64.8z M515,58.1c-0.5,0.4-0.4,0.2-0.3,0.7C515.1,58.7,515,58.9,515,58.1z M515.6,40.6
		c-0.2-0.1-0.5-0.3-0.6-0.5c0,0-0.2,0.1-0.2,0.2l0.5,0.7C515.3,40.9,515.4,40.8,515.6,40.6L515.6,40.6z"/>
	<path class="st4" d="M527.6,47.1c3-6,7.8-10,14.3-12.2c3.3-1.1,5-1.4,8.1-1.5c19-0.5,20.4,10.9,32,14c4.3,1.2,7.8-1.3,8.9-4.3
		c0.2-0.5,0.3-0.8,0.5-1.2c0.4-0.5,0.7-0.9,1.2-1.2c6.5-2.7,10.8,3.2,10.2,6.8c-1.6,9.3-13,11.7-24,5.9c-0.5-0.3-1,0-1,0.5
		c0.2,4.7,1,7.4-0.1,10c0.2,1.4-0.3,2.7-0.5,3.9c-5.4,23.6-38,24.5-48.2,8.2C523.2,66.9,522.9,57.1,527.6,47.1L527.6,47.1z
		 M533.6,58.1c-0.2-0.2-0.4-0.3-0.6-0.5c-0.3,0.3-0.5,0.4-0.8,0.6c-0.3,0.4-0.2,0.7,0.2,0.9c0.7,0.3,1.3,0.5,1.5,0.3
		C534.1,59.2,533.7,58.4,533.6,58.1L533.6,58.1z M532.9,63.6c0.1,0-0.1-0.1-0.2-0.2c-0.2,0.1-0.3,0.2-0.4,0.4c0.1,0,0.2,0.1,0.3,0.2
		C532.7,63.8,532.9,63.7,532.9,63.6L532.9,63.6z M533.4,61.7c0-0.2-0.3-0.4-0.5-0.5c-0.1,0.2-0.4,0.4-0.4,0.5
		c-0.1,0.2,0.2,0.4,0.4,0.6C533.2,62.1,533.4,61.9,533.4,61.7z M533.9,56.3c0.6-1.9,0.5-1.5,0.1-1.9c-0.1,0.1-0.4,0.1-0.4,0.2
		c-0.1,0.5-0.2,1-0.2,1.6c0,0,0.1,0.1,0.2,0.1L533.9,56.3L533.9,56.3z M534.1,52.4c0-0.1-0.1-0.2-0.2-0.4c-0.1,0.1-0.3,0.3-0.2,0.4
		c0,0.1,0.1,0.2,0.2,0.3L534.1,52.4z M534.5,49.9c-0.1,0-0.2-0.1-0.4-0.1c0,0-0.1,0.1-0.1,0.2l0.3,0.3
		C534.5,50.2,534.5,50,534.5,49.9z M536.1,58.6c-0.4-0.2-0.3-0.3-0.5,0.3c0.2,0,0.4,0.1,0.4,0.1C536,58.8,536.1,58.7,536.1,58.6z
		 M538.6,61.9l-0.2-0.5c-0.2,0.5-0.2,0.2,0,0.9C538.6,62.2,538.6,62,538.6,61.9L538.6,61.9z M539.5,54.8c-0.4,0.5-0.4,0.5,0.1,0.7
		C539.9,54.9,539.8,55.1,539.5,54.8z M541.7,60.7c-0.1-0.5-0.1-0.9-0.2-1.4c-0.1-0.1-0.5-0.3-0.6-0.2s-0.3,0.5-0.3,0.5l0.6,1.1
		C541.4,60.7,541.5,60.7,541.7,60.7L541.7,60.7z M541.5,57.6l-0.5-0.5c-0.4,0.5-0.5,0.3,0.2,0.9C541.2,57.9,541.4,57.8,541.5,57.6
		L541.5,57.6z M554.4,80.2c1.4-1.1,2.4-2.6,3-4.1c7.8-16.5,0.4-42-8.2-35.7c-1.4,1-2.5,2.3-3.2,3.8c-3.8,8-3.4,15.5-3.6,18.6
		c-0.1,1.5-0.5,3.1,0.6,4.5c0.1,0.2,0.1,0.6,0.1,0.7c0.3,2.7,1.1,5.2,2,7.7c0.8,1.8,1.7,3.5,3.4,4.6
		C550.7,81.8,552.4,81.8,554.4,80.2L554.4,80.2z M567.5,60.5c-0.1,0-0.1-0.1-0.1-0.2c-0.5,0.2-0.4,0.1-0.3,0.4
		C567.2,60.6,567.3,60.6,567.5,60.5L567.5,60.5z M568.9,55.1c0-0.1-0.1-0.3-0.2-0.4c-0.1,0-0.3,0.1-0.4,0.2c0.1,0.2,0.2,0.4,0.3,0.4
		S568.8,55.2,568.9,55.1L568.9,55.1z M572.8,57.5c-0.1-0.2-0.2-0.4-0.3-0.4c-0.2,0-0.4,0.1-0.5,0.2v1
		C572.6,58.1,572.5,58.4,572.8,57.5L572.8,57.5z"/>
	<path class="st4" d="M650.3,83.1c0,0.5,0.2,0.8-0.2,1.2c-0.2,0.2-1.6,0.2-6.2,1v-0.1c-6.5,1.1-6.1,1.1-6.4,1.1
		c-0.6-0.1-0.5-0.3-0.9-2.7c0-0.2-0.1-0.5-0.2-0.7c0-0.1-0.3-0.1-0.3-0.1c-1,1-0.5,2-3.6,4c-2.4,1.6-5,1.9-7.8,1.2
		c-3.5-0.8-5.8-3.1-7.4-6.2c-5.5-10.4-0.9-21.6,6.7-24.5c4.2-1.7,6.5-0.9,7.4-0.9c0.3,0,0.5-0.2,0.5-0.5c-0.9-5-2.8-5.5-4.1-6.1
		c-0.5-0.2-0.6-0.4-0.3-0.9c0.5-0.8,1.2-1.5,2.1-2.1c3.6-2.3,7-2.5,9.1-2.7c0.3,0,0.6,0,0.9,0.1c1.1,0.1,0.6,0.9,1.7,6.1
		c0.2,1.2,0.2,2.5,0.6,3.7c0.1,0.4,0.1,0.8,0.2,1.3c1.5,10.4,1.3,6.5,1.3,8.4c0,0.8,0.1,1.6,0.4,2.4c0.4,1.1,0.5,2.3,0.7,3.5
		c0.1,0.6-0.1,1.2,0,1.8c0.1,0.5,0.1,0.9,0.3,1.4c1,2.6,0.7,5,2.3,7.3c0.6,0.8,1.2,1.6,2.1,1.8C649.9,82,650.2,82.4,650.3,83.1
		L650.3,83.1z M617.2,69.1c1,0.3,1,0.3,1.4-0.4c0.2-0.4,0.3-0.8,0.7-1C618.4,67.6,618.3,68.7,617.2,69.1c0.4-0.6,0.3-0.4,0.2-0.7
		C617.2,68.6,617.2,68.4,617.2,69.1L617.2,69.1z M617.7,71.9l0.3,0.3c0.1-0.1,0.2-0.2,0.2-0.4c0-0.1-0.1-0.2-0.2-0.2L617.7,71.9
		L617.7,71.9z M618.7,77.4c0.4,0.2,0.7,0.3,1,0.4c0,0.4,0,0.6,0.2,0.9c0.1,0,0.2,0,0.3,0.1c0.1-0.3,0.2,0-0.5-1
		c0.4-0.2,0.6-0.5,0.5-0.9c-0.1-0.5-0.4-0.9-0.5-1.3c-0.2,0-0.3,0.1-0.3,0.2c-0.5,0.6,0.7,1-0.3,1.5
		C618.9,77.2,618.8,77.3,618.7,77.4L618.7,77.4z M619.1,70.1c-0.3,0.3-0.3,0.2-0.1,0.4l0.3-0.2C619.2,70.2,619.2,70.2,619.1,70.1
		L619.1,70.1z M621.1,70.6c0,0.1,0.2,0,0.2,0l0.1-0.1c-0.1-0.2-0.6-1-0.4-1.2c0.5-0.5,0.3-1,0.1-1.4c-0.1-0.6-0.2-0.7-0.7-0.4
		l-0.7,0.5c0.5-0.5,0.3-1,0.2-1.5c-1,1-0.8,0.7-0.6,1.2h0c0,0.6,0.5,1.2,0.3,1.8c0,0.1,0.2,0.3,0.2,0.3
		C620.4,70,620.8,70.2,621.1,70.6L621.1,70.6z M620.9,80.3c0-0.5-0.4-0.6-0.9-0.7s-0.4,0.2-0.6,0.4c-0.1,0.1-0.2,0.3-0.1,0.3
		C619.6,80.7,619.8,80.5,620.9,80.3L620.9,80.3z M619.9,73.7c0.1,0,0.2,0,0.4,0c0.1-0.1,0.2-0.2,0.2-0.4c0-0.1-0.1-0.2-0.1-0.4
		C620.1,73.1,619.7,73.3,619.9,73.7z M621.7,80.8c0-0.2-0.2-0.3-0.2-0.5l-0.5,0.1c-0.1,0.3-0.1,0.6,0.2,0.7c0.1,0,0.3,0.1,0.4,0.1
		C621.6,81,621.7,80.9,621.7,80.8L621.7,80.8z M621.7,79l-0.2-0.1l-0.1,0.2C621.4,79,621.5,79,621.7,79C621.6,79,621.7,79,621.7,79
		L621.7,79z M621.7,79.7c-0.3,0.2-0.3,0-0.2,0.5c0.2-0.1,0.2-0.1,0.3-0.2C621.8,80,621.8,79.9,621.7,79.7L621.7,79.7z M621.9,64.3
		c0-0.1,0-0.1,0-0.2c-0.1,0-0.3,0.1-0.4,0.2c0,0.1,0.1,0.1,0.2,0.1C621.7,64.5,621.8,64.4,621.9,64.3z M621.6,74.5
		c0.6-0.2,0.8-0.8,1.3-0.8c0.1,0,0.1-0.2,0.1-0.2c-0.1,0-0.2-0.1-0.2-0.1C622.3,73.6,621.8,73.9,621.6,74.5L621.6,74.5z M622,75.5
		c0-0.1,0.1-0.1,0.2-0.2c-0.1,0-0.2-0.1-0.2-0.1C621.8,75.4,621.8,75.3,622,75.5L622,75.5z M621.9,64c0.9-0.5,0.7-0.4,0.7-0.8
		c-0.1,0-0.2,0-0.3,0C622.1,63.5,622,63.7,621.9,64L621.9,64z M623.1,79.3c-0.1-0.1-0.2-0.2-0.3-0.3c0,0.7-0.1,0.5,0.3,0.7
		C623.1,79.6,623.1,79.4,623.1,79.3L623.1,79.3z M623.6,66.2c0,0,0.1,0,0.2,0l0-0.1c-0.1,0-0.1-0.1-0.1-0.2L623.6,66.2L623.6,66.2z
		 M624.2,78.8l-0.2,0c0,0.1,0,0.3,0,0.4c0,0,0.1,0,0.2,0.1C624.3,79.2,624.2,79,624.2,78.8L624.2,78.8z M624.5,80.9
		c-0.4,0.4-0.4,0.2-0.2,0.9C624.6,81.3,624.6,81.5,624.5,80.9z M634.4,71.3c-0.3-1-1.1-7.8-1.8-9.5c-0.6-1.4-1.8-1.8-2.9-1.8
		c-1.3,0.1-2.3,0.6-3.4,1.1c-0.2,0.1-0.2,0.2-0.3,0.3c-0.3,0.7-0.9,1.1-1.1,1.8c-0.3,0.6-0.2,1.4-0.4,2.1c-0.5,2.1-0.1,4.2-0.2,6.3
		c0.4,1.1,0.4,2.2,0.4,3.4c0.4,0.3,0.3,0.8,0.4,1.2c0.4,2.1,1.2,3.9,2.7,5.5c2.1,2.2,6.1,0.7,6.7-4C634.9,75.5,635,73.3,634.4,71.3
		L634.4,71.3z M624.6,75c-0.4,0.3-0.3,0.2-0.3,0.5C624.6,75.4,624.5,75.6,624.6,75z M627.9,59.2c0.1,0,0.1,0.1,0.2,0.1
		c0-0.1,0.1-0.1-0.1-0.2C628,59.1,628,59.1,627.9,59.2L627.9,59.2z M633.5,52.6c0.2,0.9,0.2,0.9,0.5,1.2c0.3,0.4,0.8,0.3,1.1-0.1
		c0.3-0.4,0.2-0.8,0.7-1.1c0.2-0.1,0.2-0.5,0.4-0.6c0.1-0.1,0.4,0.5,0.4,0.9c0,0.2-0.1,0.3-0.2,0.5c-0.4,1.3-0.6,1.2-0.2,1.7
		c0.2,0.3,0.5,0.2,0.7,0.1c0.2,0,0.2-0.1,0.1-0.3c-0.3-0.2-0.3,0,0.3-3.7c0-0.1,0-0.2,0-0.3c0-0.3-0.2-0.4-0.5-0.3v0
		c-0.6-2.4-0.4-2.2-0.7-2.2l-0.1,0.1c0.2,0.6-0.2,1-0.2,1.5l-0.1,0v0c-0.2,0-0.4,0.1-0.4,0.4c0,0.8,0.5,1.8-0.6,2
		c-0.4,0.1-0.4,0.4-0.2,0.7c0,0,0,0.1,0,0.2c0,0-0.2,0-0.3,0C634,53.1,633.9,52.7,633.5,52.6z M635.3,56.3c0.1,0.2,0.1,0.3,0.1,0.5
		c0.1,0.3,0.4,0.4,0.6,0.2c0.3-0.2,0.6-0.4,0.6-0.7c0.2-0.3-0.3-0.4-0.5-0.7c-0.9-0.9-1-1-1.6-0.8c-0.2,0-0.3,0.2-0.3,0.3
		c0,0.2,0.2,0.3,0.2,0.4C634.6,55.8,635.6,55.3,635.3,56.3z M634.9,51.5c0.1,0,0.2-0.2,0.2-0.2l-0.2-0.4c-0.2,0.1-0.3,0.2-0.3,0.2
		C634.5,51.3,634.7,51.4,634.9,51.5L634.9,51.5z M635.8,60.9c0.2-0.1,0.9,0,0.5,0.6c-0.2,0.4-0.2,0.8,0.1,1.2c0.3,0.3,0.5,0.6,0.4,1
		c0,0.2-0.1,0.5,0.3,0.6c0.2-0.2,0.3-0.5,0.5-0.7c0.2-0.1,0-0.6,0.6-0.5c0.2,0.9,0.2,1.1,0.3,1.3c0.4-0.1,0.7-0.1,0.8-0.7
		c0-0.3,0.2-0.2,0.4-0.3c0.8-0.1-0.8-0.8,0.4-1.7c0-0.1,0.1-0.1,0.1-0.2c0-0.3-0.5-0.7-0.7-0.6c-0.5,0.4-0.9-0.1-1.3-0.3
		c0.4,0.8,0.3,0.6,0.2,1c-0.3-0.4-0.3-0.1-0.2-1c-0.4,0-0.8-0.2-1,0.3c0,0-0.1,0.1-0.2,0.1c-0.1-0.1-0.2-0.2-0.2-0.4
		c0-0.2,0.3-0.2,0.4-0.3c0.5-0.3,0.5-0.8,0-1.1c-0.7-0.3-0.4-0.5-1-1.3c-0.1,0-0.2,0-0.3,0c0,0.1-0.1,0.2-0.1,0.2
		c0.2,0.7,0.9,2,0.1,2.2c-0.6,0.2-0.5-0.4-0.7-0.8c0,0-0.1-0.1-0.1-0.1c0,0.1-0.2,0.1-0.2,0.2c-0.4,0.9,0.1-0.1-0.1,2.5
		c0,0,0,0.1,0,0.2l0.4,0.3c0.1,0,0.3-0.2,0.3-0.3c0-0.3,0-0.6,0-0.9C635.5,61.2,635.7,61,635.8,60.9L635.8,60.9z M636.4,50.8
		c-0.3-0.3-0.4-0.6-0.6-0.9h0c0.4,0.2,0.7,0.4,1,0.7C636.7,50.8,636.6,51.1,636.4,50.8L636.4,50.8z M637.1,66.9l-0.3-0.3
		c0,0-0.2,0.1-0.2,0.2c0.1,0.1,0.1,0.2,0.2,0.2C636.9,67,637,66.9,637.1,66.9z M637.2,65.4c-0.2-0.2-0.6,0-0.3,0.3
		c0.1,0.1,0.2,0.1,0.3,0.2C637.3,65.8,637.3,65.5,637.2,65.4z M637.3,74.7c-0.1,0-0.2-0.1-0.2-0.1c0,0.1,0,0.2,0,0.2
		c0,0.1,0.1,0.1,0.1,0.1L637.3,74.7L637.3,74.7z M638.4,70c0.2,0.1,0.4,0.2,0.6,0.4c0.2,0.1,0.4,0,0.5-0.1c0.2-0.6,0.4-0.8,1-0.4
		c0.5,0.2,1-0.3,1.5-0.1c0,0,0.2-0.2,0.2-0.3c0-0.2-0.1-0.4-0.2-0.5c-0.3-0.2-0.8-0.1-0.8-0.7c0,0-0.3-0.1-0.4,0
		c-0.3,0-1,0.3-0.9-0.4l0.3-0.3c0.3-0.2,0.8,0,0.7-0.5c0-0.2-0.5-0.2-0.8-0.3c-0.3-0.1-0.5-0.4-0.4-0.9c0-0.5-0.3-0.6-1.4-1.4
		c0,0.2,0,0.3,0,0.7c-0.8,1.3-0.2,2.2,0,2.6c-0.3,0-0.6,0-1,0c0.2,0.6,0.4,1.2,0.6,1.8C638,69.7,638.2,69.8,638.4,70L638.4,70z
		 M638.1,75.7c-0.1-0.1-0.1-0.2-0.1-0.2c0,0-0.2,0-0.2,0.1c0,0.1,0.1,0.2,0.2,0.2C637.9,75.8,638,75.8,638.1,75.7z M638,52.7
		c0.2,0.4,0.3,0.6,0.3,0.7c0.2,0.2,0.3,0,0.3-0.2c0-0.1,0-0.2,0-0.4c-0.1-0.1-0.2-0.2-0.3-0.3C638.2,52.5,638.1,52.6,638,52.7
		L638,52.7z M638.5,58.4c-0.5,0.3-0.4,0.9,0.1,0.7c0.2-0.2,0.4-0.1,0.7,0.1c0.2,0.1,0.5-0.1,0.4-0.3s-0.1-0.5-0.2-0.7l0.7,0.3
		c0.2,0.1,0.5-0.1,0.3-0.2c-0.3-0.3-0.5-0.1-1,0C639.2,58.6,638.8,58.3,638.5,58.4L638.5,58.4z M638.9,72.4c-0.1,0-0.2,0-0.3-0.1
		c-0.4,1-0.6,1.6-0.1,1.5c0.2,0,0.3-0.1,0.3-0.2C638.9,73.3,638.8,72.9,638.9,72.4z M638.8,69.1c-0.1-0.2-0.4-0.4-0.5-0.6
		c-0.1-0.2,0-0.5,0.1-0.8c0.2,0.1,0.5,0.1,0.6,0.2c0.2,0.2,0.3,0.7,0,1.1C639,69,638.8,69.1,638.8,69.1L638.8,69.1z M638.4,65
		c0.6,0.2,0.6,0.1,0.6,0.6c0,0.1-0.1,0.1-0.2,0.1C638.5,65.6,638.6,65.6,638.4,65L638.4,65z M639.3,75.8c-0.1-0.3-0.3-0.6-0.4-0.9
		c0,0-0.1,0-0.1-0.1c-0.2,0.3-0.1,0.1-0.1,0.5c0,0.3,0.2,0.9,0.5,1.1C639.3,76.5,639.4,76.1,639.3,75.8z M641.5,71.6
		c-0.3,0.6-0.7,0.8-1.1,0.6c-0.3,0-0.5-0.1-0.7-0.4c-0.1-0.2-0.2-0.4-0.4-0.2V72c0.1,0.3,0.3,0.6,0.4,0.9c0,0.5,0.3,0.9,0.7,1.1
		c0.3,0.2,0.4,0.5,0.3,0.9C641.8,74.2,641.5,72.9,641.5,71.6L641.5,71.6z M639.7,78.3l-0.4-0.2c0,0-0.1,0.1,0,0.1
		c0,0.1,0.1,0.2,0.2,0.3C639.6,78.4,639.6,78.4,639.7,78.3L639.7,78.3z M639.8,67.7c-0.1,0-0.2,0-0.2,0c0-0.1,0-0.1,0.1-0.2
		L639.8,67.7L639.8,67.7z M640,75.2c-0.1-0.2-0.2-0.4-0.2-0.6c-0.1,0.1-0.2,0-0.2,0.1c-0.1,0.1,0.1,0.5,0.3,0.6
		C639.9,75.3,640,75.2,640,75.2L640,75.2z M639.9,67.7c0,0,0,0.1,0,0.1L639.9,67.7z M640.8,60.2c-0.1-0.2-0.1-0.2-0.2-0.3
		c-1.3-0.6-0.5,1.1,0.1,0.6C640.8,60.4,640.8,60.3,640.8,60.2z M640.5,57.3l-0.3-0.1c0,0.1,0,0.2,0,0.2c0.1,0,0.2,0.1,0.3,0.1
		C640.4,57.5,640.4,57.4,640.5,57.3L640.5,57.3z M641.3,62.9c-0.2-0.5-0.3-0.4-0.7-0.5c-0.3,0.4-0.5,0.5-0.4,0.7
		c0.2,0.2,0.4,0.1,0.6-0.1c0-0.1,0.2,0,0.3,0C641.2,62.9,641.3,62.9,641.3,62.9L641.3,62.9z M640.6,70.9c-0.1-0.1-0.2-0.2-0.2-0.2
		c-0.2,0.2-0.2-0.1-0.1,1.4C640.5,71.7,640.8,71.3,640.6,70.9L640.6,70.9z M643.4,78.6l0.2-0.2c0.3-0.1,0.4-0.3,0.3-0.5
		c-0.4-0.4-0.7-0.2-1.8,0.1c-0.7,0.2-0.6-0.4-1.3-1.4c0-0.1-0.3-0.1-0.4,0s-0.2,0.2-0.2,0.3c0.2,0.3,0.4,0.6,0.5,0.9
		C641.2,78.7,640.9,78.6,643.4,78.6L643.4,78.6z M641,65.4c-0.7,0.2-0.8,1-0.2,0.9c0.3,0,0.5-0.5,0.5-0.8
		C641.1,65.5,641,65.4,641,65.4z M640.6,75.3c0,0.1,0.2,0.1,0.2,0.1c0-0.3,0.1-0.1-0.2-0.6C640.6,75,640.6,75.2,640.6,75.3
		L640.6,75.3z M641.7,58.6c-0.1,0-0.3-0.1-0.4-0.2c0,0-0.1,0.1-0.1,0.1l0.3,0.4C641.6,58.8,641.6,58.8,641.7,58.6L641.7,58.6z
		 M641.7,66.9c-0.2,0.5-0.3,0.3,0.1,0.8C642.1,67.4,642.2,67.6,641.7,66.9z M642,75.1c0.5,0.1,0.1-0.4,0.3-0.7c0-0.1,0-0.3,0-0.5
		c-0.1,0-0.1-0.1-0.2-0.1l-0.2,0.3C641.9,74.5,641.6,75,642,75.1z M642.1,72.9c0.2-0.2,0.1,0,0.5-0.4c-0.1-0.2-0.1-0.4-0.3-0.4
		c-0.3-0.1-0.3,0.2-0.4,0.4L642.1,72.9L642.1,72.9z M643.2,72.7c-0.1-0.1-0.3-0.1-0.4-0.1c0.1,0.1,0.2,0.2,0.3,0.3l0.1-0.1
		L643.2,72.7L643.2,72.7z M643.1,68.7c-0.2,0.2-0.2,0.1-0.1,0.4C643.2,69.1,643.2,69.2,643.1,68.7z M643.6,76.1
		c-0.2,0-0.1-0.1-0.2,0.2C643.5,76.3,643.5,76.4,643.6,76.1z M644.3,79.4c0-0.1-0.2-0.1-0.2-0.1c-0.2,0.3-0.4,0.7-0.5,0.9
		c0,0.1,0.7,0.5,0.8,0.5C644.4,80.3,644.3,79.8,644.3,79.4z"/>
	<path class="st4" d="M679.7,72.6c1.5,1.1,1.5,1,0.4,2.5c-3.6,4.8-8.9,7.2-14.7,7.6c-1,0.1-1.9,0.1-2.4-0.9c0-0.1-0.3,0-0.3,0.1
		c-0.3,1-1,0.5-3.4-0.3c-3.5-1.1-7-3.7-9.1-7.7c-5.9-11.8,3.3-24.7,16.4-23.9c1.7,0.1,3.3,0.2,4.9,0.7c3.1,1,3.1,1.7,4.1,2.3
		c2.4,1.7,2.9,4.2,2.4,7c-0.8,4.8-8.5,8.1-13.2,8.6c-1.7,0.2-4.1,0.3-4.1,0.3c-0.5,0.1-0.7,0.4-0.6,0.8c1.1,4.3,4.8,7.4,11.1,7.3
		c0.1,0,0.3,0,0.4-0.1c1.7-0.7,3.4-1.1,4.8-2.4C679,72.2,678.8,71.9,679.7,72.6L679.7,72.6z M650.5,64.4c0,0.1,0.2,0.1,0.2,0.1
		c0-0.1,0.1-0.2,0.2-0.3l-0.2-0.2L650.5,64.4L650.5,64.4z M650.6,66.5c0,0,0.2,0,0.2-0.1c0-0.1-0.1-0.1-0.1-0.2c-0.1,0-0.1,0-0.1,0
		C650.6,66.4,650.6,66.5,650.6,66.5z M651.2,67.8l0.1-0.2c-0.1-0.1-0.6-0.2-0.6,0.2c0,0.1,0.1,0.2,0.1,0.4
		C651,68.1,651.1,68,651.2,67.8L651.2,67.8z M658.3,65.2c-0.3-0.3-0.9-0.4-1.2-0.8c-0.5-0.6,0.8-1.3-0.1-2.1
		c-0.2-0.2-0.6-0.4-0.9-0.2c-0.5,0.3-0.9,0.5-1.5,0.2c-0.2-0.1-0.4,0.1-0.4,0.3c-0.1,0.7,0.3,1.1,0.7,1.6l-0.2,0.3
		c-0.3,0.4-0.7,0.4-1,0.1c-0.2-0.2-0.5-0.9-2-1.8c0.6,1.2,0.6,1.2,0.5,1.5c-0.3,0.6-0.2,0.7,0.4,0.8c0.2,0,0.5,0,0.5,0.1
		c0.2,0.2,0.3,0.6,0.4,0.9c0,0.2-0.3,0.4-0.4,0.6c-0.2-0.1-0.3-0.2-0.4-0.4c-0.1-0.1-0.2-0.7-0.5-0.6c-0.8,0.3-0.5,0.3-0.7,1.8
		c0.2-0.2,0.4-0.5,0.9-0.3c0.4,0.2,0.6,0.5,0.7,0.8h0l-0.1,0.4c0.1,1,0.9,1.6,1.4,2.3c0.1,0.1,0.4,0,0.5,0.1
		c0.1,0.8,0.1,1.1,0.8,0.9c0.1,0,0.2,0,0.2-0.2c0-0.2-0.2-0.3-1-0.8c0-0.8,0.4-1.3,1.2-1.6c0.3-0.1,0.5-0.2,0.7-0.4
		c0,0,0-0.1,0.1-0.1v0.1c0.6-0.3,0.7-0.8,1-1.2c0.5-0.7-1.2-0.9-0.3-1.7C657.9,65.7,658.3,65.6,658.3,65.2L658.3,65.2z M652.2,68.6
		c-0.3,0.3-0.3,0.1,0,0.5C652.3,68.9,652.4,69,652.2,68.6z M652.4,70c0,0.3-0.1,0.2,0.1,0.5c0-0.1,0-0.2,0-0.3
		C652.5,70.2,652.4,70.1,652.4,70L652.4,70z M654.1,73c-0.1-0.1-0.3-0.2-0.5-0.2c-0.4,0.1-0.8,0.6-0.7,1c0.1,0.4,0.5,0.1,0.7,0.2
		l0.6,0.1C654.2,73.7,654.2,73.4,654.1,73z M653.2,68.1c0,0-0.1,0-0.1,0h0c0,0,0,0,0-0.1L653.2,68.1L653.2,68.1z M653.7,71.3
		L653.7,71.3c-0.6,0.5-0.6,0.4-0.5,0.7C653.3,72.1,653.9,71.8,653.7,71.3L653.7,71.3z M653.2,68.1c0.9,0.1,0.7,0.1,0.9,0.3
		C653.7,68.5,654,68.7,653.2,68.1z M654.5,66.5c0.1,0,0.1,0.1,0.2,0.1c0,0.1-0.1,0.2-0.2,0.3c-0.1-0.1-0.1-0.1-0.1-0.2
		C654.4,66.6,654.5,66.6,654.5,66.5z M654.7,61.5c0,0,0.3,0.1,0.3,0c0.1-0.2,0.2-0.5,0.3-0.8C654.5,60.8,654.3,61,654.7,61.5
		L654.7,61.5z M655.3,64.4c0.1,0,0,0.2,0.1,0.4c-0.3-0.2-0.3,0.1-0.5-0.6C655,64.3,655.1,64.3,655.3,64.4L655.3,64.4z M655.6,67.5
		C655.6,67.6,655.6,67.6,655.6,67.5c0.1,0.1,0,0.2,0,0.2C655.6,67.6,655.6,67.6,655.6,67.5L655.6,67.5z M656.3,61.2l0.7,0.4
		c0.1-0.1,0.2-0.2,0.2-0.2c-0.3-0.5,0.2-0.5,0.5-0.7c0.2-0.1,0.4-0.2,0.3-0.5c-0.1-0.3-0.5-0.2-0.7-0.2c-0.5,0.1-0.9,0.5-1.1,1
		C656.3,61.1,656.3,61.2,656.3,61.2L656.3,61.2z M656.7,65.9c0,0,0.1,0,0.2,0.1l-0.1,0.2c0-0.1-0.1-0.2-0.1-0.2
		C656.6,66,656.7,65.9,656.7,65.9L656.7,65.9z M657,69l-0.2-0.1c0,0.1-0.1,0.1-0.1,0.2c-0.1,0.2-0.1,0.4,0.2,0.6
		C657.1,69.8,657.4,69.5,657,69z M657.4,72.9l-0.2-0.1c0,0,0,0,0,0.1c0,0,0,0.1,0,0.1L657.4,72.9L657.4,72.9z M659.7,65.1
		c0.5,0.3,1,0.4,1.6,0.3c1.6-0.1,3.2-0.3,4.7-0.8c3.2-1.2,5.1-3.4,5.2-6.7c0.1-2.1-1.6-4.2-3.7-4.3c-0.9-0.1-1.8,0-2.7,0.1
		c-0.7,0.1-0.8,0.3-3.1,2.8c-0.9,1.9-1.9,3.8-1.9,6c0,0.7-0.1,1.3-0.6,1.7l-0.4,0.6c-0.1-0.5-0.3-0.7-0.7-0.8c0-0.7,0-0.5-0.2-0.6
		c0,0.1-0.1,0,0.2,0.6l0.7,0.8C659.1,65,659.4,65,659.7,65.1L659.7,65.1z M658.5,58.9c-0.1-0.2,0-0.2-0.3-0.1
		C658.3,59,658.2,59,658.5,58.9z M658.5,68.7c0-0.1,0-0.2-0.1-0.2c0,0,0,0.1,0,0.1C658.5,68.7,658.5,68.7,658.5,68.7L658.5,68.7z
		 M659.4,66.2l-0.3-0.3c-0.1,0.1-0.2,0.2-0.2,0.3c0,0.1,0.2,0.1,0.3,0.2C659.3,66.4,659.4,66.3,659.4,66.2L659.4,66.2z M663.5,52.5
		c0.1,0,0.2,0.2,0.3,0.1c0.1,0,0.1-0.2,0.2-0.3C663.7,52.2,663.8,52.1,663.5,52.5L663.5,52.5z M667.4,79.5c-0.1,0-0.2-0.1-0.3-0.1
		l0,0.1l0.2,0.1L667.4,79.5L667.4,79.5z M668.8,77.8c-0.1-0.1-0.1-0.1-0.2-0.2c0,0.2-0.1,0.1,0.1,0.3
		C668.7,77.8,668.7,77.8,668.8,77.8L668.8,77.8z M671.3,78.8c0.1,0.1,0.1,0.2,0.1,0.2C671.5,78.8,671.5,78.9,671.3,78.8z
		 M672.2,62.3c0.2,0,0.1,0.1,0.2-0.2c0,0-0.1,0-0.1,0L672.2,62.3L672.2,62.3z M673.9,76.8c-0.1-0.1-0.2-0.1-0.3-0.2
		c-0.1,0.1-0.1,0.2-0.2,0.3c0.1,0,0.2,0.1,0.3,0.1L673.9,76.8L673.9,76.8z M674.8,61.7c0.1,0,0.1,0.1,0.2,0.2
		c0.1-0.1,0.2-0.2,0.2-0.2c0,0-0.1-0.2-0.2-0.2C674.9,61.6,674.8,61.6,674.8,61.7L674.8,61.7z M675,59.5c0-0.1,0.2-0.1,0.2-0.1
		c0,0-0.1,0-0.1-0.1C674.9,59.4,674.9,59.4,675,59.5L675,59.5z"/>
	<path class="st3" d="M15.5,468h791.8c8.3,0,15,6.7,15,15v26.1c0,8.3-6.7,15-15,15H15.5c-8.3,0-15-6.7-15-15V483
		C0.5,474.7,7.2,468,15.5,468z"/>
	<g>
		<defs>
			<path id="SVGID_00000140695165719987917160000008284549887391644807_" d="M814,517H22.3c-8.3,0-15-6.7-15-15v-26.1
				c0-8.3,6.7-15,15-15H814c8.3,0,15,6.7,15,15V502C829,510.3,822.3,517,814,517z"/>
		</defs>
		<clipPath id="SVGID_00000011010075132009505570000007807520232562292661_">
			<use xlink:href="#SVGID_00000140695165719987917160000008284549887391644807_"  style="overflow:visible;"/>
		</clipPath>
		<g style="clip-path:url(#SVGID_00000011010075132009505570000007807520232562292661_);">
			
				<linearGradient id="SVGID_00000014630310329323121130000017701833363425319092_" gradientUnits="userSpaceOnUse" x1="7.265" y1="37.035" x2="829.015" y2="37.035" gradientTransform="matrix(1 0 0 -1 0 526)">
				<stop  offset="0" style="stop-color:#DDFFBD"/>
				<stop  offset="1" style="stop-color:#BBFF80"/>
			</linearGradient>
			<path style="fill:url(#SVGID_00000014630310329323121130000017701833363425319092_);" d="M815.5,460.9H20.7
				c-7.4,0-13.5,6-13.5,13.5v29.2c0,7.4,6,13.5,13.5,13.5h794.8c7.4,0,13.5-6,13.5-13.5v-29.2C829,466.9,823,460.9,815.5,460.9
				L815.5,460.9L815.5,460.9z"/>
		</g>
	</g>
	<path class="st7" d="M814,517.5H22.3c-8.6,0-15.5-7-15.5-15.5v-26.1c0-8.5,6.9-15.5,15.5-15.5H814c8.5,0,15.5,7,15.5,15.5V502
		C829.5,510.6,822.6,517.5,814,517.5L814,517.5z M22.3,461.4c-8,0-14.5,6.5-14.5,14.5V502c0,8,6.5,14.5,14.5,14.5H814
		c8,0,14.5-6.5,14.5-14.5v-26.1c0-8-6.5-14.5-14.5-14.5L22.3,461.4L22.3,461.4z"/>
	<path class="st0" d="M26.8,489.4c0-6.9,5.3-12.2,12.3-12.2c4.4,0,8.1,2.1,10.3,5.3l-2.7,1.7c-1.6-2.4-4.3-4-7.6-4
		c-5.2,0-9.1,4-9.1,9.2s3.9,9.2,9.1,9.2c3.2,0,6-1.5,7.6-4l2.7,1.7c-2.2,3.2-5.9,5.3-10.3,5.3C32,501.6,26.8,496.4,26.8,489.4
		L26.8,489.4z"/>
	<path class="st0" d="M51.6,492.5c0-5.2,4-9.1,9.3-9.1s9.2,3.9,9.2,9.1s-4,9.1-9.2,9.1S51.6,497.7,51.6,492.5z M67.1,492.5
		c0-3.6-2.7-6.3-6.2-6.3c-3.5,0-6.2,2.7-6.2,6.3s2.7,6.3,6.2,6.3C64.5,498.8,67.1,496.1,67.1,492.5z"/>
	<path class="st0" d="M101.3,490v11.2h-2.9v-10.4c0-2.8-1.8-4.6-4.5-4.6s-4.7,1.8-4.7,4.6v10.3h-2.9v-10.4c0-2.8-1.8-4.6-4.5-4.6
		s-4.7,1.8-4.7,4.6v10.3H74v-17.4h2.9v2.4c1.3-1.8,3.2-2.8,5.7-2.8c2.7,0,4.8,1.3,5.8,3.4c1.3-2.2,3.5-3.4,6.3-3.4
		C98.7,483.4,101.3,486,101.3,490L101.3,490z"/>
	<path class="st0" d="M104.9,492.5c0-5.2,4-9.1,9.3-9.1s9.2,3.9,9.2,9.1s-4,9.1-9.2,9.1S104.9,497.7,104.9,492.5z M120.4,492.5
		c0-3.6-2.7-6.3-6.2-6.3s-6.2,2.7-6.2,6.3s2.7,6.3,6.2,6.3S120.4,496.1,120.4,492.5z"/>
	<path class="st0" d="M134.6,492.5c0-5.2,4-9.1,9.3-9.1c3.4,0,6.4,1.7,7.9,4.4l-2.6,1.5c-1.1-1.8-3-3.1-5.4-3.1
		c-3.6,0-6.2,2.7-6.2,6.3s2.7,6.3,6.2,6.3c2.4,0,4.3-1.2,5.4-3.1l2.6,1.5c-1.6,2.7-4.5,4.4-7.9,4.4
		C138.6,501.6,134.6,497.7,134.6,492.5L134.6,492.5z"/>
	<path class="st0" d="M154.1,492.5c0-5.2,4-9.1,9.3-9.1s9.2,3.9,9.2,9.1s-4,9.1-9.2,9.1S154.1,497.7,154.1,492.5z M169.6,492.5
		c0-3.6-2.7-6.3-6.2-6.3s-6.2,2.7-6.2,6.3s2.7,6.3,6.2,6.3S169.6,496.1,169.6,492.5z"/>
	<path class="st0" d="M192.7,490.4v10.8h-2.9v-9.8c0-3.1-2-5.1-5.1-5.1s-5.3,2.1-5.3,5.2v9.8h-2.9v-17.4h2.9v2.7
		c1.4-2,3.6-3.1,6.3-3.1C189.9,483.4,192.8,486.2,192.7,490.4L192.7,490.4z"/>
	<path class="st0" d="M214.8,483.8v23.9h-2.9v-9.6c-1.5,2.2-3.9,3.5-6.8,3.5c-5,0-8.7-3.9-8.7-9.1s3.7-9.1,8.7-9.1
		c2.9,0,5.3,1.4,6.8,3.5v-3.1H214.8z M211.9,492.5c0-3.6-2.7-6.3-6.2-6.3s-6.2,2.7-6.2,6.3s2.7,6.3,6.2,6.3S211.9,496.1,211.9,492.5
		z"/>
	<path class="st0" d="M219.5,494.3v-10.5h2.9v10.1c0,2.9,2,4.9,4.9,4.9s4.9-1.9,4.9-4.9v-10.1h2.9v10.5c0,4.4-3.1,7.3-7.9,7.3
		S219.5,498.7,219.5,494.3L219.5,494.3z"/>
	<path class="st0" d="M239.5,478.4c0-1.1,0.9-2,2-2s1.9,0.8,1.9,2s-0.9,1.9-1.9,1.9S239.5,479.5,239.5,478.4z M240,483.8h2.9v17.4
		H240V483.8z"/>
	<path class="st0" d="M246.5,498.9l1.6-2.1c1.3,1.3,3.1,2.2,5.4,2.2s4-0.9,4-2.5c0-1.7-1.9-2.2-4.2-2.7c-2.9-0.7-6.2-1.6-6.2-5.2
		c0-3.4,3.1-5.1,6.6-5.1c2.8,0,4.9,1.1,6.4,2.4l-1.6,2.1c-1.2-1.1-2.8-1.9-4.7-1.9c-2,0-3.7,0.8-3.7,2.3c0,1.7,2,2.2,4.3,2.7
		c2.9,0.7,6.2,1.5,6.2,5.1s-3.1,5.4-7,5.4C250.5,501.6,248.1,500.4,246.5,498.9L246.5,498.9z"/>
	<path class="st0" d="M268.6,486.5v9.6c0,1.9,1,2.7,2.8,2.7c1,0,1.7-0.3,2.4-0.6v2.8c-0.9,0.5-1.8,0.7-3,0.7c-3.4,0-5.1-1.8-5.1-5
		v-10.1h-3.1v-2.7h3.1v-4.7h2.9v4.7h5.2v2.7L268.6,486.5L268.6,486.5z"/>
	<path class="st0" d="M294.2,483.8v17.4h-2.9v-3.1c-1.5,2.2-3.9,3.5-6.8,3.5c-5,0-8.7-3.9-8.7-9.1s3.7-9.1,8.7-9.1
		c2.9,0,5.3,1.4,6.8,3.5v-3.1L294.2,483.8L294.2,483.8z M291.3,492.5c0-3.6-2.7-6.3-6.2-6.3s-6.2,2.7-6.2,6.3s2.7,6.3,6.2,6.3
		S291.3,496.1,291.3,492.5z"/>
	<path class="st0" d="M308.6,483.5v3h-0.6c-3.7,0-5.9,2.3-5.9,5.9v8.7h-2.9v-17.4h2.9v3c1.3-2.1,3.3-3.3,5.9-3.3L308.6,483.5
		L308.6,483.5z"/>
	<path class="st0" d="M318.9,498.9l1.6-2.1c1.3,1.3,3.1,2.2,5.4,2.2s4-0.9,4-2.5c0-1.7-1.9-2.2-4.2-2.7c-2.9-0.7-6.2-1.6-6.2-5.2
		c0-3.4,3.1-5.1,6.6-5.1c2.8,0,4.9,1.1,6.4,2.4l-1.6,2.1c-1.2-1.1-2.8-1.9-4.7-1.9c-2,0-3.7,0.8-3.7,2.3c0,1.7,2,2.2,4.3,2.7
		c2.9,0.7,6.2,1.5,6.2,5.1s-3.1,5.4-7,5.4C322.9,501.6,320.5,500.4,318.9,498.9L318.9,498.9z"/>
	<path class="st0" d="M336.4,494.3v-10.5h2.9v10.1c0,2.9,2,4.9,5,4.9s5-1.9,5-4.9v-10.1h2.9v10.5c0,4.4-3.1,7.3-7.9,7.3
		S336.4,498.7,336.4,494.3z"/>
	<path class="st0" d="M374.2,483.8v17.4h-2.9v-3.1c-1.5,2.2-3.9,3.5-6.8,3.5c-5,0-8.7-3.9-8.7-9.1s3.7-9.1,8.7-9.1
		c2.9,0,5.3,1.4,6.8,3.5v-3.1L374.2,483.8L374.2,483.8z M371.3,492.5c0-3.6-2.7-6.3-6.2-6.3s-6.2,2.7-6.2,6.3s2.7,6.3,6.2,6.3
		S371.3,496.1,371.3,492.5z"/>
	<path class="st0" d="M387.1,478.4c0-1.1,0.9-2,2-2s1.9,0.8,1.9,2s-0.9,1.9-1.9,1.9S387.1,479.5,387.1,478.4z M387.6,483.8h2.9v17.4
		h-2.9V483.8z"/>
	<path class="st0" d="M411.7,490.4v10.8h-2.9v-9.8c0-3.1-2-5.1-5.1-5.1s-5.3,2.1-5.3,5.2v9.8h-2.9v-17.4h2.9v2.7
		c1.4-2,3.5-3.1,6.3-3.1C408.9,483.4,411.8,486.2,411.7,490.4L411.7,490.4z"/>
	<path class="st0" d="M433.8,476.6v24.6h-2.9v-3.1c-1.5,2.2-3.9,3.5-6.8,3.5c-5,0-8.7-3.9-8.7-9.1s3.7-9.1,8.7-9.1
		c2.9,0,5.3,1.4,6.8,3.5v-10.3L433.8,476.6L433.8,476.6z M430.9,492.5c0-3.6-2.7-6.3-6.2-6.3s-6.2,2.7-6.2,6.3s2.7,6.3,6.2,6.3
		S430.9,496.1,430.9,492.5z"/>
	<path class="st0" d="M455.8,493.8h-15c0.6,3,3.1,5.1,6.5,5.1c2.6,0,4.7-1.2,5.9-2.8l2,1.7c-1.7,2.3-4.6,3.8-8,3.8
		c-5.5,0-9.5-4-9.5-9.2s3.9-9,9.1-9s9.1,3.9,9.1,9.1C455.9,492.9,455.9,493.4,455.8,493.8L455.8,493.8z M440.8,491.1h12
		c-0.5-3-2.9-5-6-5S441.4,488.2,440.8,491.1L440.8,491.1z"/>
	<path class="st0" d="M478.1,492.5c0,5.2-3.8,9.1-8.7,9.1c-2.9,0-5.3-1.4-6.8-3.5v9.6h-2.9v-23.9h2.9v3.1c1.5-2.2,3.9-3.5,6.8-3.5
		C474.3,483.4,478.1,487.3,478.1,492.5z M475,492.5c0-3.6-2.7-6.3-6.2-6.3s-6.2,2.7-6.2,6.3s2.7,6.3,6.2,6.3S475,496.1,475,492.5z"
		/>
	<path class="st0" d="M499,493.8h-15c0.6,3,3.1,5.1,6.5,5.1c2.6,0,4.7-1.2,5.9-2.8l2,1.7c-1.7,2.3-4.6,3.8-8,3.8
		c-5.5,0-9.5-4-9.5-9.2s3.9-9,9.1-9s9.1,3.9,9.1,9.1C499.1,492.9,499,493.4,499,493.8L499,493.8z M484,491.1h12c-0.5-3-2.9-5-6-5
		S484.5,488.2,484,491.1L484,491.1z"/>
	<path class="st0" d="M519.1,490.4v10.8h-2.9v-9.8c0-3.1-2-5.1-5.1-5.1s-5.3,2.1-5.3,5.2v9.8h-2.9v-17.4h2.9v2.7
		c1.4-2,3.5-3.1,6.3-3.1C516.3,483.4,519.1,486.2,519.1,490.4L519.1,490.4z"/>
	<path class="st0" d="M541.2,476.6v24.6h-2.9v-3.1c-1.5,2.2-3.9,3.5-6.8,3.5c-5,0-8.7-3.9-8.7-9.1s3.7-9.1,8.7-9.1
		c2.9,0,5.3,1.4,6.8,3.5v-10.3L541.2,476.6L541.2,476.6z M538.2,492.5c0-3.6-2.7-6.3-6.2-6.3s-6.2,2.7-6.2,6.3s2.7,6.3,6.2,6.3
		S538.2,496.1,538.2,492.5z"/>
	<path class="st0" d="M563.2,493.8h-15c0.6,3,3.1,5.1,6.5,5.1c2.6,0,4.7-1.2,5.9-2.8l2,1.7c-1.7,2.3-4.6,3.8-8,3.8
		c-5.5,0-9.5-4-9.5-9.2s3.9-9,9.1-9s9.1,3.9,9.1,9.1C563.2,492.9,563.2,493.4,563.2,493.8L563.2,493.8z M548.2,491.1h12
		c-0.5-3-2.9-5-6-5S548.7,488.2,548.2,491.1L548.2,491.1z M551.9,481.5h-2.8l3.4-4.4h3.6l3.5,4.4h-2.8l-2.4-2.8L551.9,481.5
		L551.9,481.5z"/>
	<path class="st0" d="M583.3,490.4v10.8h-2.9v-9.8c0-3.1-2-5.1-5.1-5.1s-5.3,2.1-5.3,5.2v9.8H567v-17.4h2.9v2.7
		c1.4-2,3.5-3.1,6.3-3.1C580.4,483.4,583.3,486.2,583.3,490.4L583.3,490.4z"/>
	<path class="st0" d="M586.9,492.5c0-5.2,4-9.1,9.3-9.1c3.5,0,6.4,1.7,8,4.4l-2.6,1.5c-1.1-1.8-3-3.1-5.4-3.1
		c-3.6,0-6.2,2.7-6.2,6.3s2.7,6.3,6.2,6.3c2.3,0,4.3-1.2,5.4-3.1l2.6,1.5c-1.6,2.7-4.5,4.4-8,4.4
		C590.9,501.6,586.9,497.7,586.9,492.5L586.9,492.5z"/>
	<path class="st0" d="M607.1,478.4c0-1.1,0.8-2,2-2s1.9,0.8,1.9,2s-0.8,1.9-1.9,1.9S607.1,479.5,607.1,478.4z M607.7,483.8h2.9v17.4
		h-2.9V483.8z"/>
	<path class="st0" d="M632.9,483.8v17.4h-2.9v-3.1c-1.5,2.2-3.9,3.5-6.8,3.5c-5,0-8.7-3.9-8.7-9.1s3.7-9.1,8.7-9.1
		c2.9,0,5.3,1.4,6.8,3.5v-3.1L632.9,483.8L632.9,483.8z M629.9,492.5c0-3.6-2.7-6.3-6.2-6.3s-6.2,2.7-6.2,6.3s2.7,6.3,6.2,6.3
		S629.9,496.1,629.9,492.5z"/>
	<path class="st0" d="M653.2,476.2c1.2,0,2.1,0.2,3,0.7v2.6c-0.7-0.4-1.4-0.6-2.4-0.6c-1.8,0-2.8,0.8-2.8,2.7v2.2h5v2.7h-5v14.7
		h-2.9v-14.7h-3.2v-2.7h3.2v-2.4C648.1,478.1,649.9,476.2,653.2,476.2L653.2,476.2z M659.1,478.4c0-1.1,0.8-2,2-2s2,0.8,2,2
		s-0.8,1.9-2,1.9S659.1,479.5,659.1,478.4z M659.6,483.8h2.9v17.4h-2.9V483.8z"/>
	<path class="st0" d="M683.8,490.4v10.8h-2.9v-9.8c0-3.1-2-5.1-5.1-5.1s-5.3,2.1-5.3,5.2v9.8h-2.9v-17.4h2.9v2.7
		c1.4-2,3.5-3.1,6.3-3.1C681,483.4,683.8,486.2,683.8,490.4L683.8,490.4z"/>
	<path class="st0" d="M705.9,483.8v17.4H703v-3.1c-1.5,2.2-3.9,3.5-6.8,3.5c-5,0-8.7-3.9-8.7-9.1s3.7-9.1,8.7-9.1
		c2.9,0,5.3,1.4,6.8,3.5v-3.1L705.9,483.8L705.9,483.8z M703,492.5c0-3.6-2.7-6.3-6.2-6.3s-6.2,2.7-6.2,6.3s2.7,6.3,6.2,6.3
		S703,496.1,703,492.5z"/>
	<path class="st0" d="M727.1,490.4v10.8h-2.9v-9.8c0-3.1-2-5.1-5.1-5.1s-5.3,2.1-5.3,5.2v9.8h-2.9v-17.4h2.9v2.7
		c1.4-2,3.5-3.1,6.3-3.1C724.3,483.4,727.2,486.2,727.1,490.4L727.1,490.4z"/>
	<path class="st0" d="M730.8,492.5c0-5.2,4-9.1,9.3-9.1c3.5,0,6.4,1.7,8,4.4l-2.6,1.5c-1.1-1.8-3-3.1-5.4-3.1
		c-3.6,0-6.2,2.7-6.2,6.3s2.7,6.3,6.2,6.3c2.3,0,4.3-1.2,5.4-3.1l2.6,1.5c-1.6,2.7-4.5,4.4-8,4.4
		C734.7,501.6,730.8,497.7,730.8,492.5L730.8,492.5z"/>
	<path class="st0" d="M768.4,493.8h-15c0.6,3,3.1,5.1,6.5,5.1c2.6,0,4.7-1.2,5.9-2.8l2,1.7c-1.7,2.3-4.6,3.8-8,3.8
		c-5.5,0-9.5-4-9.5-9.2s3.9-9,9.1-9s9.1,3.9,9.1,9.1C768.5,492.9,768.4,493.4,768.4,493.8L768.4,493.8z M753.4,491.1h12
		c-0.5-3-2.9-5-6-5S753.9,488.2,753.4,491.1L753.4,491.1z"/>
	<path class="st0" d="M771.7,478.4c0-1.1,0.8-2,2-2s1.9,0.8,1.9,2s-0.8,1.9-1.9,1.9S771.7,479.5,771.7,478.4z M772.2,483.8h2.9v17.4
		h-2.9V483.8z"/>
	<path class="st0" d="M789.5,483.5v3H789c-3.7,0-5.9,2.3-5.9,5.9v8.7h-2.9v-17.4h2.9v3c1.3-2.1,3.3-3.3,5.9-3.3L789.5,483.5
		L789.5,483.5z"/>
	<path class="st0" d="M809.3,483.8v17.4h-2.9v-3.1c-1.5,2.2-3.9,3.5-6.8,3.5c-5,0-8.7-3.9-8.7-9.1s3.7-9.1,8.7-9.1
		c2.9,0,5.3,1.4,6.8,3.5v-3.1L809.3,483.8L809.3,483.8z M806.3,492.5c0-3.6-2.7-6.3-6.2-6.3s-6.2,2.7-6.2,6.3s2.7,6.3,6.2,6.3
		S806.3,496.1,806.3,492.5z"/>
</g>
</svg>
