<?xml version="1.0" encoding="UTF-8"?><svg id="Layer_2" xmlns="http://www.w3.org/2000/svg" viewBox="0 0 363.86 316"><defs><style>.cls-1{fill:#fff;}.cls-2{fill:#80a85a;}</style></defs><g id="Camada_1"><path class="cls-1" d="m23.15,291.93c1.41.21,2.8.34,4.17.42.07,2.18.38,4.33.92,6.43,2.08,8.08,8.36,14.21,16.78,16.41,8.11,2.11,16.68.06,22.9-5.47,4.17-3.68,7.27-10.1,8.9-17.03,1.53,3.76,4.01,7.01,7.32,9.42,6.18,4.49,14.4,5.27,21.98,2.1,7.73-3.24,13.78-9.98,16.53-18.46,2.5-7.73,2.02-15.58-1.41-23.37.11-.08.21-.17.31-.25.65-.52,1.48-1.18,2.07-1.59,4.6.69,9.06.5,13.24.06,2.9,5.18,7.75,9.25,13.71,11,9.69,2.82,20.13.15,27.93-7.15.23-.22.46-.44.65-.63,6.38-6.29,8.44-15.48,5.5-24.58-3.14-9.72-10.81-16.42-19.59-17.08-.38-.03-.76-.06-1.15-.1-1.74-.17-4.3-.42-7.23-.09.65-1.26,1.28-2.57,1.92-3.92,1.15-2.44,2.07-4.88,2.84-7.27,5.53,4.4,12.68,7.06,19.08,6.33,4.01-.43,7.65-2.15,10.81-5.11.21-.2.41-.4.66-.64,7.95-7.99,10.94-24.93,2.73-33.98-3.57-3.94-6.12-9-9.06-15.16-.52-1.11-.82-1.96-.98-2.62.77-.97,1.58-2.16,2.28-3.59.15-.3.31-.6.48-.91.3.45.62.9.94,1.34,3.37,4.58,9.15,7.5,15.87,8.02,6.69.52,13.13-1.43,17.67-5.37.86-.74,1.65-1.58,2.36-2.47,5.2,7.99,14.26,11.74,25.34,10.33,5.75-.75,11.08-3.28,15.41-7.34,3.27-3.06,5.92-6.91,7.91-11.54,1.79-4.24,2.53-8.53,2.23-12.63,6.35,0,12.97-1.91,19.28-5.66,1.7-1.01,3.28-2.19,4.68-3.5,3.58-3.35,7.9-9.37,8.14-18.96.07-3-.49-8.91-5.26-13.71,2.57-2.49,5.07-5.06,7.47-7.68,1.79,4.82,5.25,8.72,10.06,11,9.06,4.32,22.08,1.79,30.28-5.89,1.02-.96,1.96-1.99,2.8-3.09,7.11-9.31,7.93-23.06,1.86-31.29-3.74-5.09-8.57-7.04-13.21-7.52.3-.33.59-.66.89-.99,3.15-3.56,5.64-7.15,8.04-10.63,2.54-3.67,4.93-7.13,7.56-9.61,8.57-8.02,5.94-16.69,4.92-19.16l-.71-1.72c-2.82-6.88-11.38-9.23-17.32-4.77l-2.25,1.69c-1.44,1.08-2.85,2.27-4.21,3.54-4.99,4.67-8.62,9.86-11.82,14.44-2.17,3.1-4.22,6.04-6.39,8.37-1.33,1.43-2.66,2.85-3.99,4.27-2.86-2.96-5.96-4.92-8.57-6.57-1-.63-1.94-1.23-2.7-1.77-6.36-4.61-15.1-3.81-21.26,1.96-1.62,1.52-2.99,3.32-4.04,5.33-3.44,6.52-4.58,12.35-4.47,17.32-5.56.76-11.22,3.48-15.97,7.93-.88.83-1.73,1.71-2.5,2.6-3.45,3.99-8.45,12.42-3.19,24.05.89,1.98,2.05,3.73,3.42,5.22-5.77,2.84-11.51,5.18-17.16,6.99-1.59.51-3.21.97-4.87,1.41.02-.19.04-.39.05-.58,1.18-15.2-6.77-21.96-13.64-24.96-8.53-3.72-17.8-3.43-27.61.91-2.19.98-4.2,2.31-5.97,3.97-5.55,5.19-8.06,12.95-6.56,20.27.93,4.49,3.01,8.45,6.03,11.6-.33,1.56-.59,3.29-.65,5.14-.63.33-1.24.7-1.84,1.12-2.94,1.61-5.72,3.63-8.28,6.03-3.67,3.44-6.47,7.21-8.9,10.77-9.7-2.17-20.09-3.42-31.55-.13-8.5,2.44-14.62,7.98-17.46,15.61-2.85,7.62-1.49,15.63,3.72,22.03-5.83-1.92-12.36-1.7-17.65.69-.24.11-.49.21-.74.31-1.93.79-5.15,2.12-8.14,4.92-3.22,3.02-5.3,6.92-6.01,11.29-1.24,7.71,1.1,14.69,6.57,19.82-1.38.86-2.68,1.87-3.9,3-4.73,4.43-7.33,10.23-7.38,16.24-2.9-1.63-6.21-2.64-9.8-2.93-8.05-.65-16.62,2.48-22.91,8.37-1.36,1.28-2.61,2.68-3.7,4.15-1.78,2.4-2.99,5.02-3.64,7.72-7.4-2.85-15.72-3.08-24.8-.66-4,1.05-7.79,3.18-10.98,6.16-9.34,8.75-11.71,22.27-5.48,31.49,5.76,8.46,14.82,9.81,19.69,10.53Zm110.21-112.74c.82.33,1.68.62,2.58.88-.58-.05-1.16-.1-1.73-.15-.14-.01-.28-.02-.42-.04-.14-.23-.28-.46-.43-.68Z"/><path class="cls-2" d="m194.79,90.67c.86,3.63,2.99,6.38,6.12,8.14,1.88,1.04,2.3,2.19,1.95,4.06-.6,3.09-1.75,6.23-1.55,9.26.42,6.1-.55,10.79-7.64,11.82-.33.04-.59.42-.91.59-7.64,3.64-11.62,10.75-15.91,17.35-2.05,3.19-3.88,3.37-7.13,2.45-10-2.83-20.04-5.27-30.62-2.54-3.98,1.03-6.57,3.02-7.82,6.64-1.23,3.56-.13,6.85,2.28,9.73,4.55,5.43,10.43,6.94,17.23,6.14,5.29-.65,9.86-2.94,14.39-5.81-1.77,2.32-2.53,5.02-3.65,7.49-3.9,8.65-7.97,17.26-10.43,26.49-.33,1.27-.86,1.62-2,1.2-6.66-2.44-13.69-2.71-20.6-3.74-2.13-.32-3.93-1.73-4.37-3.63-1.46-6.19-10.06-8.2-14.28-6.39-2.67,1.13-5.95,1.8-6.44,5.58-.51,3.99,1,7.12,4.01,9.58,4.77,3.92,11.75,3.46,16.05-1,.67-.68,1.08-1.81,2.22-1.61,7.25,1.3,14.68,1.47,21.73,3.7,1.46.45,3.3,1.52,2.58,3.71-2.58,7.75-4.46,15.8-9.41,22.59-.95,1.29-1.62,1.8-3.23,1.12-8.07-3.41-16.67-5.17-24.92-8.14-5.61-2.03-13.5,2.56-12.37,9.54,1.21,7.51,12.8,15.53,19.97,12.67,3.81-1.53,7.79-2.56,11.91-3.87-.09.73-.06,1.02-.18,1.18-.53.66-1.08,1.32-1.7,1.88-9.24,8.4-19.38,15.48-30.84,20.58-.95.41-2.2,1.55-3,.77-3.78-3.63-9.05-5.84-10.64-11.59-.66-2.39-1.62-4.85-3-6.9-5.35-7.93-17.27-6.02-22.63,1.39-2.37,3.27-1.43,7.37,1.51,10.21,4.44,4.31,13.55,4.81,19.56.91,1.41-.91,2.11-1.27,3.48.14,2.42,2.51,5.17,4.67,8.35,7.48-5.49,1.69-10.25,3.55-15.16,4.56-6.82,1.38-14.03,2.68-20.37-1.01-4.45-2.61-9.18-4.69-13.48-7.51-6.64-4.33-13.84-4.73-21.22-2.98-7.12,1.66-11.33,11.38-7.46,16.98,2.79,4.02,7.24,5,11.71,5.81,5.02.91,10.08.6,15.12-.03,1.3-.15,2.92-.6,3.74.59.64.94-.73,1.9-1.13,2.86-1.86,4.45-2.63,9.04-1.27,13.78,2.24,7.82,12.85,11.25,18.7,6.07,4.56-4.04,6.67-19.88,3.36-25.11-.1-.17-.21-.31-.32-.42l-.4-4.6c1.21.02,2.46.02,3.68-.16,7.07-1.03,13.82-2.91,20.64-4.83,4.54-1.26,8.75-3.47,13.64-4.58-.3.59-.39.84-.54,1.01-.3.36-.63.72-1.01,1.02-5.97,4.92-8.65,11.46-9.25,18.99-.71,8.51,6.27,14.6,13.68,11.68,4.2-1.65,6.91-5.19,8.19-9.55,1.99-6.77-.15-12.88-3.72-18.54-2.74-4.36-2.75-7.46,1.71-9.72,5.65-2.9,9.43-9.45,17.6-7.81,6.19,1.25,12.76.2,19.14-.43,1.31-.13,3.21-1.03,3.1,1.93-.17,5.07,3.53,9.89,8.29,11.44,6,1.93,11.49-.08,15.18-3.76,6.03-5.96-.66-19.16-7.57-19.9-3.85-.4-8.44-1.65-10.95,2.39-2.13,3.39-4.68,4.6-8.42,4.97-6.56.66-13.06,1.19-20.04.23,4-4.92,7.38-9.54,10.92-14.01,4.32-5.43,7.57-11.41,10.32-17.65,3.57-8.06,4.15-16.97,6.8-25.34,2.96-9.32,7.53-17.78,11.94-26.41.35-.7.57-1.78,1.64-1.69,1.14.08,1.06,1.25,1.21,1.98,1.17,5.53,3.84,10.43,6.58,15.21,1.57,2.74,2.02,3.51-1.56,5.2-7.06,3.31-9.11,3.86-7.32,11.74,1.11,4.95,10.09,11.2,15.1,10.78,1.24-.09,2.02-.71,2.79-1.48,3.4-3.43,4.51-12.42,1.28-15.97-5.22-5.74-8.68-12.48-12.06-19.25-1.99-4.02-3.36-8.43-2.56-13.24.42-2.52,2.65-3.32,3.54-5.27,2.1-4.51,5.17-8.43,8.03-12.46,3.18-4.46,7.26-7.93,13.42-9.93-.32.86-.54,1.3-.65,1.78-1.87,7.03.46,13.1,4.56,18.64,2.8,3.74,11.07,4.57,14.44,1.67,2.8-2.42,2.79-9.53-.3-12.87-3.11-3.37-6.54-6.45-9.78-9.7-1.09-1.08-2.2-2.28.16-3.26,6.16-2.52,12.29-5.04,19.01-5.67.88-.08,1.59-.12,2.29.58,4.07,4.02,9.08,6.75,13.91,9.71,3.54,2.17,3.5,2.27.44,5.12-4.64,4.32-5.91,10.23-3.39,15.04,3.09,5.94,8.49,7.37,14.37,6.81,5.96-.59,9.75-4.8,11.84-10.02,1.32-3.35,1.59-7.25-.35-10.76-2.78-4.98-7.19-6.77-12.7-6.56-1.89.08-3.77.49-5.65-.56-4.64-2.56-9.34-5.01-13.61-8.18-.67-.52-1.56-1.07-1.42-1.95.17-1.01,1.26-.96,2.07-1.08,7.69-1.19,15.11-3.26,22.25-6.3,1.33-.57,2.73-.95,4.07-1.51,1.44-.6,2.27-.07,2.86,1.27,5.47,12.52,17.27,17.74,30.15,10.34,4.17-2.4,5.53-6.22,5.49-10.68-.04-4.43-3.34-6.32-6.82-7.46-5.26-1.71-10.69-2.74-16.22-.54,2.42-1.62,5.1-2.74,7.34-4.45,8.89-6.83,17.03-14.49,24.29-23.08.96-1.14,1.98-1.84,3.71-1.73,4.32.28,8.67.32,13.01.27,2.34-.03,3.22.43,2.74,3.11-.88,5.02,1.04,9.13,4.57,10.89,4.85,2.44,13.07.39,16.43-4.1,3.26-4.37,3.7-11.95.88-15.71-2.59-3.46-6.45-3.5-13.3-1.64-2.96.79-4.27,3.63-7.02,4.04-4.29.65-8.66.55-12.99.44-1.07-.04-1.86-.37-2.22-1.47-.37-1.11.18-1.86.87-2.57,2.7-2.78,4.98-5.89,7.43-8.86,4.78-5.73,9.96-11.16,14.87-16.78,5.94-6.78,9.75-15.2,16.4-21.48.92-.86,2.03-2.1,1.21-3.97-8.98,6.64-13.11,17.02-20.33,24.85-7.2,7.82-14.63,15.44-21.22,23.97-.14-2.74.14-5.21.55-7.66.59-3.58.24-6.73-2.07-9.9-3.14-4.28-7.77-6.42-11.8-9.41-1.73-1.29-3.93-.57-5.1,1.77-2.93,5.84-3.64,11.92-.68,17.78,2.7,5.35,5.8,10.67,11.4,13.72,1.34.72,1.83,1.45.62,2.72-5.74,6.02-10.82,12.69-17.71,17.54-.88.63-1.98,1.55-2.9,1.05-1.17-.66-.61-2.2-.62-3.35,0-.55.29-1.17.61-1.68,1.96-3.29,2.48-7.04,3.33-10.66,1.1-4.64-1.14-9.41-4.8-11.02-4.23-1.88-10.01.29-13.92,4.89-2.77,3.25-2.02,6.62-.5,9.82,1.4,2.95,4.17,4.65,7.44,3.99,3.99-.79,4.38,1.53,4.58,4.34.1,1.45.19,2.88.22,4.34.03,2-.36,3.52-2.44,4.74-10.23,6-20.98,10.89-32.32,14.2-13,3.79-26.81,4.6-39.32,10.38-1.87.87-2.36-.19-2.43-1.78-.17-4.17.6-8.16,1.87-12.11.53-1.63,1.25-1.19,2.42-.74,2.1.8,4.22,1.99,6.61,1.25,3.95-1.24,7.82-6.3,8-10.35.31-6.83-1.81-10.73-6.86-13.06-5.81-2.69-11.52-2.15-17.21.22-3.28,1.38-4.8,5.14-3.98,8.65Z"/></g></svg>