<?xml version="1.0" encoding="UTF-8"?><svg id="Layer_2" xmlns="http://www.w3.org/2000/svg" xmlns:xlink="http://www.w3.org/1999/xlink" viewBox="0 0 105.61 105.9"><defs><style>.cls-1{fill:url(#linear-gradient);}.cls-2{fill:#232323;}.cls-3{fill:#1a1a1a;}</style><linearGradient id="linear-gradient" x1="55.61" y1="99" x2="55.61" y2="1" gradientTransform="translate(111.21 100) rotate(180)" gradientUnits="userSpaceOnUse"><stop offset="0" stop-color="#ddacc2"/><stop offset="1" stop-color="#af478e"/></linearGradient></defs><g id="Camada_1"><rect class="cls-2" x="0" y="5.9" width="100" height="100" rx="6" ry="6"/><rect class="cls-3" x="5.61" y="0" width="100" height="100" rx="6" ry="6" transform="translate(111.21 100) rotate(-180)"/><rect class="cls-1" x="6.61" y="1" width="98" height="98" rx="5" ry="5" transform="translate(111.21 100) rotate(-180)"/><path class="cls-2" d="m100.01,83.4c-3.87,2.45-8.52,4.1-13.65,4.1-16.09,0-25.56-8.28-29.26-17.12l-6.63-15.93h-17.35l-.71,1.97.08-.24c-3,8.52-1.74,10.25,1.42,10.65v3.55H13.01l.47-3.55c2.52-.39,5.92-2.37,8.52-9.86l-1.89,5.44L36.67,15.18h15.07l23.03,55.21c3.31,7.89,9.23,11.59,14.28,11.59,4.1,0,6.31-.95,8.6-2.68l2.37,4.1Zm-51.74-34.15l-7.26-17.43-6.07,17.43h13.33Z"/></g></svg>