<?xml version="1.0" encoding="UTF-8"?><svg id="Layer_2" xmlns="http://www.w3.org/2000/svg" viewBox="0 0 215.62 143.14"><defs><style>.cls-1{fill:#f4d4bf;}.cls-2{fill:#ed9564;}.cls-3{fill:#fff;}.cls-4{fill:#fbb03b;}</style></defs><g id="Camada_1"><path class="cls-3" d="m144.1,143.14c-13.46,0-26.7-7.34-35.43-19.65-.29-.41-.58-.83-.86-1.25-.28.42-.57.84-.86,1.25-8.73,12.3-21.97,19.64-35.43,19.64-.31,0-.63,0-.94-.01-14.44-.36-27.8-9.84-32.49-23.07-3.11-8.77-1.56-17.65,1.38-25.2-3.38-.2-6.6-.84-9.62-1.89-8.23-2.89-15.61-8.96-20.78-17.08-4.51-7.08-7.25-15.61-8.36-26.1-.98-9.25-1.5-20.04,2.06-29.93C5.8,11.51,11.69,5,18.95,2c3.22-1.33,6.69-2,10.35-2,7.39,0,14.24,2.76,18.75,4.84,16.42,7.55,30.36,18.73,42.99,29.76,1.17-.31,2.42-.48,3.71-.48,2.59,0,5.29.68,7.72,1.9,1.41-3.15,3.59-6.85,7.04-9.67,1.44-2.34,3.74-4.12,6.46-4.86l.11-.03c.29-.08.59-.14.88-.19.13-.03.58-.14.58-.14l.19-.04c.65-.12,1.31-.18,1.97-.18,3.04,0,5.91,1.31,7.85,3.6,1.35,1.58,2.21,3.43,2.58,5.34,11.16-9.41,23.4-18.54,37.46-25.01,4.51-2.08,11.36-4.84,18.74-4.84,3.65,0,7.13.67,10.34,1.99,7.27,3,13.16,9.51,16.17,17.87,3.56,9.89,3.04,20.68,2.06,29.93-1.11,10.49-3.85,19.02-8.36,26.11-5.16,8.12-12.54,14.18-20.76,17.07-3.03,1.06-6.25,1.69-9.63,1.9,2.94,7.55,4.48,16.43,1.38,25.2-4.68,13.22-18.04,22.71-32.49,23.06-.3,0-.62.01-.93.01Z"/><path d="m107.78,79.5c1.08,13.13-.87,27.46-8.66,38.43-6.39,9.01-16.93,15.88-28.28,15.59-10.16-.25-20.24-6.97-23.67-16.67-4.12-11.63,3.46-24.75,10.37-34.23-7.97,2.25-16.46,4.1-24.49,1.28-6.65-2.34-12.1-7.29-15.85-13.17-4.18-6.56-6.1-14.28-6.91-21.95-.88-8.29-1.32-17.69,1.55-25.66,1.89-5.25,5.54-10.07,10.8-12.24,7.04-2.9,14.87-.32,21.41,2.69,15.29,7.04,28.7,17.77,41.29,28.79,10.79,9.44,21.78,21.44,21.82,36.49.31.03.61.25.65.65Zm-8.36,34.55c5.69-9.76,7.08-20.94,7-32.03-.08,0-.15-.02-.23-.04-2.38,16.75-9.55,35.66-27.32,40.94-8.08,2.4-17.88,1.02-24.42-4.54-5.41-4.6-6.14-11.34-4.93-17.79-1.72,4.91-2.35,9.97-.92,14.75,3.09,10.3,14.08,16.93,24.54,16.27,11.02-.7,20.84-8.26,26.27-17.57Zm6.17-33.81c.02-.16.11-.27.23-.33-.13-3.04-.66-5.92-1.49-8.67.04,2.62-.63,5.4-1.02,7.78-.88,5.21-2.27,10.37-4.46,15.2-3.97,8.72-10.89,16.27-20.11,19.47-7.14,2.49-17.56,2.35-22.03-4.85-4.02-6.46-1.8-16.15,1.23-23.61-2.55,3.61-5.12,7.68-7.03,11.95-2.15,8.76-1.62,17.84,7.29,22.78,7.55,4.19,16.91,4.29,24.63.52,15.22-7.46,20.74-24.59,22.77-40.23Zm-3.63,1.14c.84-4.14,2.71-10.63.34-14.53-.04-.06-.05-.13-.06-.19-5.43-9.12-14.99-15.92-23.9-21.23-10.17-6.06-22.75-10.73-34.74-8.33-13.19,2.64-17.81,16.85-13.3,28.53,4.64,12.03,17.62,17.04,29.62,14.17.23-.05.35.17.29.34.5.21.86.83.48,1.32-.38.51-.78,1.04-1.17,1.58-2.91,7.51-6.12,17.01-2.6,24.39,4.24,8.88,16.82,7.79,24.25,4.35,7.71-3.58,13.43-10.37,16.9-18,1.79-3.95,3.03-8.15,3.89-12.38Zm-1.5-18.93c-.55-.93-1.12-1.85-1.73-2.74-7.88-8.22-16.38-15.75-25.7-22.32-4.74-3.34-9.62-6.47-14.67-9.3-5.79-3.24-12.31-6.37-19.12-5.75-14.43,1.32-19.02,17.5-17.72,29.62.72,6.72,2.53,13.56,6,19.39,2.86,4.82,8.02,10.59,13.87,12.13,4.7.09,9.4-.93,13.96-2.18-8.39.97-17.27-2.61-22.42-9.37-5.42-7.11-6.75-17.19-3.06-25.37,3.98-8.8,13.24-11.28,22.23-10.83,11.09.56,21.51,5.32,30.65,11.38,6.41,4.25,12.97,9.13,17.71,15.32Zm-5.22-7.41c-4.1-4.96-8.97-9.44-13.84-13.6-10.73-9.19-21.98-18-34.6-24.45-6.65-3.4-14.85-7.21-22.44-4.77-7.29,2.35-10.99,9.9-12.15,16.96-2.23,13.7-.49,31.12,7.9,42.54,3.95,5.39,9.58,9.73,16.18,11.19.77.16,1.55.29,2.32.38-7.97-3.22-13.54-13.4-15.78-20.73-2.94-9.65-4.04-21.32,1.06-30.43,4.55-8.11,12.95-12.21,22.12-10.21,10.93,2.38,21.35,10.09,30.17,16.64,6.74,5,13.13,10.51,19.05,16.48Z"/><path class="cls-4" d="m106.43,82.02c.07,11.09-1.31,22.27-7,32.03-5.43,9.31-15.24,16.87-26.27,17.57-10.46.66-21.45-5.97-24.54-16.27-1.43-4.78-.8-9.84.92-14.75-1.21,6.45-.48,13.19,4.93,17.79,6.54,5.56,16.33,6.94,24.42,4.54,17.78-5.28,24.94-24.2,27.32-40.94.08.02.15.04.23.04Z"/><path class="cls-2" d="m105.82,79.91c-.12.06-.2.17-.23.33-2.02,15.64-7.54,32.77-22.77,40.23-7.72,3.78-17.08,3.67-24.63-.52-8.9-4.94-9.44-14.02-7.29-22.78,1.91-4.26,4.48-8.33,7.03-11.95-3.03,7.46-5.25,17.15-1.23,23.61,4.47,7.2,14.89,7.34,22.03,4.85,9.22-3.21,16.14-10.75,20.11-19.47,2.2-4.82,3.59-9.98,4.46-15.2.4-2.38,1.06-5.16,1.02-7.78.83,2.75,1.35,5.63,1.49,8.67Z"/><path class="cls-1" d="m102.31,66.84c2.36,3.9.49,10.4-.34,14.53-.86,4.24-2.1,8.44-3.89,12.38-3.47,7.63-9.19,14.42-16.9,18-7.43,3.44-20.01,4.53-24.25-4.35-3.52-7.38-.3-16.88,2.6-24.39.39-.54.79-1.07,1.17-1.58.38-.49.02-1.11-.48-1.32.06-.16-.05-.39-.29-.34-12,2.88-24.98-2.13-29.62-14.17-4.51-11.68.11-25.88,13.3-28.53,11.99-2.4,24.57,2.27,34.74,8.33,8.9,5.31,18.47,12.11,23.9,21.23,0,.06.02.13.06.19Zm-2.27,3.83c.02-.15-.12-.21-.24-.2-.13-.11-.32-.16-.52-.05-4.79,2.65-10.18,3.31-15.24,5.25-4.02,1.53-7.77,3.86-10.83,6.9-4.84,4.81-8.28,13.32-2.6,18.94,5.87,5.81,14.89.73,19.36-4.23,6.52-7.22,8.91-17.19,10.07-26.6Zm-3.65-5.1c.18-.08.3-.31.11-.48-4.49-4.11-8.86-8.87-14.03-12.13-5.21-3.29-11.89-4.96-17.89-6.08-9.37-1.76-21.62-.32-25.4,9.98-3.49,9.48,4.97,16.84,13.81,17.72,7.07.7,14.25-1.51,21.08-3.02,7.23-1.6,14.47-3.21,21.69-4.84.08.03.16.02.23-.05.09-.02.18-.05.27-.06.41-.09.38-.6.09-.78.02-.08.03-.16.03-.25Z"/><path d="m99.79,70.47c.13,0,.27.05.24.2-1.16,9.41-3.55,19.38-10.07,26.6-4.48,4.96-13.49,10.04-19.36,4.23-5.68-5.62-2.24-14.13,2.6-18.94,3.06-3.03,6.81-5.36,10.83-6.9,5.07-1.94,10.45-2.6,15.24-5.25.2-.11.38-.06.52.05Zm-7.58,22.41c4.21-6.51,5.71-14.04,7.24-21.5-6.23,3.32-13.52,3.75-19.67,7.33-6.49,3.78-14.38,12.05-10.01,20.15,5.63,10.41,18.4.29,22.44-5.98Z"/><path class="cls-2" d="m98.74,59.71c.61.9,1.18,1.81,1.73,2.74-4.74-6.19-11.3-11.07-17.71-15.32-9.14-6.07-19.56-10.82-30.65-11.38-8.98-.45-18.25,2.02-22.23,10.83-3.7,8.18-2.36,18.26,3.06,25.37,5.15,6.75,14.03,10.34,22.42,9.37-4.57,1.25-9.26,2.28-13.96,2.18-5.85-1.54-11.01-7.31-13.87-12.13-3.47-5.83-5.28-12.67-6-19.39-1.3-12.13,3.29-28.3,17.72-29.62,6.82-.63,13.34,2.51,19.12,5.75,5.05,2.83,9.93,5.96,14.67,9.3,9.33,6.57,17.82,14.1,25.7,22.32Z"/><path class="cls-4" d="m99.45,71.39c-1.53,7.46-3.03,14.99-7.24,21.5-4.04,6.27-16.82,16.39-22.44,5.98-4.37-8.1,3.53-16.36,10.01-20.15,6.14-3.58,13.44-4.01,19.67-7.33Z"/><path d="m96.49,65.09c.19.17.07.41-.11.48,0,.09,0,.17-.03.25.29.18.33.69-.09.78-.09.02-.18.04-.27.06-.06.06-.15.08-.23.05-7.22,1.63-14.46,3.24-21.69,4.84-6.82,1.51-14.01,3.72-21.08,3.02-8.84-.88-17.3-8.24-13.81-17.72,3.78-10.3,16.03-11.73,25.4-9.98,6,1.13,12.67,2.79,17.89,6.08,5.17,3.26,9.54,8.01,14.03,12.13Zm-.69.73c.04-.13.09-.26.16-.38-3.69-3.19-7.28-6.57-11.09-9.62-4.39-3.51-9.53-5.26-14.89-6.72-9.94-2.69-24.81-4.21-29.71,7.53-2.46,5.91.2,11.79,5.62,14.82,5.38,3,11.68,2.53,17.52,1.45,10.84-2.02,21.6-4.75,32.38-7.09Z"/><path class="cls-4" d="m95.97,65.45c-.08.12-.13.24-.16.38-10.78,2.35-21.54,5.07-32.38,7.09-5.84,1.09-12.14,1.56-17.52-1.45-5.42-3.03-8.08-8.91-5.62-14.82,4.89-11.74,19.77-10.22,29.71-7.53,5.36,1.45,10.5,3.21,14.89,6.72,3.81,3.05,7.4,6.43,11.09,9.62Z"/><path class="cls-4" d="m81.4,41.44c4.87,4.16,9.73,8.64,13.84,13.6-5.92-5.97-12.31-11.48-19.05-16.48-8.82-6.55-19.24-14.25-30.17-16.64-9.16-2-17.57,2.1-22.12,10.21-5.11,9.12-4,20.79-1.06,30.43,2.24,7.33,7.8,17.5,15.78,20.73-.77-.09-1.55-.22-2.32-.38-6.6-1.46-12.23-5.8-16.18-11.19-8.39-11.42-10.12-28.85-7.9-42.54,1.16-7.07,4.85-14.62,12.15-16.96,7.58-2.44,15.79,1.37,22.44,4.77,12.63,6.46,23.87,15.26,34.6,24.45Z"/><path d="m108.49,78.85c.04-15.05,11.03-27.05,21.82-36.49,12.59-11.02,25.99-21.76,41.29-28.79,6.54-3.01,14.37-5.59,21.41-2.69,5.26,2.17,8.9,7,10.8,12.24,2.87,7.97,2.42,17.37,1.55,25.66-.81,7.67-2.73,15.39-6.91,21.95-3.74,5.89-9.19,10.84-15.85,13.17-8.04,2.81-16.52.97-24.49-1.28,6.9,9.48,14.49,22.61,10.37,34.23-3.43,9.69-13.52,16.42-23.67,16.67-11.35.29-21.89-6.57-28.28-15.59-7.79-10.98-9.74-25.3-8.66-38.43.04-.4.34-.62.65-.65Zm33.98,52.76c10.46.66,21.45-5.97,24.54-16.27,1.43-4.78.8-9.84-.92-14.75,1.21,6.45.48,13.19-4.93,17.79-6.54,5.56-16.33,6.94-24.42,4.54-17.78-5.28-24.94-24.2-27.32-40.94-.08.02-.15.04-.23.04-.07,11.09,1.31,22.27,7,32.03,5.43,9.31,15.24,16.87,26.27,17.57Zm-9.67-11.15c7.72,3.78,17.08,3.67,24.63-.52,8.9-4.94,9.44-14.02,7.29-22.78-1.91-4.26-4.48-8.33-7.03-11.95,3.03,7.46,5.25,17.15,1.23,23.61-4.47,7.2-14.89,7.34-22.03,4.85-9.22-3.21-16.14-10.75-20.11-19.47-2.2-4.82-3.59-9.98-4.46-15.2-.4-2.38-1.06-5.16-1.02-7.78-.83,2.75-1.35,5.63-1.49,8.67.12.06.2.17.23.33,2.02,15.64,7.54,32.77,22.77,40.23Zm-15.25-26.71c3.47,7.63,9.19,14.42,16.9,18,7.43,3.44,20.01,4.53,24.25-4.35,3.52-7.38.3-16.88-2.6-24.39-.39-.54-.79-1.07-1.17-1.58-.38-.49-.02-1.11.48-1.32-.06-.16.05-.39.29-.34,12,2.88,24.98-2.13,29.62-14.17,4.51-11.68-.11-25.88-13.3-28.53-11.99-2.4-24.57,2.27-34.74,8.33-8.9,5.31-18.47,12.11-23.9,21.23,0,.06-.02.13-.06.19-2.36,3.9-.49,10.4.34,14.53.86,4.24,2.1,8.44,3.89,12.38Zm15.32-46.63c9.14-6.07,19.56-10.82,30.65-11.38,8.98-.45,18.25,2.02,22.23,10.83,3.7,8.18,2.36,18.26-3.06,25.37-5.15,6.75-14.03,10.34-22.42,9.37,4.57,1.25,9.26,2.28,13.96,2.18,5.85-1.54,11.01-7.31,13.87-12.13,3.47-5.83,5.28-12.67,6-19.39,1.3-12.13-3.29-28.3-17.72-29.62-6.82-.63-13.34,2.51-19.12,5.75-5.05,2.83-9.93,5.96-14.67,9.3-9.33,6.57-17.82,14.1-25.7,22.32-.61.9-1.18,1.81-1.73,2.74,4.74-6.19,11.3-11.07,17.71-15.32Zm6.57-8.57c8.82-6.55,19.24-14.25,30.17-16.64,9.16-2,17.57,2.1,22.12,10.21,5.11,9.12,4,20.79,1.06,30.43-2.24,7.33-7.8,17.5-15.78,20.73.77-.09,1.55-.22,2.32-.38,6.6-1.46,12.23-5.8,16.18-11.19,8.39-11.42,10.12-28.85,7.9-42.54-1.16-7.07-4.85-14.62-12.15-16.96-7.58-2.44-15.79,1.37-22.44,4.77-12.63,6.46-23.87,15.26-34.6,24.45-4.87,4.16-9.73,8.64-13.84,13.6,5.92-5.97,12.31-11.48,19.05-16.48Z"/><path class="cls-4" d="m109.2,82.02c-.07,11.09,1.31,22.27,7,32.03,5.43,9.31,15.24,16.87,26.27,17.57,10.46.66,21.45-5.97,24.54-16.27,1.43-4.78.8-9.84-.92-14.75,1.21,6.45.48,13.19-4.93,17.79-6.54,5.56-16.33,6.94-24.42,4.54-17.78-5.28-24.94-24.2-27.32-40.94-.08.02-.15.04-.23.04Z"/><path class="cls-2" d="m109.81,79.91c.12.06.2.17.23.33,2.02,15.64,7.54,32.77,22.77,40.23,7.72,3.78,17.08,3.67,24.63-.52,8.9-4.94,9.44-14.02,7.29-22.78-1.91-4.26-4.48-8.33-7.03-11.95,3.03,7.46,5.25,17.15,1.23,23.61-4.47,7.2-14.89,7.34-22.03,4.85-9.22-3.21-16.14-10.75-20.11-19.47-2.2-4.82-3.59-9.98-4.46-15.2-.4-2.38-1.06-5.16-1.02-7.78-.83,2.75-1.35,5.63-1.49,8.67Z"/><path class="cls-1" d="m113.38,66.66c5.43-9.12,14.99-15.92,23.9-21.23,10.17-6.06,22.75-10.73,34.74-8.33,13.19,2.64,17.81,16.85,13.3,28.53-4.64,12.03-17.62,17.04-29.62,14.17-.23-.05-.35.17-.29.34-.5.21-.86.83-.48,1.32.38.51.78,1.04,1.17,1.58,2.91,7.51,6.12,17.01,2.6,24.39-4.24,8.88-16.82,7.79-24.25,4.35-7.71-3.58-13.43-10.37-16.9-18-1.79-3.95-3.03-8.15-3.89-12.38-.84-4.14-2.7-10.63-.34-14.53.04-.06.05-.13.06-.19Zm12.28,30.62c4.48,4.96,13.49,10.04,19.36,4.23,5.68-5.62,2.24-14.13-2.6-18.94-3.06-3.03-6.81-5.36-10.83-6.9-5.07-1.94-10.45-2.6-15.24-5.25-.2-.11-.38-.06-.52.05-.13,0-.27.05-.24.2,1.16,9.41,3.55,19.38,10.07,26.6Zm-6.39-31.45c-.29.18-.33.69.09.78.09.02.18.04.27.06.06.06.15.08.23.05,7.22,1.63,14.46,3.24,21.69,4.84,6.82,1.51,14.01,3.72,21.08,3.02,8.84-.88,17.3-8.24,13.81-17.72-3.78-10.3-16.03-11.73-25.4-9.98-6,1.13-12.67,2.79-17.89,6.08-5.17,3.26-9.54,8.01-14.03,12.13-.19.17-.07.41.11.48,0,.09,0,.17.03.25Z"/><path d="m116.35,70.42c4.79,2.65,10.18,3.31,15.24,5.25,4.02,1.53,7.77,3.86,10.83,6.9,4.84,4.81,8.28,13.32,2.6,18.94-5.87,5.81-14.89.73-19.36-4.23-6.52-7.22-8.91-17.19-10.07-26.6-.02-.15.12-.21.24-.2.13-.11.32-.16.52-.05Zm29.51,28.44c4.37-8.1-3.53-16.36-10.01-20.15-6.14-3.58-13.44-4.01-19.67-7.33,1.53,7.46,3.03,14.99,7.24,21.5,4.04,6.27,16.82,16.39,22.44,5.98Z"/><path class="cls-2" d="m116.89,59.71c-.61.9-1.18,1.81-1.73,2.74,4.74-6.19,11.3-11.07,17.71-15.32,9.14-6.07,19.56-10.82,30.65-11.38,8.98-.45,18.25,2.02,22.23,10.83,3.7,8.18,2.36,18.26-3.06,25.37-5.15,6.75-14.03,10.34-22.42,9.37,4.57,1.25,9.26,2.28,13.96,2.18,5.85-1.54,11.01-7.31,13.87-12.13,3.47-5.83,5.28-12.67,6-19.39,1.3-12.13-3.29-28.3-17.72-29.62-6.82-.63-13.34,2.51-19.12,5.75-5.05,2.83-9.93,5.96-14.67,9.3-9.33,6.57-17.82,14.1-25.7,22.32Z"/><path class="cls-4" d="m116.18,71.39c1.53,7.46,3.03,14.99,7.24,21.5,4.04,6.27,16.82,16.39,22.44,5.98,4.37-8.1-3.53-16.36-10.01-20.15-6.14-3.58-13.44-4.01-19.67-7.33Z"/><path d="m133.16,52.97c5.21-3.29,11.89-4.96,17.89-6.08,9.37-1.76,21.62-.32,25.4,9.98,3.49,9.48-4.97,16.84-13.81,17.72-7.07.7-14.25-1.51-21.08-3.02-7.23-1.6-14.47-3.21-21.69-4.84-.08.03-.16.02-.23-.05-.09-.02-.18-.05-.27-.06-.41-.09-.38-.6-.09-.78-.02-.08-.03-.16-.03-.25-.18-.08-.3-.31-.11-.48,4.49-4.11,8.86-8.87,14.03-12.13Zm19.04,19.95c5.84,1.09,12.14,1.56,17.52-1.45,5.42-3.03,8.08-8.91,5.62-14.82-4.89-11.74-19.77-10.22-29.71-7.53-5.36,1.45-10.5,3.21-14.89,6.72-3.81,3.05-7.4,6.43-11.09,9.62.08.12.13.24.16.38,10.78,2.35,21.54,5.07,32.38,7.09Z"/><path class="cls-4" d="m119.66,65.45c.08.12.13.24.16.38,10.78,2.35,21.54,5.07,32.38,7.09,5.84,1.09,12.14,1.56,17.52-1.45,5.42-3.03,8.08-8.91,5.62-14.82-4.89-11.74-19.77-10.22-29.71-7.53-5.36,1.45-10.5,3.21-14.89,6.72-3.81,3.05-7.4,6.43-11.09,9.62Z"/><path class="cls-4" d="m134.22,41.44c-4.87,4.16-9.73,8.64-13.84,13.6,5.92-5.97,12.31-11.48,19.05-16.48,8.82-6.55,19.24-14.25,30.17-16.64,9.16-2,17.57,2.1,22.12,10.21,5.11,9.12,4,20.79,1.06,30.43-2.24,7.33-7.8,17.5-15.78,20.73.77-.09,1.55-.22,2.32-.38,6.6-1.46,12.23-5.8,16.18-11.19,8.39-11.42,10.12-28.85,7.9-42.54-1.16-7.07-4.85-14.62-12.15-16.96-7.58-2.44-15.79,1.37-22.44,4.77-12.63,6.46-23.87,15.26-34.6,24.45Z"/><path d="m120.22,30.73c.63.74.74,1.89,0,2.6-.16.16-.38.28-.59.35-.15.32-.54.5-.93.3-.17-.08-.3-.19-.41-.31-8.83,6.62-10.51,20.53-9.97,31.01.61.38,1.11.92,1.4,1.61.42.98.48,2.43-.09,3.42.88,1.18,1.4,2.79,1.61,4.01.89,5-.28,10.84-1.67,15.63-.06.21-.18.37-.31.47,1.29,3.05,1.96,6.66,1.67,9.91-.16,1.77-.7,5.15-2.92,5.62-5.86,1.24-3.31-11.45-2.23-14.53-.2-.21-.31-.5-.24-.82.04-.18.09-.35.13-.52-1.16-3.09-2.06-6.15-2.49-9.44-.34-1.89-.51-3.81-.38-5.75.11-1.64.52-3.98,1.82-5.26-1.61-1.3-1.06-3.64.53-4.52-.49-3.29-1.08-6.55-2.02-9.76-.61-2.06-1.32-4.17-2.51-5.97-.74-1.13-1.81-2.37-3.02-3.03l-2.57-.81c-.91.71-1.84,1.42-2.75,2.13-.02.35-.12.7-.35.97-.03.04-.07.06-.1.09-.13.27-.38.48-.72.57-.38.09-.7-.05-.95-.29-.27-.13-.5-.32-.63-.63-.2-.48-.02-1.04.34-1.37.2-.44.57-.81,1.05-.94.2-.05.38-.02.55.05,1.56-3.08,6.5-1.76,8.8.57,4.25,4.32,5.54,11.95,5.8,18.1.15-.02.3-.04.46-.04.3,0,.6.05.89.13-.6-6.95.09-13.87,2.35-20.51,1.43-4.21,3.51-9.2,7.73-11.22-.05-.23-.04-.48.03-.7,0-.04,0-.07,0-.1.09-.49.48-.88.96-1.01.18-.05.34-.05.51-.02.15-.09.31-.16.48-.2.25-.05.56-.02.73.2Z"/></g></svg>