<?xml version="1.0" encoding="UTF-8"?><svg id="Layer_2" xmlns="http://www.w3.org/2000/svg" viewBox="0 0 200.61 172.53"><defs><style>.cls-1{fill:#ecd2e6;}.cls-2{fill:#fff;}.cls-3{fill:#ffb9eb;}.cls-4{fill:#af478e;}.cls-5{fill:#ddacc2;}</style></defs><g id="Camada_1"><path class="cls-2" d="m138.46,172.53c-1.81,0-3.6-.11-5.33-.32-12.12-1.51-22.82-8.96-29.97-20.69-.3.02-.6.03-.91.03-1.49,0-2.95-.27-4.33-.78-7.15,12.16-18.04,19.9-30.42,21.44-1.74.22-3.53.32-5.34.32-11.52,0-24.6-4.59-34.97-12.28-12.53-9.32-18.85-23.44-16.5-36.88,1.05-5.96,3.89-11.49,8.65-16.8-2.4-1.03-4.76-2.34-7.02-4C2.8,95.56-1.52,84.67.48,72.68c.72-4.31,1.92-8.24,2.97-11.71,1.68-5.53,3.01-9.9,2.36-14.5-.21-1.49-.51-3.08-.82-4.76-1.24-6.65-2.78-14.92.07-23.56C8.87,6.61,18.36,0,31.1,0c10.74,0,20.68,4.68,24.46,6.69,5.56,2.96,10.85,6.65,15.92,11.09.27-.4.56-.79.87-1.17.35-.48.72-.93,1.11-1.37,2.16-2.43,5.34-3.84,8.68-3.84,2.42,0,4.74.73,6.69,2.12l.2.14c.83.62,1.58,1.31,2.24,2.05,3.06,1.93,5.42,4.36,7.25,6.86,1.35-2.33,2.85-4.59,4.49-6.77.15-.32.32-.64.5-.95l.17-.28c2.22-3.59,6.16-5.82,10.28-5.82h.64l.93.11c2.47.34,4.78,1.44,6.66,3.15,1.8,1.46,3.17,3.4,3.94,5.62.27.79.45,1.59.56,2.39,5.81-5.47,11.92-9.89,18.38-13.33,3.78-2.01,13.72-6.69,24.46-6.69,12.74,0,22.22,6.61,26.03,18.14,2.85,8.64,1.31,16.92.08,23.56-.31,1.68-.61,3.27-.82,4.77-.65,4.59.68,8.96,2.36,14.49,1.06,3.47,2.25,7.41,2.97,11.71,2,11.99-2.31,22.88-11.85,29.9-2.25,1.66-4.61,2.97-7.01,4,4.76,5.31,7.6,10.83,8.65,16.79,2.36,13.45-3.96,27.57-16.49,36.88-10.38,7.7-23.46,12.29-34.98,12.29Z"/><path d="m84.61,50.3c9.64,14.96,18.04,32.25,15.52,50.5-.04.25-.19.39-.38.46-1.47,13.71-3.51,28.5-9.55,40.89-4.7,9.64-13.02,17.88-24.05,19.26-11.12,1.38-23.62-3.33-32.48-9.9-8.1-6.02-14.09-15.85-12.26-26.26.97-5.48,4.32-9.92,8.25-13.7,4.44-4.28,9.29-8.19,14.02-12.17-8.64.15-17.72-.28-24.9-5.57-6.33-4.66-8.84-11.65-7.56-19.34,1.72-10.27,6.9-18.75,5.37-29.53-1.1-7.7-3.74-15.66-1.19-23.39,5.15-15.62,24.1-11.08,35.03-5.26,14.4,7.68,25.44,20.46,34.17,34.01Zm14.3,45.91c.06-11.81-3.86-23.05-9.37-33.48-2.9-4.6-6.05-9.31-10.75-12.17-5.56-3.38-13.34-3.65-17.51,1.94-9.29,12.46-.24,30.31,12.62,35.56.29.12.52.47.31.78-2.9,4.34-5.99,8.9-6.6,14.21-.72,6.28,2.64,12.24,9.26,12.94,12.16,1.27,19.17-9.4,21.91-19.62.02-.07.07-.12.13-.16Zm-1.22,7.9c.05-.41.11-.81.16-1.21-.23.58-.48,1.16-.75,1.72-1.43,2.92-3.45,5.6-5.96,7.68-3.95,3.29-9.3,5.35-14.48,4.77-10.78-1.19-11.79-13.12-7.96-21.14.36-.76,1.05-1.74,1.73-2.74,1.22-1.85,2.35-3.83,1.25-4.95-1.59-1.6-4.37-2.5-6.16-4.08-4.05-3.6-6.92-8.43-8.09-13.72-1.95-8.87.49-22.15,11.34-23.31,6.16-.66,11.04,2.19,15.02,6.26-4.43-5.74-9.9-11.97-17.69-12-8.46-.03-15.17,8.96-16.71,16.56-2.61,12.91,6.76,31.85,20.5,34.29.38.07.46.51.3.8-.02.04-.04.06-.06.09-3.86,4.48-8.27,9.74-7.82,16.08.49,6.64,6.64,10.03,12.66,10.38,10.47.59,19.29-6.05,22.72-15.48Zm-.64,4.63c.06-.41.12-.81.18-1.22-4.13,8.84-14.19,14.46-24.18,12.93-11.82-1.81-14.44-13.09-8.25-22.31.82-1.24,1.89-2.32,2.7-3.56,1.12-1.7.93-1.42-.95-2.06-2.08-.73-3.97-1.84-5.68-3.21-4.44-3.54-7.68-8.6-9.93-13.77-4.93-11.32-3.8-25.03,7.08-32.55,8.56-5.92,16.65-1.01,22.83,5.44-6.88-10.11-15.1-19.62-25.24-26.53-5.42-2.73-11.29-3.99-17.4-1.29-11.39,5.03-11.86,20.38-1.96,27.17.32.22.35.7,0,.91-9.17,5.43-13.29,18.83-13.1,29,.12,6.5,2.65,12.63,8.46,15.95,4.64,2.66,10.17,3.25,15.4,3.51.33.02.48.28.47.53.27.41.3.96-.11,1.32-.26.22-.52.44-.8.66-6.27,8-11.17,17.07-9.61,27.64,1.62,11.04,9.39,18.19,20.06,20.55,5.63,1.24,12.06,2.1,17.62.19,5.37-1.85,9.58-6.2,12.46-10.96,5.11-8.46,7.29-18.87,9.95-28.35Zm-1.54,8.91c-2.35,8.97-5.07,18.17-11.17,24.92-7.96,8.84-19.65,8.76-30.39,5.59-21.08-6.25-22.18-30.71-10.55-45.9-10.07,8.02-22.68,17.34-19.72,31.22,2.94,13.72,17.08,21.66,29.68,24.83,27.18,6.85,37.55-17.67,42.15-40.66ZM34.36,21.64c5.03-3.94,10.9-4.29,16.51-2.69-6.08-3.47-13.12-6.45-20.25-6.12-9.65.43-14.38,7.88-14.18,16.98.16,7.61,3.18,14.93,2.62,22.59-.5,6.91-3.63,13.21-5.25,19.88-2.08,8.6.25,16.44,8.09,21.06,5.46,3.23,11.79,3.91,18.07,3.96-8.89-1.73-16.42-6.29-17.7-16.72-.81-6.56.88-13.72,3.25-19.84,1.09-2.82,2.46-5.55,4.35-7.93.71-.9,4.7-3.73,4.75-4.63.04-.69-3.9-4.31-4.52-5.4-1.35-2.38-2.13-5.12-2.18-7.85-.1-5.13,2.42-10.13,6.43-13.28Z"/><path class="cls-3" d="m89.54,62.72c5.51,10.43,9.43,21.67,9.37,33.48-.06.04-.12.09-.13.16-2.74,10.22-9.75,20.89-21.91,19.62-6.62-.7-9.98-6.67-9.26-12.94.61-5.31,3.7-9.87,6.6-14.21.21-.31-.02-.66-.31-.78-12.86-5.25-21.9-23.11-12.62-35.56,4.17-5.59,11.95-5.32,17.51-1.94,4.7,2.86,7.84,7.57,10.75,12.17Z"/><path class="cls-1" d="m97.84,102.89c-.05.4-.11.81-.16,1.21-3.43,9.43-12.24,16.07-22.72,15.48-6.02-.35-12.17-3.74-12.66-10.38-.45-6.34,3.96-11.6,7.82-16.08.03-.03.04-.05.06-.09l.23.15c-.67,1-1.36,1.97-1.73,2.74-3.83,8.02-2.82,19.96,7.96,21.14,5.18.58,10.54-1.48,14.48-4.77,2.51-2.08,4.53-4.76,5.96-7.68.27-.56.52-1.13.75-1.72Z"/><path class="cls-5" d="m97.22,107.51c-.05.41-.12.81-.18,1.22-2.66,9.48-4.84,19.88-9.95,28.35-2.88,4.76-7.09,9.11-12.46,10.96-5.56,1.91-11.99,1.05-17.62-.19-10.67-2.35-18.44-9.51-20.06-20.55-1.56-10.57,3.35-19.64,9.61-27.64.27-.22.54-.44.8-.66.41-.35.37-.91.11-1.32,0-.25-.14-.51-.47-.53-5.23-.27-10.77-.85-15.4-3.51-5.81-3.33-8.34-9.46-8.46-15.95-.19-10.17,3.93-23.58,13.1-29,.35-.21.32-.69,0-.91-9.91-6.79-9.43-22.14,1.96-27.17,6.11-2.7,11.98-1.43,17.4,1.29,10.14,6.91,18.36,16.42,25.24,26.53-6.18-6.45-14.27-11.36-22.83-5.44-10.88,7.52-12.01,21.22-7.08,32.55,2.26,5.17,5.49,10.23,9.93,13.77,1.72,1.37,3.6,2.49,5.68,3.21,1.88.65,2.07.36.95,2.06-.81,1.24-1.88,2.32-2.7,3.56-6.19,9.23-3.57,20.5,8.25,22.31,9.99,1.52,20.05-4.09,24.18-12.93Z"/><path class="cls-4" d="m84.33,142.56c6.1-6.76,8.83-15.95,11.17-24.92-4.6,22.99-14.97,47.52-42.15,40.66-12.6-3.18-26.74-11.11-29.68-24.83-2.97-13.87,9.65-23.2,19.72-31.22-11.62,15.18-10.53,39.65,10.55,45.9,10.74,3.18,22.43,3.25,30.39-5.59Z"/><path class="cls-1" d="m66.09,41.39c7.79.03,13.26,6.26,17.69,12-3.98-4.07-8.86-6.92-15.02-6.26-10.85,1.16-13.29,14.44-11.34,23.31,1.17,5.29,4.04,10.12,8.09,13.72,1.79,1.58,4.57,2.48,6.16,4.08,1.11,1.12-.03,3.1-1.25,4.95l-.23-.15c.16-.28.08-.73-.3-.8-13.75-2.43-23.12-21.38-20.5-34.29,1.53-7.61,8.24-16.59,16.71-16.56Z"/><path class="cls-4" d="m50.88,18.95c-5.61-1.6-11.48-1.25-16.51,2.69-4.01,3.15-6.52,8.15-6.43,13.28.04,2.74.83,5.47,2.18,7.85.62,1.09,4.55,4.71,4.52,5.4-.05.9-4.05,3.73-4.75,4.63-1.89,2.38-3.26,5.12-4.35,7.93-2.37,6.12-4.05,13.28-3.25,19.84,1.27,10.43,8.81,15,17.7,16.72-6.28-.04-12.61-.73-18.07-3.96-7.84-4.62-10.17-12.47-8.09-21.06,1.62-6.67,4.75-12.96,5.25-19.88.56-7.67-2.46-14.98-2.62-22.59-.19-9.1,4.53-16.55,14.18-16.98,7.13-.33,14.17,2.65,20.25,6.12Z"/><path d="m150.18,16.3c10.93-5.83,29.88-10.36,35.03,5.26,2.55,7.73-.09,15.69-1.19,23.39-1.52,10.77,3.66,19.26,5.37,29.53,1.28,7.68-1.23,14.68-7.56,19.34-7.18,5.29-16.25,5.72-24.9,5.57,4.73,3.98,9.57,7.9,14.02,12.17,3.93,3.77,7.29,8.22,8.25,13.7,1.82,10.41-4.16,20.24-12.26,26.26-8.86,6.57-21.36,11.28-32.48,9.9-11.02-1.37-19.34-9.61-24.05-19.26-6.04-12.39-8.08-27.18-9.55-40.89-.19-.07-.35-.21-.38-.46-2.52-18.25,5.88-35.54,15.52-50.5,8.73-13.55,19.77-26.33,34.17-34.01Zm-48.34,80.07c2.74,10.22,9.75,20.89,21.91,19.62,6.62-.7,9.98-6.67,9.26-12.94-.61-5.31-3.7-9.87-6.6-14.21-.21-.31.02-.66.31-.78,12.86-5.25,21.9-23.11,12.62-35.56-4.17-5.59-11.95-5.32-17.51-1.94-4.7,2.86-7.84,7.57-10.75,12.17-5.51,10.43-9.43,21.67-9.37,33.48.06.04.12.09.13.16Zm23.81,23.21c6.02-.35,12.17-3.74,12.66-10.38.45-6.34-3.96-11.6-7.82-16.08-.03-.03-.04-.05-.06-.09-.16-.28-.08-.73.3-.8,13.75-2.43,23.12-21.38,20.5-34.29-1.53-7.61-8.24-16.59-16.71-16.56-7.79.03-13.26,6.26-17.69,12,3.98-4.07,8.86-6.92,15.02-6.26,10.85,1.16,13.29,14.44,11.34,23.31-1.17,5.29-4.04,10.12-8.09,13.72-1.79,1.58-4.57,2.48-6.16,4.08-1.11,1.12.03,3.1,1.25,4.95.67,1,1.36,1.97,1.73,2.74,3.83,8.02,2.82,19.96-7.96,21.14-5.18.58-10.54-1.48-14.48-4.77-2.51-2.08-4.53-4.76-5.96-7.68-.27-.56-.52-1.13-.75-1.72.05.4.11.81.16,1.21,3.43,9.43,12.24,16.07,22.72,15.48Zm-12.13,17.5c2.88,4.76,7.09,9.11,12.46,10.96,5.56,1.91,11.99,1.05,17.62-.19,10.67-2.35,18.44-9.51,20.06-20.55,1.56-10.57-3.35-19.64-9.61-27.64-.27-.22-.54-.44-.8-.66-.41-.35-.37-.91-.11-1.32,0-.25.14-.51.47-.53,5.23-.27,10.77-.85,15.41-3.51,5.81-3.33,8.34-9.46,8.46-15.95.19-10.17-3.93-23.58-13.1-29-.35-.21-.32-.69,0-.91,9.91-6.79,9.43-22.14-1.96-27.17-6.11-2.7-11.98-1.43-17.4,1.29-10.14,6.91-18.36,16.42-25.24,26.53,6.18-6.45,14.27-11.36,22.83-5.44,10.88,7.52,12.01,21.22,7.08,32.55-2.26,5.17-5.49,10.23-9.93,13.77-1.72,1.37-3.6,2.49-5.68,3.21-1.88.65-2.07.36-.95,2.06.81,1.24,1.88,2.32,2.7,3.56,6.19,9.23,3.57,20.5-8.25,22.31-9.99,1.52-20.05-4.09-24.18-12.93.05.41.12.81.18,1.22,2.66,9.48,4.84,19.88,9.95,28.35Zm33.74,21.22c12.6-3.18,26.74-11.11,29.68-24.83,2.97-13.87-9.65-23.2-19.72-31.22,11.62,15.18,10.53,39.65-10.55,45.9-10.74,3.18-22.43,3.25-30.38-5.59-6.1-6.76-8.83-15.95-11.17-24.92,4.6,22.99,14.97,47.52,42.15,40.66Zm25.42-123.38c-.04,2.74-.83,5.47-2.18,7.85-.62,1.09-4.55,4.71-4.52,5.4.05.9,4.05,3.73,4.75,4.63,1.89,2.38,3.26,5.12,4.35,7.93,2.37,6.12,4.05,13.28,3.25,19.84-1.28,10.43-8.81,15-17.7,16.72,6.28-.04,12.61-.73,18.07-3.96,7.84-4.62,10.17-12.47,8.09-21.06-1.62-6.67-4.75-12.96-5.25-19.88-.56-7.67,2.46-14.98,2.62-22.59.19-9.1-4.53-16.55-14.18-16.98-7.13-.33-14.17,2.65-20.25,6.12,5.61-1.6,11.48-1.25,16.51,2.69,4.01,3.15,6.52,8.15,6.43,13.28Z"/><path class="cls-3" d="m111.07,62.72c-5.51,10.43-9.43,21.67-9.37,33.48.06.04.12.09.13.16,2.74,10.22,9.75,20.89,21.91,19.62,6.62-.7,9.98-6.67,9.26-12.94-.61-5.31-3.7-9.87-6.6-14.21-.21-.31.02-.66.31-.78,12.86-5.25,21.9-23.11,12.62-35.56-4.17-5.59-11.95-5.32-17.51-1.94-4.7,2.86-7.84,7.57-10.75,12.17Z"/><path class="cls-1" d="m102.77,102.89c.05.4.11.81.16,1.21,3.43,9.43,12.24,16.07,22.72,15.48,6.02-.35,12.17-3.74,12.66-10.38.45-6.34-3.96-11.6-7.82-16.08-.03-.03-.04-.05-.06-.09l-.23.15c.67,1,1.36,1.97,1.73,2.74,3.83,8.02,2.82,19.96-7.96,21.14-5.18.58-10.54-1.48-14.48-4.77-2.51-2.08-4.53-4.76-5.96-7.68-.27-.56-.52-1.13-.75-1.72Z"/><path class="cls-5" d="m103.39,107.51c.05.41.12.81.18,1.22,2.66,9.48,4.84,19.88,9.95,28.35,2.88,4.76,7.09,9.11,12.46,10.96,5.56,1.91,11.99,1.05,17.62-.19,10.67-2.35,18.44-9.51,20.06-20.55,1.56-10.57-3.35-19.64-9.61-27.64-.27-.22-.54-.44-.8-.66-.41-.35-.37-.91-.11-1.32,0-.25.14-.51.47-.53,5.23-.27,10.77-.85,15.41-3.51,5.81-3.33,8.34-9.46,8.46-15.95.19-10.17-3.93-23.58-13.1-29-.35-.21-.32-.69,0-.91,9.91-6.79,9.43-22.14-1.96-27.17-6.11-2.7-11.98-1.43-17.4,1.29-10.14,6.91-18.36,16.42-25.24,26.53,6.18-6.45,14.27-11.36,22.83-5.44,10.88,7.52,12.01,21.22,7.08,32.55-2.26,5.17-5.49,10.23-9.93,13.77-1.72,1.37-3.6,2.49-5.68,3.21-1.88.65-2.07.36-.95,2.06.81,1.24,1.88,2.32,2.7,3.56,6.19,9.23,3.57,20.5-8.25,22.31-9.99,1.52-20.05-4.09-24.18-12.93Z"/><path class="cls-4" d="m116.28,142.56c-6.1-6.76-8.83-15.95-11.17-24.92,4.6,22.99,14.97,47.52,42.15,40.66,12.6-3.18,26.74-11.11,29.68-24.83,2.97-13.87-9.65-23.2-19.72-31.22,11.62,15.18,10.53,39.65-10.55,45.9-10.74,3.18-22.43,3.25-30.38-5.59Z"/><path class="cls-1" d="m134.53,41.39c-7.79.03-13.26,6.26-17.69,12,3.98-4.07,8.86-6.92,15.02-6.26,10.85,1.16,13.29,14.44,11.34,23.31-1.17,5.29-4.04,10.12-8.09,13.72-1.79,1.58-4.57,2.48-6.16,4.08-1.11,1.12.03,3.1,1.25,4.95l.23-.15c-.16-.28-.08-.73.3-.8,13.75-2.43,23.12-21.38,20.5-34.29-1.53-7.61-8.24-16.59-16.71-16.56Z"/><path class="cls-4" d="m149.74,18.95c5.61-1.6,11.48-1.25,16.51,2.69,4.01,3.15,6.52,8.15,6.43,13.28-.04,2.74-.83,5.47-2.18,7.85-.62,1.09-4.55,4.71-4.52,5.4.05.9,4.05,3.73,4.75,4.63,1.89,2.38,3.26,5.12,4.35,7.93,2.37,6.12,4.05,13.28,3.25,19.84-1.28,10.43-8.81,15-17.7,16.72,6.28-.04,12.61-.73,18.07-3.96,7.84-4.62,10.17-12.47,8.09-21.06-1.62-6.67-4.75-12.96-5.25-19.88-.56-7.67,2.46-14.98,2.62-22.59.19-9.1-4.53-16.55-14.18-16.98-7.13-.33-14.17,2.65-20.25,6.12Z"/><path d="m115.84,21.2c.22.66.05,1.47-.51,1.86-.34.55-.92.89-1.62.7-.22-.05-.43-.17-.63-.31-6.45,8.47-10.14,18.42-11.16,28.99,4.12,1.71,2.77,10.33,2.8,13.45.09,9.73.11,19.45.04,29.17-.06,9.61-.19,19.21-.41,28.81.74,4.59,1.04,9.6.32,13.76,0,.02,0,.04,0,.05.04.27-.04.54-.2.75-.55,1.58-1.88,2.97-3.33,1.78-.06,0-.12.04-.19.04-.17.03-.31-.04-.41-.13-.18-.03-.33-.14-.35-.35-2.55-17.64-3.58-35.6-4.48-53.38-.44-8.7-1.33-17.72-.87-26.43.12-2.24.64-5.06,2.1-6.81-2.35-9.15-4.22-22.81-13.41-27.49-.08.13-.18.25-.29.36-.12.2-.27.38-.48.5-.39.22-.85.18-1.25,0-.27-.07-.5-.2-.68-.39-.11-.03-.21-.09-.31-.19-.65-.8-.33-1.91.38-2.57.19-.31.42-.6.65-.86.21-.24.7-.32.97-.12.56.42,1.04.98,1.22,1.64.04.02.08,0,.12.03,4.59,2.12,7.11,6.23,9.07,10.73,2.42,5.51,4.34,11.54,4.86,17.57.42-.31.91-.54,1.45-.68.31-.42.83-.41,1.23-.16.04,0,.06,0,.09,0,.09,0,.16.03.22.05.65-10.83,4.58-20.96,11.19-29.58.13-.18.27-.28.43-.35.06-.23.17-.44.31-.62.03-.25.08-.5.21-.73.23-.37.67-.71,1.12-.66.39.05.77.35,1.02.65.35.19.63.5.77.91Zm-16.18,99.44c.16,1.97.32,3.94.49,5.91-.11-1.96-.24-3.91-.42-5.87-.03-.02-.04-.03-.06-.04Z"/></g></svg>